{
.appVersion = "1158";
copyright = "Copyright (c) 2012-13 by vernon adams.";
customParameters = (
{
name = note;
value = "";
},
{
name = description;
value = "Copyright (c) 2011 by vernon adams. All rights reserved.";
},
{
name = openTypeNameLicense;
value = "Copyright (c) 2013, vernon adams (<URL|email>),\012with Reserved Font Name Topmarks.\012\012This Font Software is licensed under the SIL Open Font License, Version 1.1.\012This license is copied below, and is also available with a FAQ at:\012http://scripts.sil.org/OFL";
},
{
name = openTypeNameLicenseURL;
value = "http://scripts.sil.org/OFL";
},
{
name = openTypeNameVersion;
value = "Version ";
},
{
name = openTypeOS2FamilyClass;
value = (
0,
0
);
},
{
name = vendorID;
value = newt;
},
{
name = blueFuzz;
value = 1;
},
{
name = blueScale;
value = 0.03963;
},
{
name = blueShift;
value = 7;
},
{
name = trademark;
value = "Topmarks is a trademark of vernon adams.";
}
);
date = "2018-07-25 18:37:07 +0000";
designer = "vernon adams";
disablesAutomaticAlignment = 1;
disablesNiceNames = 1;
familyName = Topmarks;
fontMaster = (
{
alignmentZones = (
"{1560, 26}",
"{1026, 26}",
"{0, -24}",
"{-508, -66}"
);
ascender = 1560;
capHeight = 1560;
customParameters = (
{
name = typoAscender;
value = 1968;
},
{
name = typoDescender;
value = -656;
},
{
name = typoLineGap;
value = 0;
},
{
name = winAscent;
value = 1968;
},
{
name = winDescent;
value = 656;
},
{
name = underlineThickness;
value = 0;
},
{
name = underlinePosition;
value = 0;
}
);
descender = -656;
horizontalStems = (
20,
106,
124,
132,
138,
150
);
id = "2E262F32-97C5-4CC7-8265-2EAE7B11245A";
verticalStems = (
164,
170,
174,
184
);
xHeight = 1026;
}
);
glyphs = (
{
glyphname = A;
lastChange = "2018-07-25 18:37:52 +0000";
layers = (
{
layerId = "2E262F32-97C5-4CC7-8265-2EAE7B11245A";
paths = (
{
closed = 1;
nodes = (
"204 0 LINE",
"371 479 LINE",
"996 479 LINE",
"1164 0 LINE",
"1345 0 LINE",
"775 1560 LINE",
"597 1560 LINE",
"28 0 LINE"
);
},
{
closed = 1;
nodes = (
"510 872 OFFCURVE",
"597 1130 OFFCURVE",
"686 1385 CURVE",
"769 1125 OFFCURVE",
"857 871 OFFCURVE",
"944 615 CURVE",
"423 615 LINE"
);
}
);
width = 1388;
}
);
unicode = 0041;
userData = {
org.pippin.gimp.org.kernagic = {
lstem = 0;
rstem = 0;
};
};
},
{
glyphname = Aacute;
lastChange = "2018-07-25 18:37:52 +0000";
layers = (
{
layerId = "2E262F32-97C5-4CC7-8265-2EAE7B11245A";
paths = (
{
closed = 1;
nodes = (
"204 0 LINE",
"371 479 LINE",
"996 479 LINE",
"1164 0 LINE",
"1345 0 LINE",
"775 1560 LINE",
"597 1560 LINE",
"28 0 LINE"
);
},
{
closed = 1;
nodes = (
"510 872 OFFCURVE",
"597 1130 OFFCURVE",
"686 1385 CURVE",
"769 1125 OFFCURVE",
"857 871 OFFCURVE",
"944 615 CURVE",
"423 615 LINE"
);
},
{
closed = 1;
nodes = (
"749 1624 LINE",
"1057 1944 LINE",
"845 1944 LINE",
"619 1624 LINE"
);
}
);
width = 1388;
}
);
unicode = 00C1;
userData = {
org.pippin.gimp.org.kernagic = {
lstem = 0;
rstem = 0;
};
};
},
{
glyphname = Abreve;
lastChange = "2018-07-25 18:37:52 +0000";
layers = (
{
layerId = "2E262F32-97C5-4CC7-8265-2EAE7B11245A";
paths = (
{
closed = 1;
nodes = (
"204 0 LINE",
"371 479 LINE",
"996 479 LINE",
"1164 0 LINE",
"1345 0 LINE",
"775 1560 LINE",
"597 1560 LINE",
"28 0 LINE"
);
},
{
closed = 1;
nodes = (
"510 872 OFFCURVE",
"597 1130 OFFCURVE",
"686 1385 CURVE",
"769 1125 OFFCURVE",
"857 871 OFFCURVE",
"944 615 CURVE",
"423 615 LINE"
);
},
{
closed = 1;
nodes = (
"801 1711 OFFCURVE",
"916 1789 OFFCURVE",
"929 1946 CURVE",
"843 1946 LINE",
"823 1861 OFFCURVE",
"751 1817 OFFCURVE",
"681 1817 CURVE SMOOTH",
"613 1817 OFFCURVE",
"547 1859 OFFCURVE",
"532 1946 CURVE",
"445 1946 LINE",
"458 1789 OFFCURVE",
"572 1711 OFFCURVE",
"686 1711 CURVE SMOOTH"
);
}
);
width = 1388;
}
);
unicode = 0102;
userData = {
org.pippin.gimp.org.kernagic = {
lstem = 0;
rstem = 0;
};
};
},
{
glyphname = Acircumflex;
lastChange = "2018-07-25 18:37:52 +0000";
layers = (
{
layerId = "2E262F32-97C5-4CC7-8265-2EAE7B11245A";
paths = (
{
closed = 1;
nodes = (
"204 0 LINE",
"371 479 LINE",
"996 479 LINE",
"1164 0 LINE",
"1345 0 LINE",
"775 1560 LINE",
"597 1560 LINE",
"28 0 LINE"
);
},
{
closed = 1;
nodes = (
"510 872 OFFCURVE",
"597 1130 OFFCURVE",
"686 1385 CURVE",
"769 1125 OFFCURVE",
"857 871 OFFCURVE",
"944 615 CURVE",
"423 615 LINE"
);
},
{
closed = 1;
nodes = (
"506 1643 LINE",
"684 1859 LINE",
"862 1643 LINE",
"994 1643 LINE",
"765 1967 LINE",
"608 1967 LINE",
"380 1643 LINE"
);
}
);
width = 1388;
}
);
unicode = 00C2;
userData = {
org.pippin.gimp.org.kernagic = {
lstem = 0;
rstem = 0;
};
};
},
{
glyphname = Adieresis;
lastChange = "2018-07-25 18:37:52 +0000";
layers = (
{
layerId = "2E262F32-97C5-4CC7-8265-2EAE7B11245A";
paths = (
{
closed = 1;
nodes = (
"204 0 LINE",
"371 479 LINE",
"996 479 LINE",
"1164 0 LINE",
"1345 0 LINE",
"775 1560 LINE",
"597 1560 LINE",
"28 0 LINE"
);
},
{
closed = 1;
nodes = (
"510 872 OFFCURVE",
"597 1130 OFFCURVE",
"686 1385 CURVE",
"769 1125 OFFCURVE",
"857 871 OFFCURVE",
"944 615 CURVE",
"423 615 LINE"
);
},
{
closed = 1;
nodes = (
"580 1664 OFFCURVE",
"617 1701 OFFCURVE",
"617 1746 CURVE SMOOTH",
"617 1770 LINE SMOOTH",
"617 1815 OFFCURVE",
"580 1852 OFFCURVE",
"535 1852 CURVE SMOOTH",
"490 1852 OFFCURVE",
"453 1815 OFFCURVE",
"453 1770 CURVE SMOOTH",
"453 1746 LINE SMOOTH",
"453 1701 OFFCURVE",
"490 1664 OFFCURVE",
"535 1664 CURVE SMOOTH"
);
},
{
closed = 1;
nodes = (
"912 1664 OFFCURVE",
"949 1701 OFFCURVE",
"949 1746 CURVE SMOOTH",
"949 1770 LINE SMOOTH",
"949 1815 OFFCURVE",
"912 1852 OFFCURVE",
"867 1852 CURVE SMOOTH",
"822 1852 OFFCURVE",
"785 1815 OFFCURVE",
"785 1770 CURVE SMOOTH",
"785 1746 LINE SMOOTH",
"785 1701 OFFCURVE",
"822 1664 OFFCURVE",
"867 1664 CURVE SMOOTH"
);
}
);
width = 1388;
}
);
unicode = 00C4;
userData = {
org.pippin.gimp.org.kernagic = {
lstem = 0;
rstem = 0;
};
};
},
{
glyphname = Agrave;
lastChange = "2018-07-25 18:37:52 +0000";
layers = (
{
layerId = "2E262F32-97C5-4CC7-8265-2EAE7B11245A";
paths = (
{
closed = 1;
nodes = (
"204 0 LINE",
"371 479 LINE",
"996 479 LINE",
"1164 0 LINE",
"1345 0 LINE",
"775 1560 LINE",
"597 1560 LINE",
"28 0 LINE"
);
},
{
closed = 1;
nodes = (
"510 872 OFFCURVE",
"597 1130 OFFCURVE",
"686 1385 CURVE",
"769 1125 OFFCURVE",
"857 871 OFFCURVE",
"944 615 CURVE",
"423 615 LINE"
);
},
{
closed = 1;
nodes = (
"766 1648 LINE",
"519 1968 LINE",
"305 1968 LINE",
"637 1648 LINE"
);
}
);
width = 1388;
}
);
unicode = 00C0;
userData = {
org.pippin.gimp.org.kernagic = {
lstem = 0;
rstem = 0;
};
};
},
{
glyphname = Amacron;
lastChange = "2018-07-25 18:37:52 +0000";
layers = (
{
layerId = "2E262F32-97C5-4CC7-8265-2EAE7B11245A";
paths = (
{
closed = 1;
nodes = (
"204 0 LINE",
"371 479 LINE",
"996 479 LINE",
"1164 0 LINE",
"1345 0 LINE",
"775 1560 LINE",
"597 1560 LINE",
"28 0 LINE"
);
},
{
closed = 1;
nodes = (
"510 872 OFFCURVE",
"597 1130 OFFCURVE",
"686 1385 CURVE",
"769 1125 OFFCURVE",
"857 871 OFFCURVE",
"944 615 CURVE",
"423 615 LINE"
);
},
{
closed = 1;
nodes = (
"978 1706 LINE",
"978 1840 LINE",
"406 1840 LINE",
"406 1706 LINE"
);
}
);
width = 1388;
}
);
unicode = 0100;
userData = {
org.pippin.gimp.org.kernagic = {
lstem = 0;
rstem = 0;
};
};
},
{
glyphname = Aogonek;
lastChange = "2018-07-25 18:37:52 +0000";
layers = (
{
layerId = "2E262F32-97C5-4CC7-8265-2EAE7B11245A";
paths = (
{
closed = 1;
nodes = (
"1274 -390 OFFCURVE",
"1341 -380 OFFCURVE",
"1387 -361 CURVE",
"1387 -250 LINE",
"1341 -268 OFFCURVE",
"1297 -281 OFFCURVE",
"1233 -281 CURVE SMOOTH",
"1182 -281 OFFCURVE",
"1133 -250 OFFCURVE",
"1133 -199 CURVE SMOOTH",
"1133 -117 OFFCURVE",
"1250 -52 OFFCURVE",
"1336 0 CURVE",
"1339 0 LINE",
"769 1560 LINE",
"591 1560 LINE",
"22 0 LINE",
"198 0 LINE",
"365 479 LINE",
"990 479 LINE",
"1158 0 LINE",
"1182 0 LINE",
"1089 -45.709 OFFCURVE",
"992 -107.588 OFFCURVE",
"992 -225 CURVE SMOOTH",
"992 -335 OFFCURVE",
"1085 -390 OFFCURVE",
"1210 -390 CURVE SMOOTH"
);
},
{
closed = 1;
nodes = (
"504 872 OFFCURVE",
"591 1130 OFFCURVE",
"680 1385 CURVE",
"763 1125 OFFCURVE",
"851 871 OFFCURVE",
"938 615 CURVE",
"417 615 LINE"
);
}
);
width = 1388;
}
);
unicode = 0104;
userData = {
org.pippin.gimp.org.kernagic = {
lstem = 0;
rstem = 0;
};
};
},
{
glyphname = Aring;
lastChange = "2018-07-25 18:37:52 +0000";
layers = (
{
layerId = "2E262F32-97C5-4CC7-8265-2EAE7B11245A";
paths = (
{
closed = 1;
nodes = (
"204 0 LINE",
"371 479 LINE",
"996 479 LINE",
"1164 0 LINE",
"1345 0 LINE",
"785 1531.54 LINE",
"837 1562.45 OFFCURVE",
"872 1617.14 OFFCURVE",
"872 1684 CURVE SMOOTH",
"872 1788 OFFCURVE",
"787 1864 OFFCURVE",
"682 1864 CURVE SMOOTH",
"578 1864 OFFCURVE",
"492 1788 OFFCURVE",
"492 1684 CURVE SMOOTH",
"492 1614.5 OFFCURVE",
"529 1558.14 OFFCURVE",
"585 1527.98 CURVE",
"28 0 LINE"
);
},
{
closed = 1;
nodes = (
"510 872 OFFCURVE",
"597 1130 OFFCURVE",
"686 1385 CURVE",
"769 1125 OFFCURVE",
"857 871 OFFCURVE",
"944 615 CURVE",
"423 615 LINE"
);
},
{
closed = 1;
nodes = (
"624 1579 OFFCURVE",
"581 1627 OFFCURVE",
"581 1685 CURVE SMOOTH",
"581 1742 OFFCURVE",
"624 1790 OFFCURVE",
"682 1790 CURVE SMOOTH",
"739 1790 OFFCURVE",
"783 1742 OFFCURVE",
"783 1685 CURVE SMOOTH",
"783 1627 OFFCURVE",
"739 1579 OFFCURVE",
"682 1579 CURVE SMOOTH"
);
}
);
width = 1388;
}
);
unicode = 00C5;
userData = {
org.pippin.gimp.org.kernagic = {
lstem = 0;
rstem = 0;
};
};
},
{
glyphname = Atilde;
lastChange = "2018-07-25 18:37:52 +0000";
layers = (
{
layerId = "2E262F32-97C5-4CC7-8265-2EAE7B11245A";
paths = (
{
closed = 1;
nodes = (
"204 0 LINE",
"371 479 LINE",
"996 479 LINE",
"1164 0 LINE",
"1345 0 LINE",
"775 1560 LINE",
"597 1560 LINE",
"28 0 LINE"
);
},
{
closed = 1;
nodes = (
"510 872 OFFCURVE",
"597 1130 OFFCURVE",
"686 1385 CURVE",
"769 1125 OFFCURVE",
"857 871 OFFCURVE",
"944 615 CURVE",
"423 615 LINE"
);
},
{
closed = 1;
nodes = (
"510 1647 LINE",
"517 1700 OFFCURVE",
"526 1739 OFFCURVE",
"571 1739 CURVE SMOOTH",
"647 1739 OFFCURVE",
"693 1648 OFFCURVE",
"794 1648 CURVE SMOOTH",
"918 1648 OFFCURVE",
"976 1756 OFFCURVE",
"989 1869 CURVE",
"881 1869 LINE",
"874 1820 OFFCURVE",
"867 1773 OFFCURVE",
"821 1773 CURVE SMOOTH",
"769 1773 OFFCURVE",
"711 1863 OFFCURVE",
"604 1863 CURVE SMOOTH",
"480 1863 OFFCURVE",
"415 1763 OFFCURVE",
"405 1647 CURVE"
);
}
);
width = 1388;
}
);
unicode = 00C3;
userData = {
org.pippin.gimp.org.kernagic = {
lstem = 0;
rstem = 0;
};
};
},
{
glyphname = AE;
lastChange = "2018-07-25 18:37:52 +0000";
layers = (
{
layerId = "2E262F32-97C5-4CC7-8265-2EAE7B11245A";
paths = (
{
closed = 1;
nodes = (
"117 0 LINE",
"336 398 LINE",
"956 398 LINE",
"986 0 LINE",
"1761 0 LINE",
"1761 148 LINE",
"1133 148 LINE",
"1093 672 LINE",
"1697 672 LINE",
"1697 820 LINE",
"1075 820 LINE",
"1039 1308 LINE",
"1738 1308 LINE",
"1738 1456 LINE",
"729 1456 LINE",
"-74 0 LINE"
);
},
{
closed = 1;
nodes = (
"832 1308 LINE",
"880 1308 LINE",
"938 546 LINE",
"412 546 LINE"
);
}
);
width = 1750;
}
);
unicode = 00C6;
userData = {
org.pippin.gimp.org.kernagic = {
lstem = 0;
rstem = 0;
};
};
},
{
glyphname = B;
lastChange = "2018-07-25 18:37:52 +0000";
layers = (
{
layerId = "2E262F32-97C5-4CC7-8265-2EAE7B11245A";
paths = (
{
closed = 1;
nodes = (
"612 0 LINE SMOOTH",
"954 0 OFFCURVE",
"1187 122 OFFCURVE",
"1187 432 CURVE SMOOTH",
"1187 669 OFFCURVE",
"1067 782 OFFCURVE",
"866 824 CURVE",
"1028 882 OFFCURVE",
"1119 983 OFFCURVE",
"1119 1184 CURVE SMOOTH",
"1119 1454 OFFCURVE",
"935 1560 OFFCURVE",
"565 1560 CURVE SMOOTH",
"167 1560 LINE",
"167 0 LINE"
);
},
{
closed = 1;
nodes = (
"341 733 LINE",
"561 733 LINE SMOOTH",
"866 733 OFFCURVE",
"1005 645 OFFCURVE",
"1005 435 CURVE SMOOTH",
"1005 229 OFFCURVE",
"870 138 OFFCURVE",
"606 138 CURVE SMOOTH",
"341 138 LINE"
);
},
{
closed = 1;
nodes = (
"341 1422 LINE",
"565 1422 LINE SMOOTH",
"852 1422 OFFCURVE",
"940 1339 OFFCURVE",
"940 1154 CURVE SMOOTH",
"940 962 OFFCURVE",
"809 884 OFFCURVE",
"531 884 CURVE SMOOTH",
"341 884 LINE"
);
}
);
width = 1297;
}
);
unicode = 0042;
userData = {
org.pippin.gimp.org.kernagic = {
lstem = 0;
rstem = 0;
};
};
},
{
glyphname = C;
lastChange = "2018-07-25 18:37:52 +0000";
layers = (
{
layerId = "2E262F32-97C5-4CC7-8265-2EAE7B11245A";
paths = (
{
closed = 1;
nodes = (
"992 -24 OFFCURVE",
"1124 18 OFFCURVE",
"1270 100 CURVE",
"1217 230 LINE",
"1092 161 OFFCURVE",
"953 126 OFFCURVE",
"841 126 CURVE SMOOTH",
"539 126 OFFCURVE",
"313 375 OFFCURVE",
"313 783 CURVE SMOOTH",
"313 1198 OFFCURVE",
"548 1436 OFFCURVE",
"847 1436 CURVE SMOOTH",
"961 1436 OFFCURVE",
"1082 1402 OFFCURVE",
"1209 1332 CURVE",
"1270 1466 LINE",
"1124 1548 OFFCURVE",
"992 1586 OFFCURVE",
"828 1586 CURVE SMOOTH",
"450 1586 OFFCURVE",
"130 1310 OFFCURVE",
"130 783 CURVE SMOOTH",
"130 256 OFFCURVE",
"450 -24 OFFCURVE",
"828 -24 CURVE SMOOTH"
);
}
);
width = 1357;
}
);
unicode = 0043;
userData = {
org.pippin.gimp.org.kernagic = {
lstem = 0;
rstem = 0;
};
};
},
{
glyphname = Cacute;
lastChange = "2018-07-25 18:37:52 +0000";
layers = (
{
layerId = "2E262F32-97C5-4CC7-8265-2EAE7B11245A";
paths = (
{
closed = 1;
nodes = (
"992 -24 OFFCURVE",
"1124 18 OFFCURVE",
"1270 100 CURVE",
"1217 230 LINE",
"1092 161 OFFCURVE",
"953 126 OFFCURVE",
"841 126 CURVE SMOOTH",
"539 126 OFFCURVE",
"313 375 OFFCURVE",
"313 783 CURVE SMOOTH",
"313 1198 OFFCURVE",
"548 1436 OFFCURVE",
"847 1436 CURVE SMOOTH",
"961 1436 OFFCURVE",
"1082 1402 OFFCURVE",
"1209 1332 CURVE",
"1270 1466 LINE",
"1124 1548 OFFCURVE",
"992 1586 OFFCURVE",
"828 1586 CURVE SMOOTH",
"450 1586 OFFCURVE",
"130 1310 OFFCURVE",
"130 783 CURVE SMOOTH",
"130 256 OFFCURVE",
"450 -24 OFFCURVE",
"828 -24 CURVE SMOOTH"
);
},
{
closed = 1;
nodes = (
"853 1624 LINE",
"1161 1944 LINE",
"949 1944 LINE",
"723 1624 LINE"
);
}
);
width = 1357;
}
);
unicode = 0106;
userData = {
org.pippin.gimp.org.kernagic = {
lstem = 0;
rstem = 0;
};
};
},
{
glyphname = Ccaron;
lastChange = "2018-07-25 18:37:52 +0000";
layers = (
{
layerId = "2E262F32-97C5-4CC7-8265-2EAE7B11245A";
paths = (
{
closed = 1;
nodes = (
"992 -24 OFFCURVE",
"1124 18 OFFCURVE",
"1270 100 CURVE",
"1217 230 LINE",
"1092 161 OFFCURVE",
"953 126 OFFCURVE",
"841 126 CURVE SMOOTH",
"539 126 OFFCURVE",
"313 375 OFFCURVE",
"313 783 CURVE SMOOTH",
"313 1198 OFFCURVE",
"548 1436 OFFCURVE",
"847 1436 CURVE SMOOTH",
"961 1436 OFFCURVE",
"1082 1402 OFFCURVE",
"1209 1332 CURVE",
"1270 1466 LINE",
"1124 1548 OFFCURVE",
"992 1586 OFFCURVE",
"828 1586 CURVE SMOOTH",
"450 1586 OFFCURVE",
"130 1310 OFFCURVE",
"130 783 CURVE SMOOTH",
"130 256 OFFCURVE",
"450 -24 OFFCURVE",
"828 -24 CURVE SMOOTH"
);
},
{
closed = 1;
nodes = (
"876 1644 LINE",
"1114 1967 LINE",
"960 1967 LINE",
"792 1752 LINE",
"628 1967 LINE",
"481 1967 LINE",
"720 1644 LINE"
);
}
);
width = 1357;
}
);
unicode = 010C;
userData = {
org.pippin.gimp.org.kernagic = {
lstem = 0;
rstem = 0;
};
};
},
{
glyphname = Ccedilla;
lastChange = "2018-07-25 18:37:52 +0000";
layers = (
{
layerId = "2E262F32-97C5-4CC7-8265-2EAE7B11245A";
paths = (
{
closed = 1;
nodes = (
"908 -396 OFFCURVE",
"1028 -359 OFFCURVE",
"1028 -239 CURVE SMOOTH",
"1028 -131 OFFCURVE",
"932 -95 OFFCURVE",
"828 -90 CURVE",
"819 -90 LINE",
"830 -23.998 LINE",
"993 -23.64 OFFCURVE",
"1124 18.351 OFFCURVE",
"1270 100 CURVE",
"1217 230 LINE",
"1092 161 OFFCURVE",
"953 126 OFFCURVE",
"841 126 CURVE SMOOTH",
"539 126 OFFCURVE",
"313 375 OFFCURVE",
"313 783 CURVE SMOOTH",
"313 1198 OFFCURVE",
"548 1436 OFFCURVE",
"847 1436 CURVE SMOOTH",
"961 1436 OFFCURVE",
"1082 1402 OFFCURVE",
"1209 1332 CURVE",
"1270 1466 LINE",
"1124 1548 OFFCURVE",
"992 1586 OFFCURVE",
"828 1586 CURVE SMOOTH",
"450 1586 OFFCURVE",
"130 1310 OFFCURVE",
"130 783 CURVE SMOOTH",
"130 300.372 OFFCURVE",
"398 24.902 OFFCURVE",
"733 -18.065 CURVE",
"707 -173 LINE",
"739 -171 LINE SMOOTH",
"750 -170 OFFCURVE",
"767 -168 OFFCURVE",
"776 -168 CURVE SMOOTH",
"836 -168 OFFCURVE",
"885 -182 OFFCURVE",
"885 -241 CURVE SMOOTH",
"885 -297 OFFCURVE",
"837 -313 OFFCURVE",
"771 -313 CURVE SMOOTH",
"717 -313 OFFCURVE",
"670 -301 OFFCURVE",
"620 -289 CURVE",
"612 -374 LINE",
"666 -385 OFFCURVE",
"727 -396 OFFCURVE",
"787 -396 CURVE SMOOTH"
);
}
);
width = 1357;
}
);
unicode = 00C7;
userData = {
org.pippin.gimp.org.kernagic = {
lstem = 0;
rstem = 0;
};
};
},
{
glyphname = Ccircumflex;
lastChange = "2018-07-25 18:37:52 +0000";
layers = (
{
layerId = "2E262F32-97C5-4CC7-8265-2EAE7B11245A";
paths = (
{
closed = 1;
nodes = (
"992 -24 OFFCURVE",
"1124 18 OFFCURVE",
"1270 100 CURVE",
"1217 230 LINE",
"1092 161 OFFCURVE",
"953 126 OFFCURVE",
"841 126 CURVE SMOOTH",
"539 126 OFFCURVE",
"313 375 OFFCURVE",
"313 783 CURVE SMOOTH",
"313 1198 OFFCURVE",
"548 1436 OFFCURVE",
"847 1436 CURVE SMOOTH",
"961 1436 OFFCURVE",
"1082 1402 OFFCURVE",
"1209 1332 CURVE",
"1270 1466 LINE",
"1124 1548 OFFCURVE",
"992 1586 OFFCURVE",
"828 1586 CURVE SMOOTH",
"450 1586 OFFCURVE",
"130 1310 OFFCURVE",
"130 783 CURVE SMOOTH",
"130 256 OFFCURVE",
"450 -24 OFFCURVE",
"828 -24 CURVE SMOOTH"
);
},
{
closed = 1;
nodes = (
"610 1643 LINE",
"788 1859 LINE",
"966 1643 LINE",
"1098 1643 LINE",
"869 1967 LINE",
"712 1967 LINE",
"484 1643 LINE"
);
}
);
width = 1357;
}
);
unicode = 0108;
userData = {
org.pippin.gimp.org.kernagic = {
lstem = 0;
rstem = 0;
};
};
},
{
glyphname = Cdotaccent;
lastChange = "2018-07-25 18:37:52 +0000";
layers = (
{
layerId = "2E262F32-97C5-4CC7-8265-2EAE7B11245A";
paths = (
{
closed = 1;
nodes = (
"992 -24 OFFCURVE",
"1124 18 OFFCURVE",
"1270 100 CURVE",
"1217 230 LINE",
"1092 161 OFFCURVE",
"953 126 OFFCURVE",
"841 126 CURVE SMOOTH",
"539 126 OFFCURVE",
"313 375 OFFCURVE",
"313 783 CURVE SMOOTH",
"313 1198 OFFCURVE",
"548 1436 OFFCURVE",
"847 1436 CURVE SMOOTH",
"961 1436 OFFCURVE",
"1082 1402 OFFCURVE",
"1209 1332 CURVE",
"1270 1466 LINE",
"1124 1548 OFFCURVE",
"992 1586 OFFCURVE",
"828 1586 CURVE SMOOTH",
"450 1586 OFFCURVE",
"130 1310 OFFCURVE",
"130 783 CURVE SMOOTH",
"130 256 OFFCURVE",
"450 -24 OFFCURVE",
"828 -24 CURVE SMOOTH"
);
},
{
closed = 1;
nodes = (
"833 1752 LINE",
"833 1915 LINE",
"673 1915 LINE",
"673 1752 LINE"
);
}
);
width = 1357;
}
);
unicode = 010A;
userData = {
org.pippin.gimp.org.kernagic = {
lstem = 0;
rstem = 0;
};
};
},
{
glyphname = D;
lastChange = "2018-07-25 18:37:52 +0000";
layers = (
{
layerId = "2E262F32-97C5-4CC7-8265-2EAE7B11245A";
paths = (
{
closed = 1;
nodes = (
"585 0 LINE SMOOTH",
"1051 0 OFFCURVE",
"1375 295 OFFCURVE",
"1375 778 CURVE SMOOTH",
"1375 1327 OFFCURVE",
"1024 1560 OFFCURVE",
"498 1560 CURVE SMOOTH",
"173 1560 LINE",
"173 0 LINE"
);
},
{
closed = 1;
nodes = (
"347 1422 LINE",
"502 1422 LINE SMOOTH",
"934 1422 OFFCURVE",
"1193 1232 OFFCURVE",
"1193 775 CURVE SMOOTH",
"1193 388 OFFCURVE",
"966 138 OFFCURVE",
"596 138 CURVE SMOOTH",
"347 138 LINE"
);
}
);
width = 1508;
}
);
unicode = 0044;
userData = {
org.pippin.gimp.org.kernagic = {
lstem = 0;
rstem = 0;
};
};
},
{
glyphname = Eth;
lastChange = "2018-07-25 18:37:52 +0000";
layers = (
{
layerId = "2E262F32-97C5-4CC7-8265-2EAE7B11245A";
paths = (
{
closed = 1;
nodes = (
"595 0 LINE SMOOTH",
"1061 0 OFFCURVE",
"1385 295 OFFCURVE",
"1385 778 CURVE SMOOTH",
"1385 1327 OFFCURVE",
"1034 1560 OFFCURVE",
"508 1560 CURVE SMOOTH",
"183 1560 LINE",
"183 800 LINE",
"28 800 LINE",
"28 672 LINE",
"183 672 LINE",
"183 0 LINE"
);
},
{
closed = 1;
nodes = (
"357 672 LINE",
"595 672 LINE",
"595 800 LINE",
"357 800 LINE",
"357 1422 LINE",
"512 1422 LINE SMOOTH",
"944 1422 OFFCURVE",
"1203 1232 OFFCURVE",
"1203 775 CURVE SMOOTH",
"1203 388 OFFCURVE",
"976 138 OFFCURVE",
"606 138 CURVE SMOOTH",
"357 138 LINE"
);
}
);
width = 1508;
}
);
unicode = 00D0;
userData = {
org.pippin.gimp.org.kernagic = {
lstem = 0;
rstem = 0;
};
};
},
{
glyphname = Dcaron;
lastChange = "2018-07-25 18:37:52 +0000";
layers = (
{
layerId = "2E262F32-97C5-4CC7-8265-2EAE7B11245A";
paths = (
{
closed = 1;
nodes = (
"585 0 LINE SMOOTH",
"1051 0 OFFCURVE",
"1375 295 OFFCURVE",
"1375 778 CURVE SMOOTH",
"1375 1327 OFFCURVE",
"1024 1560 OFFCURVE",
"498 1560 CURVE SMOOTH",
"173 1560 LINE",
"173 0 LINE"
);
},
{
closed = 1;
nodes = (
"347 1422 LINE",
"502 1422 LINE SMOOTH",
"934 1422 OFFCURVE",
"1193 1232 OFFCURVE",
"1193 775 CURVE SMOOTH",
"1193 388 OFFCURVE",
"966 138 OFFCURVE",
"596 138 CURVE SMOOTH",
"347 138 LINE"
);
},
{
closed = 1;
nodes = (
"757 1644 LINE",
"995 1967 LINE",
"841 1967 LINE",
"673 1752 LINE",
"509 1967 LINE",
"362 1967 LINE",
"601 1644 LINE"
);
}
);
width = 1508;
}
);
unicode = 010E;
userData = {
org.pippin.gimp.org.kernagic = {
lstem = 0;
rstem = 0;
};
};
},
{
glyphname = E;
lastChange = "2018-07-25 18:37:52 +0000";
layers = (
{
layerId = "2E262F32-97C5-4CC7-8265-2EAE7B11245A";
paths = (
{
closed = 1;
nodes = (
"1070 0 LINE",
"1070 138 LINE",
"347 138 LINE",
"347 732 LINE",
"982 732 LINE",
"982 870 LINE",
"347 870 LINE",
"347 1422 LINE",
"1020 1422 LINE",
"1020 1560 LINE",
"173 1560 LINE",
"173 0 LINE"
);
}
);
width = 1176;
}
);
unicode = 0045;
userData = {
org.pippin.gimp.org.kernagic = {
lstem = 0;
rstem = 0;
};
};
},
{
glyphname = Eacute;
lastChange = "2018-07-25 18:37:52 +0000";
layers = (
{
layerId = "2E262F32-97C5-4CC7-8265-2EAE7B11245A";
paths = (
{
closed = 1;
nodes = (
"1070 0 LINE",
"1070 138 LINE",
"347 138 LINE",
"347 732 LINE",
"982 732 LINE",
"982 870 LINE",
"347 870 LINE",
"347 1422 LINE",
"1020 1422 LINE",
"1020 1560 LINE",
"173 1560 LINE",
"173 0 LINE"
);
},
{
closed = 1;
nodes = (
"690 1624 LINE",
"998 1944 LINE",
"786 1944 LINE",
"560 1624 LINE"
);
}
);
width = 1176;
}
);
unicode = 00C9;
userData = {
org.pippin.gimp.org.kernagic = {
lstem = 0;
rstem = 0;
};
};
},
{
glyphname = Ebreve;
lastChange = "2018-07-25 18:37:52 +0000";
layers = (
{
layerId = "2E262F32-97C5-4CC7-8265-2EAE7B11245A";
paths = (
{
closed = 1;
nodes = (
"1070 0 LINE",
"1070 138 LINE",
"347 138 LINE",
"347 732 LINE",
"982 732 LINE",
"982 870 LINE",
"347 870 LINE",
"347 1422 LINE",
"1020 1422 LINE",
"1020 1560 LINE",
"173 1560 LINE",
"173 0 LINE"
);
},
{
closed = 1;
nodes = (
"742 1711 OFFCURVE",
"857 1789 OFFCURVE",
"870 1946 CURVE",
"784 1946 LINE",
"764 1861 OFFCURVE",
"692 1817 OFFCURVE",
"622 1817 CURVE SMOOTH",
"554 1817 OFFCURVE",
"488 1859 OFFCURVE",
"473 1946 CURVE",
"386 1946 LINE",
"399 1789 OFFCURVE",
"513 1711 OFFCURVE",
"627 1711 CURVE SMOOTH"
);
}
);
width = 1176;
}
);
unicode = 0114;
userData = {
org.pippin.gimp.org.kernagic = {
lstem = 0;
rstem = 0;
};
};
},
{
glyphname = Ecaron;
lastChange = "2018-07-25 18:37:52 +0000";
layers = (
{
layerId = "2E262F32-97C5-4CC7-8265-2EAE7B11245A";
paths = (
{
closed = 1;
nodes = (
"1070 0 LINE",
"1070 138 LINE",
"347 138 LINE",
"347 732 LINE",
"982 732 LINE",
"982 870 LINE",
"347 870 LINE",
"347 1422 LINE",
"1020 1422 LINE",
"1020 1560 LINE",
"173 1560 LINE",
"173 0 LINE"
);
},
{
closed = 1;
nodes = (
"713 1644 LINE",
"951 1967 LINE",
"797 1967 LINE",
"629 1752 LINE",
"465 1967 LINE",
"318 1967 LINE",
"557 1644 LINE"
);
}
);
width = 1176;
}
);
unicode = 011A;
userData = {
org.pippin.gimp.org.kernagic = {
lstem = 0;
rstem = 0;
};
};
},
{
glyphname = Ecircumflex;
lastChange = "2018-07-25 18:37:52 +0000";
layers = (
{
layerId = "2E262F32-97C5-4CC7-8265-2EAE7B11245A";
paths = (
{
closed = 1;
nodes = (
"1070 0 LINE",
"1070 138 LINE",
"347 138 LINE",
"347 732 LINE",
"982 732 LINE",
"982 870 LINE",
"347 870 LINE",
"347 1422 LINE",
"1020 1422 LINE",
"1020 1560 LINE",
"173 1560 LINE",
"173 0 LINE"
);
},
{
closed = 1;
nodes = (
"447 1643 LINE",
"625 1859 LINE",
"803 1643 LINE",
"935 1643 LINE",
"706 1967 LINE",
"549 1967 LINE",
"321 1643 LINE"
);
}
);
width = 1176;
}
);
unicode = 00CA;
userData = {
org.pippin.gimp.org.kernagic = {
lstem = 0;
rstem = 0;
};
};
},
{
glyphname = Edieresis;
lastChange = "2018-07-25 18:37:52 +0000";
layers = (
{
layerId = "2E262F32-97C5-4CC7-8265-2EAE7B11245A";
paths = (
{
closed = 1;
nodes = (
"1070 0 LINE",
"1070 138 LINE",
"347 138 LINE",
"347 732 LINE",
"982 732 LINE",
"982 870 LINE",
"347 870 LINE",
"347 1422 LINE",
"1020 1422 LINE",
"1020 1560 LINE",
"173 1560 LINE",
"173 0 LINE"
);
},
{
closed = 1;
nodes = (
"521 1664 OFFCURVE",
"558 1701 OFFCURVE",
"558 1746 CURVE SMOOTH",
"558 1770 LINE SMOOTH",
"558 1815 OFFCURVE",
"521 1852 OFFCURVE",
"476 1852 CURVE SMOOTH",
"431 1852 OFFCURVE",
"394 1815 OFFCURVE",
"394 1770 CURVE SMOOTH",
"394 1746 LINE SMOOTH",
"394 1701 OFFCURVE",
"431 1664 OFFCURVE",
"476 1664 CURVE SMOOTH"
);
},
{
closed = 1;
nodes = (
"853 1664 OFFCURVE",
"890 1701 OFFCURVE",
"890 1746 CURVE SMOOTH",
"890 1770 LINE SMOOTH",
"890 1815 OFFCURVE",
"853 1852 OFFCURVE",
"808 1852 CURVE SMOOTH",
"763 1852 OFFCURVE",
"726 1815 OFFCURVE",
"726 1770 CURVE SMOOTH",
"726 1746 LINE SMOOTH",
"726 1701 OFFCURVE",
"763 1664 OFFCURVE",
"808 1664 CURVE SMOOTH"
);
}
);
width = 1176;
}
);
unicode = 00CB;
userData = {
org.pippin.gimp.org.kernagic = {
lstem = 0;
rstem = 0;
};
};
},
{
glyphname = Edotaccent;
lastChange = "2018-07-25 18:37:52 +0000";
layers = (
{
layerId = "2E262F32-97C5-4CC7-8265-2EAE7B11245A";
paths = (
{
closed = 1;
nodes = (
"1070 0 LINE",
"1070 138 LINE",
"347 138 LINE",
"347 732 LINE",
"982 732 LINE",
"982 870 LINE",
"347 870 LINE",
"347 1422 LINE",
"1020 1422 LINE",
"1020 1560 LINE",
"173 1560 LINE",
"173 0 LINE"
);
},
{
closed = 1;
nodes = (
"670 1752 LINE",
"670 1915 LINE",
"510 1915 LINE",
"510 1752 LINE"
);
}
);
width = 1176;
}
);
unicode = 0116;
userData = {
org.pippin.gimp.org.kernagic = {
lstem = 0;
rstem = 0;
};
};
},
{
glyphname = Egrave;
lastChange = "2018-07-25 18:37:52 +0000";
layers = (
{
layerId = "2E262F32-97C5-4CC7-8265-2EAE7B11245A";
paths = (
{
closed = 1;
nodes = (
"1070 0 LINE",
"1070 138 LINE",
"347 138 LINE",
"347 732 LINE",
"982 732 LINE",
"982 870 LINE",
"347 870 LINE",
"347 1422 LINE",
"1020 1422 LINE",
"1020 1560 LINE",
"173 1560 LINE",
"173 0 LINE"
);
},
{
closed = 1;
nodes = (
"707 1648 LINE",
"460 1968 LINE",
"246 1968 LINE",
"578 1648 LINE"
);
}
);
width = 1176;
}
);
unicode = 00C8;
userData = {
org.pippin.gimp.org.kernagic = {
lstem = 0;
rstem = 0;
};
};
},
{
glyphname = Emacron;
lastChange = "2018-07-25 18:37:52 +0000";
layers = (
{
layerId = "2E262F32-97C5-4CC7-8265-2EAE7B11245A";
paths = (
{
closed = 1;
nodes = (
"1070 0 LINE",
"1070 138 LINE",
"347 138 LINE",
"347 732 LINE",
"982 732 LINE",
"982 870 LINE",
"347 870 LINE",
"347 1422 LINE",
"1020 1422 LINE",
"1020 1560 LINE",
"173 1560 LINE",
"173 0 LINE"
);
},
{
closed = 1;
nodes = (
"919 1706 LINE",
"919 1840 LINE",
"347 1840 LINE",
"347 1706 LINE"
);
}
);
width = 1176;
}
);
unicode = 0112;
userData = {
org.pippin.gimp.org.kernagic = {
lstem = 0;
rstem = 0;
};
};
},
{
glyphname = Eogonek;
lastChange = "2018-07-25 18:37:52 +0000";
layers = (
{
layerId = "2E262F32-97C5-4CC7-8265-2EAE7B11245A";
paths = (
{
closed = 1;
nodes = (
"857 -390 OFFCURVE",
"924 -380 OFFCURVE",
"970 -361 CURVE",
"970 -250 LINE",
"924 -268 OFFCURVE",
"880 -281 OFFCURVE",
"816 -281 CURVE SMOOTH",
"765 -281 OFFCURVE",
"716 -250 OFFCURVE",
"716 -199 CURVE SMOOTH",
"716 -117 OFFCURVE",
"833 -52 OFFCURVE",
"919 0 CURVE",
"1070 0 LINE",
"1070 138 LINE",
"347 138 LINE",
"347 732 LINE",
"982 732 LINE",
"982 870 LINE",
"347 870 LINE",
"347 1422 LINE",
"1020 1422 LINE",
"1020 1560 LINE",
"173 1560 LINE",
"173 0 LINE",
"765 0 LINE",
"672 -45.709 OFFCURVE",
"575 -107.588 OFFCURVE",
"575 -225 CURVE SMOOTH",
"575 -335 OFFCURVE",
"668 -390 OFFCURVE",
"793 -390 CURVE SMOOTH"
);
}
);
width = 1176;
}
);
unicode = 0118;
userData = {
org.pippin.gimp.org.kernagic = {
lstem = 0;
rstem = 0;
};
};
},
{
glyphname = F;
lastChange = "2018-07-25 18:37:52 +0000";
layers = (
{
layerId = "2E262F32-97C5-4CC7-8265-2EAE7B11245A";
paths = (
{
closed = 1;
nodes = (
"353 0 LINE",
"353 777 LINE",
"971 777 LINE",
"971 925 LINE",
"353 925 LINE",
"353 1422 LINE",
"1005 1422 LINE",
"1005 1560 LINE",
"179 1560 LINE",
"179 0 LINE"
);
}
);
width = 1146;
}
);
unicode = 0046;
userData = {
org.pippin.gimp.org.kernagic = {
lstem = 0;
rstem = 0;
};
};
},
{
glyphname = G;
lastChange = "2018-07-25 18:37:52 +0000";
layers = (
{
layerId = "2E262F32-97C5-4CC7-8265-2EAE7B11245A";
paths = (
{
closed = 1;
nodes = (
"1032 -24 OFFCURVE",
"1186 15 OFFCURVE",
"1331 88 CURVE",
"1331 812 LINE",
"756 812 LINE",
"756 653 LINE",
"1168 653 LINE",
"1168 178 LINE",
"1082 139 OFFCURVE",
"970 126 OFFCURVE",
"854 126 CURVE SMOOTH",
"498 126 OFFCURVE",
"313 370 OFFCURVE",
"313 766 CURVE SMOOTH",
"313 1187 OFFCURVE",
"548 1436 OFFCURVE",
"862 1436 CURVE SMOOTH",
"977 1436 OFFCURVE",
"1103 1395 OFFCURVE",
"1232 1327 CURVE",
"1300 1466 LINE",
"1151 1547 OFFCURVE",
"996 1587 OFFCURVE",
"851 1587 CURVE SMOOTH",
"459 1587 OFFCURVE",
"130 1298 OFFCURVE",
"130 752 CURVE SMOOTH",
"130 258 OFFCURVE",
"395 -24 OFFCURVE",
"841 -24 CURVE SMOOTH"
);
}
);
width = 1478;
}
);
unicode = 0047;
userData = {
org.pippin.gimp.org.kernagic = {
lstem = 0;
rstem = 0;
};
};
},
{
glyphname = Gbreve;
lastChange = "2018-07-25 18:37:52 +0000";
layers = (
{
layerId = "2E262F32-97C5-4CC7-8265-2EAE7B11245A";
paths = (
{
closed = 1;
nodes = (
"1032 -24 OFFCURVE",
"1186 15 OFFCURVE",
"1331 88 CURVE",
"1331 812 LINE",
"756 812 LINE",
"756 653 LINE",
"1168 653 LINE",
"1168 178 LINE",
"1082 139 OFFCURVE",
"970 126 OFFCURVE",
"854 126 CURVE SMOOTH",
"498 126 OFFCURVE",
"313 370 OFFCURVE",
"313 766 CURVE SMOOTH",
"313 1187 OFFCURVE",
"548 1436 OFFCURVE",
"862 1436 CURVE SMOOTH",
"977 1436 OFFCURVE",
"1103 1395 OFFCURVE",
"1232 1327 CURVE",
"1300 1466 LINE",
"1151 1547 OFFCURVE",
"996 1587 OFFCURVE",
"851 1587 CURVE SMOOTH",
"459 1587 OFFCURVE",
"130 1298 OFFCURVE",
"130 752 CURVE SMOOTH",
"130 258 OFFCURVE",
"395 -24 OFFCURVE",
"841 -24 CURVE SMOOTH"
);
},
{
closed = 1;
nodes = (
"905 1711 OFFCURVE",
"1020 1789 OFFCURVE",
"1033 1946 CURVE",
"947 1946 LINE",
"927 1861 OFFCURVE",
"855 1817 OFFCURVE",
"785 1817 CURVE SMOOTH",
"717 1817 OFFCURVE",
"651 1859 OFFCURVE",
"636 1946 CURVE",
"549 1946 LINE",
"562 1789 OFFCURVE",
"676 1711 OFFCURVE",
"790 1711 CURVE SMOOTH"
);
}
);
width = 1478;
}
);
unicode = 011E;
userData = {
org.pippin.gimp.org.kernagic = {
lstem = 0;
rstem = 0;
};
};
},
{
glyphname = Gcircumflex;
lastChange = "2018-07-25 18:37:52 +0000";
layers = (
{
layerId = "2E262F32-97C5-4CC7-8265-2EAE7B11245A";
paths = (
{
closed = 1;
nodes = (
"1032 -24 OFFCURVE",
"1186 15 OFFCURVE",
"1331 88 CURVE",
"1331 812 LINE",
"756 812 LINE",
"756 653 LINE",
"1168 653 LINE",
"1168 178 LINE",
"1082 139 OFFCURVE",
"970 126 OFFCURVE",
"854 126 CURVE SMOOTH",
"498 126 OFFCURVE",
"313 370 OFFCURVE",
"313 766 CURVE SMOOTH",
"313 1187 OFFCURVE",
"548 1436 OFFCURVE",
"862 1436 CURVE SMOOTH",
"977 1436 OFFCURVE",
"1103 1395 OFFCURVE",
"1232 1327 CURVE",
"1300 1466 LINE",
"1151 1547 OFFCURVE",
"996 1587 OFFCURVE",
"851 1587 CURVE SMOOTH",
"459 1587 OFFCURVE",
"130 1298 OFFCURVE",
"130 752 CURVE SMOOTH",
"130 258 OFFCURVE",
"395 -24 OFFCURVE",
"841 -24 CURVE SMOOTH"
);
},
{
closed = 1;
nodes = (
"610 1643 LINE",
"788 1859 LINE",
"966 1643 LINE",
"1098 1643 LINE",
"869 1967 LINE",
"712 1967 LINE",
"484 1643 LINE"
);
}
);
width = 1478;
}
);
unicode = 011C;
userData = {
org.pippin.gimp.org.kernagic = {
lstem = 0;
rstem = 0;
};
};
},
{
glyphname = Gcommaaccent;
lastChange = "2018-07-25 18:37:52 +0000";
layers = (
{
layerId = "2E262F32-97C5-4CC7-8265-2EAE7B11245A";
paths = (
{
closed = 1;
nodes = (
"1032 -24 OFFCURVE",
"1186 15 OFFCURVE",
"1331 88 CURVE",
"1331 812 LINE",
"756 812 LINE",
"756 653 LINE",
"1168 653 LINE",
"1168 178 LINE",
"1082 139 OFFCURVE",
"970 126 OFFCURVE",
"854 126 CURVE SMOOTH",
"498 126 OFFCURVE",
"313 370 OFFCURVE",
"313 766 CURVE SMOOTH",
"313 1187 OFFCURVE",
"548 1436 OFFCURVE",
"862 1436 CURVE SMOOTH",
"977 1436 OFFCURVE",
"1103 1395 OFFCURVE",
"1232 1327 CURVE",
"1300 1466 LINE",
"1151 1547 OFFCURVE",
"996 1587 OFFCURVE",
"851 1587 CURVE SMOOTH",
"459 1587 OFFCURVE",
"130 1298 OFFCURVE",
"130 752 CURVE SMOOTH",
"130 258 OFFCURVE",
"395 -24 OFFCURVE",
"841 -24 CURVE SMOOTH"
);
},
{
closed = 1;
nodes = (
"704 -609 LINE",
"867 -146 LINE",
"680 -146 LINE",
"573 -609 LINE"
);
}
);
width = 1478;
}
);
unicode = 0122;
userData = {
org.pippin.gimp.org.kernagic = {
lstem = 0;
rstem = 0;
};
};
},
{
glyphname = Gdotaccent;
lastChange = "2018-07-25 18:37:52 +0000";
layers = (
{
layerId = "2E262F32-97C5-4CC7-8265-2EAE7B11245A";
paths = (
{
closed = 1;
nodes = (
"1032 -24 OFFCURVE",
"1186 15 OFFCURVE",
"1331 88 CURVE",
"1331 812 LINE",
"756 812 LINE",
"756 653 LINE",
"1168 653 LINE",
"1168 178 LINE",
"1082 139 OFFCURVE",
"970 126 OFFCURVE",
"854 126 CURVE SMOOTH",
"498 126 OFFCURVE",
"313 370 OFFCURVE",
"313 766 CURVE SMOOTH",
"313 1187 OFFCURVE",
"548 1436 OFFCURVE",
"862 1436 CURVE SMOOTH",
"977 1436 OFFCURVE",
"1103 1395 OFFCURVE",
"1232 1327 CURVE",
"1300 1466 LINE",
"1151 1547 OFFCURVE",
"996 1587 OFFCURVE",
"851 1587 CURVE SMOOTH",
"459 1587 OFFCURVE",
"130 1298 OFFCURVE",
"130 752 CURVE SMOOTH",
"130 258 OFFCURVE",
"395 -24 OFFCURVE",
"841 -24 CURVE SMOOTH"
);
},
{
closed = 1;
nodes = (
"833 1752 LINE",
"833 1915 LINE",
"673 1915 LINE",
"673 1752 LINE"
);
}
);
width = 1478;
}
);
unicode = 0120;
userData = {
org.pippin.gimp.org.kernagic = {
lstem = 0;
rstem = 0;
};
};
},
{
glyphname = H;
lastChange = "2018-07-25 18:37:52 +0000";
layers = (
{
layerId = "2E262F32-97C5-4CC7-8265-2EAE7B11245A";
paths = (
{
closed = 1;
nodes = (
"347 0 LINE",
"347 741 LINE",
"1113 741 LINE",
"1113 0 LINE",
"1287 0 LINE",
"1287 1560 LINE",
"1113 1560 LINE",
"1113 889 LINE",
"347 889 LINE",
"347 1560 LINE",
"173 1560 LINE",
"173 0 LINE"
);
}
);
width = 1478;
}
);
unicode = 0048;
userData = {
org.pippin.gimp.org.kernagic = {
lstem = 0;
rstem = 0;
};
};
},
{
glyphname = Hcircumflex;
lastChange = "2018-07-25 18:37:52 +0000";
layers = (
{
layerId = "2E262F32-97C5-4CC7-8265-2EAE7B11245A";
paths = (
{
closed = 1;
nodes = (
"347 0 LINE",
"347 741 LINE",
"1113 741 LINE",
"1113 0 LINE",
"1287 0 LINE",
"1287 1560 LINE",
"1113 1560 LINE",
"1113 889 LINE",
"347 889 LINE",
"347 1560 LINE",
"173 1560 LINE",
"173 0 LINE"
);
},
{
closed = 1;
nodes = (
"584 1643 LINE",
"762 1859 LINE",
"940 1643 LINE",
"1072 1643 LINE",
"843 1967 LINE",
"686 1967 LINE",
"458 1643 LINE"
);
}
);
width = 1478;
}
);
unicode = 0124;
userData = {
org.pippin.gimp.org.kernagic = {
lstem = 0;
rstem = 0;
};
};
},
{
glyphname = I;
lastChange = "2018-07-25 18:37:52 +0000";
layers = (
{
layerId = "2E262F32-97C5-4CC7-8265-2EAE7B11245A";
paths = (
{
closed = 1;
nodes = (
"775 0 LINE",
"775 124 LINE",
"567 124 LINE",
"567 1436 LINE",
"775 1436 LINE",
"775 1560 LINE",
"185 1560 LINE",
"185 1436 LINE",
"393 1436 LINE",
"393 124 LINE",
"185 124 LINE",
"185 0 LINE"
);
}
);
width = 965;
}
);
unicode = 0049;
userData = {
org.pippin.gimp.org.kernagic = {
lstem = 0;
rstem = 0;
};
};
},
{
glyphname = IJ;
lastChange = "2018-07-25 18:37:52 +0000";
layers = (
{
layerId = "2E262F32-97C5-4CC7-8265-2EAE7B11245A";
paths = (
{
closed = 1;
nodes = (
"1118 -24 OFFCURVE",
"1262 123 OFFCURVE",
"1262 434 CURVE SMOOTH",
"1262 1436 LINE",
"1533 1436 LINE",
"1533 1560 LINE",
"690 1560 LINE",
"690 1436 LINE",
"1095 1436 LINE",
"1095 467 LINE SMOOTH",
"1095 209 OFFCURVE",
"1018 126 OFFCURVE",
"857 126 CURVE SMOOTH",
"772 126 OFFCURVE",
"678 166 OFFCURVE",
"610 248 CURVE",
"523 130 LINE",
"524 127.979 OFFCURVE",
"526 125.979 OFFCURVE",
"527 124 CURVE",
"364 124 LINE",
"364 1436 LINE",
"572 1436 LINE",
"572 1560 LINE",
"-13 1560 LINE",
"-13 1436 LINE",
"190 1436 LINE",
"190 124 LINE",
"-13 124 LINE",
"-13 0 LINE",
"572 0 LINE",
"572 79.598 LINE",
"655 8.662 OFFCURVE",
"765 -24 OFFCURVE",
"867 -24 CURVE SMOOTH"
);
}
);
width = 1448;
}
);
unicode = 0132;
userData = {
org.pippin.gimp.org.kernagic = {
lstem = 0;
rstem = 0;
};
};
},
{
glyphname = Iacute;
lastChange = "2018-07-25 18:37:52 +0000";
layers = (
{
layerId = "2E262F32-97C5-4CC7-8265-2EAE7B11245A";
paths = (
{
closed = 1;
nodes = (
"775 0 LINE",
"775 124 LINE",
"567 124 LINE",
"567 1436 LINE",
"775 1436 LINE",
"775 1560 LINE",
"185 1560 LINE",
"185 1436 LINE",
"393 1436 LINE",
"393 124 LINE",
"185 124 LINE",
"185 0 LINE"
);
},
{
closed = 1;
nodes = (
"478 1624 LINE",
"786 1944 LINE",
"574 1944 LINE",
"348 1624 LINE"
);
}
);
width = 965;
}
);
unicode = 00CD;
userData = {
org.pippin.gimp.org.kernagic = {
lstem = 0;
rstem = 0;
};
};
},
{
glyphname = Ibreve;
lastChange = "2018-07-25 18:37:52 +0000";
layers = (
{
layerId = "2E262F32-97C5-4CC7-8265-2EAE7B11245A";
paths = (
{
closed = 1;
nodes = (
"780 0 LINE",
"780 124 LINE",
"572 124 LINE",
"572 1436 LINE",
"780 1436 LINE",
"780 1560 LINE",
"190 1560 LINE",
"190 1436 LINE",
"398 1436 LINE",
"398 124 LINE",
"190 124 LINE",
"190 0 LINE"
);
},
{
closed = 1;
nodes = (
"535 1711 OFFCURVE",
"650 1789 OFFCURVE",
"663 1946 CURVE",
"577 1946 LINE",
"557 1861 OFFCURVE",
"485 1817 OFFCURVE",
"415 1817 CURVE SMOOTH",
"347 1817 OFFCURVE",
"281 1859 OFFCURVE",
"266 1946 CURVE",
"179 1946 LINE",
"192 1789 OFFCURVE",
"306 1711 OFFCURVE",
"420 1711 CURVE SMOOTH"
);
}
);
width = 965;
}
);
unicode = 012C;
userData = {
org.pippin.gimp.org.kernagic = {
lstem = 0;
rstem = 0;
};
};
},
{
glyphname = Icircumflex;
lastChange = "2018-07-25 18:37:52 +0000";
layers = (
{
layerId = "2E262F32-97C5-4CC7-8265-2EAE7B11245A";
paths = (
{
closed = 1;
nodes = (
"796 0 LINE",
"796 124 LINE",
"588 124 LINE",
"588 1436 LINE",
"796 1436 LINE",
"796 1560 LINE",
"206 1560 LINE",
"206 1436 LINE",
"414 1436 LINE",
"414 124 LINE",
"206 124 LINE",
"206 0 LINE"
);
},
{
closed = 1;
nodes = (
"256 1643 LINE",
"434 1859 LINE",
"612 1643 LINE",
"744 1643 LINE",
"515 1967 LINE",
"358 1967 LINE",
"130 1643 LINE"
);
}
);
width = 965;
}
);
unicode = 00CE;
userData = {
org.pippin.gimp.org.kernagic = {
lstem = 0;
rstem = 0;
};
};
},
{
glyphname = Idieresis;
lastChange = "2018-07-25 18:37:52 +0000";
layers = (
{
layerId = "2E262F32-97C5-4CC7-8265-2EAE7B11245A";
paths = (
{
closed = 1;
nodes = (
"772 0 LINE",
"772 124 LINE",
"564 124 LINE",
"564 1436 LINE",
"772 1436 LINE",
"772 1560 LINE",
"182 1560 LINE",
"182 1436 LINE",
"390 1436 LINE",
"390 124 LINE",
"182 124 LINE",
"182 0 LINE"
);
},
{
closed = 1;
nodes = (
"306 1664 OFFCURVE",
"343 1701 OFFCURVE",
"343 1746 CURVE SMOOTH",
"343 1770 LINE SMOOTH",
"343 1815 OFFCURVE",
"306 1852 OFFCURVE",
"261 1852 CURVE SMOOTH",
"216 1852 OFFCURVE",
"179 1815 OFFCURVE",
"179 1770 CURVE SMOOTH",
"179 1746 LINE SMOOTH",
"179 1701 OFFCURVE",
"216 1664 OFFCURVE",
"261 1664 CURVE SMOOTH"
);
},
{
closed = 1;
nodes = (
"638 1664 OFFCURVE",
"675 1701 OFFCURVE",
"675 1746 CURVE SMOOTH",
"675 1770 LINE SMOOTH",
"675 1815 OFFCURVE",
"638 1852 OFFCURVE",
"593 1852 CURVE SMOOTH",
"548 1852 OFFCURVE",
"511 1815 OFFCURVE",
"511 1770 CURVE SMOOTH",
"511 1746 LINE SMOOTH",
"511 1701 OFFCURVE",
"548 1664 OFFCURVE",
"593 1664 CURVE SMOOTH"
);
}
);
width = 965;
}
);
unicode = 00CF;
userData = {
org.pippin.gimp.org.kernagic = {
lstem = 0;
rstem = 0;
};
};
},
{
glyphname = Idotaccent;
lastChange = "2018-07-25 18:37:52 +0000";
layers = (
{
layerId = "2E262F32-97C5-4CC7-8265-2EAE7B11245A";
paths = (
{
closed = 1;
nodes = (
"775 0 LINE",
"775 124 LINE",
"567 124 LINE",
"567 1436 LINE",
"775 1436 LINE",
"775 1560 LINE",
"185 1560 LINE",
"185 1436 LINE",
"393 1436 LINE",
"393 124 LINE",
"185 124 LINE",
"185 0 LINE"
);
},
{
closed = 1;
nodes = (
"458 1752 LINE",
"458 1915 LINE",
"298 1915 LINE",
"298 1752 LINE"
);
}
);
width = 965;
}
);
unicode = 0130;
userData = {
org.pippin.gimp.org.kernagic = {
lstem = 0;
rstem = 0;
};
};
},
{
glyphname = Igrave;
lastChange = "2018-07-25 18:37:52 +0000";
layers = (
{
layerId = "2E262F32-97C5-4CC7-8265-2EAE7B11245A";
paths = (
{
closed = 1;
nodes = (
"829 0 LINE",
"829 124 LINE",
"621 124 LINE",
"621 1436 LINE",
"829 1436 LINE",
"829 1560 LINE",
"239 1560 LINE",
"239 1436 LINE",
"447 1436 LINE",
"447 124 LINE",
"239 124 LINE",
"239 0 LINE"
);
},
{
closed = 1;
nodes = (
"549 1648 LINE",
"302 1968 LINE",
"88 1968 LINE",
"420 1648 LINE"
);
}
);
width = 905;
}
);
unicode = 00CC;
userData = {
org.pippin.gimp.org.kernagic = {
lstem = 0;
rstem = 0;
};
};
},
{
glyphname = Imacron;
lastChange = "2018-07-25 18:37:52 +0000";
layers = (
{
layerId = "2E262F32-97C5-4CC7-8265-2EAE7B11245A";
paths = (
{
closed = 1;
nodes = (
"789 0 LINE",
"789 124 LINE",
"581 124 LINE",
"581 1436 LINE",
"789 1436 LINE",
"789 1560 LINE",
"199 1560 LINE",
"199 1436 LINE",
"407 1436 LINE",
"407 124 LINE",
"199 124 LINE",
"199 0 LINE"
);
},
{
closed = 1;
nodes = (
"721 1706 LINE",
"721 1840 LINE",
"149 1840 LINE",
"149 1706 LINE"
);
}
);
width = 965;
}
);
unicode = 012A;
userData = {
org.pippin.gimp.org.kernagic = {
lstem = 0;
rstem = 0;
};
};
},
{
glyphname = Iogonek;
lastChange = "2018-07-25 18:37:52 +0000";
layers = (
{
layerId = "2E262F32-97C5-4CC7-8265-2EAE7B11245A";
paths = (
{
closed = 1;
nodes = (
"431 -389 OFFCURVE",
"498 -379 OFFCURVE",
"544 -360 CURVE",
"544 -249 LINE",
"498 -267 OFFCURVE",
"454 -280 OFFCURVE",
"390 -280 CURVE SMOOTH",
"339 -280 OFFCURVE",
"290 -249 OFFCURVE",
"290 -198 CURVE SMOOTH",
"290 -116.525 OFFCURVE",
"405 -51.833 OFFCURVE",
"491 0 CURVE",
"789 0 LINE",
"789 124 LINE",
"581 124 LINE",
"581 1436 LINE",
"789 1436 LINE",
"789 1560 LINE",
"199 1560 LINE",
"199 1436 LINE",
"407 1436 LINE",
"407 124 LINE",
"199 124 LINE",
"199 0 LINE",
"337 0 LINE",
"245 -45.612 OFFCURVE",
"149 -107.442 OFFCURVE",
"149 -224 CURVE SMOOTH",
"149 -334 OFFCURVE",
"242 -389 OFFCURVE",
"367 -389 CURVE SMOOTH"
);
}
);
width = 965;
}
);
unicode = 012E;
userData = {
org.pippin.gimp.org.kernagic = {
lstem = 0;
rstem = 0;
};
};
},
{
glyphname = Itilde;
lastChange = "2018-07-25 18:37:52 +0000";
layers = (
{
layerId = "2E262F32-97C5-4CC7-8265-2EAE7B11245A";
paths = (
{
closed = 1;
nodes = (
"790 0 LINE",
"790 124 LINE",
"582 124 LINE",
"582 1436 LINE",
"790 1436 LINE",
"790 1560 LINE",
"200 1560 LINE",
"200 1436 LINE",
"408 1436 LINE",
"408 124 LINE",
"200 124 LINE",
"200 0 LINE"
);
},
{
closed = 1;
nodes = (
"254 1647 LINE",
"261 1700 OFFCURVE",
"270 1739 OFFCURVE",
"315 1739 CURVE SMOOTH",
"391 1739 OFFCURVE",
"437 1648 OFFCURVE",
"538 1648 CURVE SMOOTH",
"662 1648 OFFCURVE",
"720 1756 OFFCURVE",
"733 1869 CURVE",
"625 1869 LINE",
"618 1820 OFFCURVE",
"611 1773 OFFCURVE",
"565 1773 CURVE SMOOTH",
"513 1773 OFFCURVE",
"455 1863 OFFCURVE",
"348 1863 CURVE SMOOTH",
"224 1863 OFFCURVE",
"159 1763 OFFCURVE",
"149 1647 CURVE"
);
}
);
width = 965;
}
);
unicode = 0128;
userData = {
org.pippin.gimp.org.kernagic = {
lstem = 0;
rstem = 0;
};
};
},
{
glyphname = J;
lastChange = "2018-07-25 18:37:52 +0000";
layers = (
{
layerId = "2E262F32-97C5-4CC7-8265-2EAE7B11245A";
paths = (
{
closed = 1;
nodes = (
"663 -24 OFFCURVE",
"807 123 OFFCURVE",
"807 434 CURVE SMOOTH",
"807 1436 LINE",
"1078 1436 LINE",
"1078 1560 LINE",
"235 1560 LINE",
"235 1436 LINE",
"640 1436 LINE",
"640 467 LINE SMOOTH",
"640 209 OFFCURVE",
"563 126 OFFCURVE",
"402 126 CURVE SMOOTH",
"317 126 OFFCURVE",
"223 166 OFFCURVE",
"155 248 CURVE",
"68 130 LINE",
"153 24 OFFCURVE",
"289 -24 OFFCURVE",
"412 -24 CURVE SMOOTH"
);
}
);
width = 1056;
}
);
unicode = 004A;
userData = {
org.pippin.gimp.org.kernagic = {
lstem = 207;
rstem = 0;
};
};
},
{
glyphname = Jcircumflex;
lastChange = "2018-07-25 18:37:52 +0000";
layers = (
{
layerId = "2E262F32-97C5-4CC7-8265-2EAE7B11245A";
paths = (
{
closed = 1;
nodes = (
"713 -24 OFFCURVE",
"857 123 OFFCURVE",
"857 434 CURVE SMOOTH",
"857 1436 LINE",
"1128 1436 LINE",
"1128 1560 LINE",
"285 1560 LINE",
"285 1436 LINE",
"690 1436 LINE",
"690 467 LINE SMOOTH",
"690 209 OFFCURVE",
"613 126 OFFCURVE",
"452 126 CURVE SMOOTH",
"367 126 OFFCURVE",
"273 166 OFFCURVE",
"205 248 CURVE",
"118 130 LINE",
"203 24 OFFCURVE",
"339 -24 OFFCURVE",
"462 -24 CURVE SMOOTH"
);
},
{
closed = 1;
nodes = (
"483 1643 LINE",
"661 1859 LINE",
"839 1643 LINE",
"971 1643 LINE",
"742 1967 LINE",
"585 1967 LINE",
"357 1643 LINE"
);
}
);
width = 1116;
}
);
unicode = 0134;
userData = {
org.pippin.gimp.org.kernagic = {
lstem = 0;
rstem = 0;
};
};
},
{
glyphname = K;
lastChange = "2018-07-25 18:37:52 +0000";
layers = (
{
layerId = "2E262F32-97C5-4CC7-8265-2EAE7B11245A";
paths = (
{
closed = 1;
nodes = (
"341 0 LINE",
"341 779 LINE",
"990 0 LINE",
"1208 0 LINE",
"517 818 LINE",
"1168 1560 LINE",
"957 1560 LINE",
"341 850 LINE",
"341 1560 LINE",
"167 1560 LINE",
"167 0 LINE"
);
}
);
width = 1207;
}
);
unicode = 004B;
userData = {
org.pippin.gimp.org.kernagic = {
lstem = 0;
rstem = 773;
};
};
},
{
glyphname = Kcommaaccent;
lastChange = "2018-07-25 18:37:52 +0000";
layers = (
{
layerId = "2E262F32-97C5-4CC7-8265-2EAE7B11245A";
paths = (
{
closed = 1;
nodes = (
"341 0 LINE",
"341 779 LINE",
"990 0 LINE",
"1208 0 LINE",
"517 818 LINE",
"1168 1560 LINE",
"957 1560 LINE",
"341 850 LINE",
"341 1560 LINE",
"167 1560 LINE",
"167 0 LINE"
);
},
{
closed = 1;
nodes = (
"673 -585 LINE",
"836 -122 LINE",
"649 -122 LINE",
"542 -585 LINE"
);
}
);
width = 1267;
}
);
unicode = 0136;
userData = {
org.pippin.gimp.org.kernagic = {
lstem = 0;
rstem = 0;
};
};
},
{
glyphname = L;
lastChange = "2018-07-25 18:37:52 +0000";
layers = (
{
layerId = "2E262F32-97C5-4CC7-8265-2EAE7B11245A";
paths = (
{
closed = 1;
nodes = (
"1032 0 LINE",
"1032 138 LINE",
"353 138 LINE",
"353 1560 LINE",
"179 1560 LINE",
"179 0 LINE"
);
}
);
width = 1086;
}
);
unicode = 004C;
userData = {
org.pippin.gimp.org.kernagic = {
lstem = 0;
rstem = 626;
};
};
},
{
glyphname = Lacute;
lastChange = "2018-07-25 18:37:52 +0000";
layers = (
{
layerId = "2E262F32-97C5-4CC7-8265-2EAE7B11245A";
paths = (
{
closed = 1;
nodes = (
"1032 0 LINE",
"1032 138 LINE",
"353 138 LINE",
"353 1560 LINE",
"179 1560 LINE",
"179 0 LINE"
);
},
{
closed = 1;
nodes = (
"620 1624 LINE",
"928 1944 LINE",
"716 1944 LINE",
"490 1624 LINE"
);
}
);
width = 1176;
}
);
unicode = 0139;
userData = {
org.pippin.gimp.org.kernagic = {
lstem = 0;
rstem = 0;
};
};
},
{
glyphname = Lcaron;
lastChange = "2018-07-25 18:37:52 +0000";
layers = (
{
layerId = "2E262F32-97C5-4CC7-8265-2EAE7B11245A";
paths = (
{
closed = 1;
nodes = (
"1032 0 LINE",
"1032 138 LINE",
"353 138 LINE",
"353 1560 LINE",
"179 1560 LINE",
"179 0 LINE"
);
},
{
closed = 1;
nodes = (
"640 -656 LINE",
"803 -139 LINE",
"616 -139 LINE",
"509 -656 LINE"
);
}
);
width = 1176;
}
);
unicode = 013D;
userData = {
org.pippin.gimp.org.kernagic = {
lstem = 0;
rstem = 0;
};
};
},
{
glyphname = Lcommaaccent;
lastChange = "2018-07-25 18:37:52 +0000";
layers = (
{
layerId = "2E262F32-97C5-4CC7-8265-2EAE7B11245A";
paths = (
{
closed = 1;
nodes = (
"1032 0 LINE",
"1032 138 LINE",
"353 138 LINE",
"353 1560 LINE",
"179 1560 LINE",
"179 0 LINE"
);
},
{
closed = 1;
nodes = (
"591 -585 LINE",
"754 -122 LINE",
"567 -122 LINE",
"460 -585 LINE"
);
}
);
width = 1176;
}
);
unicode = 013B;
userData = {
org.pippin.gimp.org.kernagic = {
lstem = 0;
rstem = 0;
};
};
},
{
glyphname = Ldot;
lastChange = "2018-07-25 18:37:52 +0000";
layers = (
{
layerId = "2E262F32-97C5-4CC7-8265-2EAE7B11245A";
paths = (
{
closed = 1;
nodes = (
"1032 0 LINE",
"1032 138 LINE",
"353 138 LINE",
"353 1560 LINE",
"179 1560 LINE",
"179 0 LINE"
);
},
{
closed = 1;
nodes = (
"701 594 OFFCURVE",
"749 667 OFFCURVE",
"749 740 CURVE SMOOTH",
"749 813 OFFCURVE",
"701 886 OFFCURVE",
"607 886 CURVE SMOOTH",
"513 886 OFFCURVE",
"466 814 OFFCURVE",
"466 741 CURVE SMOOTH",
"466 668 OFFCURVE",
"513 594 OFFCURVE",
"607 594 CURVE SMOOTH"
);
}
);
width = 1176;
}
);
unicode = 013F;
userData = {
org.pippin.gimp.org.kernagic = {
lstem = 0;
rstem = 0;
};
};
},
{
glyphname = Lslash;
lastChange = "2018-07-25 18:37:52 +0000";
layers = (
{
layerId = "2E262F32-97C5-4CC7-8265-2EAE7B11245A";
paths = (
{
closed = 1;
nodes = (
"1072 0 LINE",
"1072 138 LINE",
"393 138 LINE",
"393 710.572 LINE",
"674 890 LINE",
"674 1027 LINE",
"393 847.572 LINE",
"393 1560 LINE",
"219 1560 LINE",
"219 736.467 LINE",
"46 626 LINE",
"46 489 LINE",
"219 599.467 LINE",
"219 0 LINE"
);
}
);
width = 1176;
}
);
unicode = 0141;
userData = {
org.pippin.gimp.org.kernagic = {
lstem = 0;
rstem = 0;
};
};
},
{
glyphname = M;
lastChange = "2018-07-25 18:37:52 +0000";
layers = (
{
layerId = "2E262F32-97C5-4CC7-8265-2EAE7B11245A";
paths = (
{
closed = 1;
nodes = (
"346 0 LINE",
"346 1350 LINE",
"416 1190 LINE",
"890 220 LINE",
"1011 220 LINE",
"1194 591 OFFCURVE",
"1375 964 OFFCURVE",
"1560 1333 CURVE",
"1560 0 LINE",
"1725 0 LINE",
"1725 1560 LINE",
"1513 1560 LINE",
"1327 1179 OFFCURVE",
"1133 806 OFFCURVE",
"953 420 CURVE",
"772 802 OFFCURVE",
"588 1180 OFFCURVE",
"405 1560 CURVE",
"179 1560 LINE",
"179 0 LINE"
);
}
);
width = 1901;
}
);
unicode = 004D;
userData = {
org.pippin.gimp.org.kernagic = {
lstem = 0;
rstem = 0;
};
};
},
{
glyphname = N;
lastChange = "2018-07-25 18:37:52 +0000";
layers = (
{
layerId = "2E262F32-97C5-4CC7-8265-2EAE7B11245A";
paths = (
{
closed = 1;
nodes = (
"357 0 LINE",
"357 1341 LINE",
"426 1217 LINE",
"1165 0 LINE",
"1372 0 LINE",
"1372 1560 LINE",
"1201 1560 LINE",
"1201 215 LINE",
"933 665 OFFCURVE",
"660 1111 OFFCURVE",
"390 1560 CURVE",
"185 1560 LINE",
"185 0 LINE"
);
}
);
width = 1539;
}
);
unicode = 004E;
userData = {
org.pippin.gimp.org.kernagic = {
lstem = 0;
rstem = 0;
};
};
},
{
glyphname = Nacute;
lastChange = "2018-07-25 18:37:52 +0000";
layers = (
{
layerId = "2E262F32-97C5-4CC7-8265-2EAE7B11245A";
paths = (
{
closed = 1;
nodes = (
"357 0 LINE",
"357 1341 LINE",
"426 1217 LINE",
"1165 0 LINE",
"1372 0 LINE",
"1372 1560 LINE",
"1201 1560 LINE",
"1201 215 LINE",
"933 665 OFFCURVE",
"660 1111 OFFCURVE",
"390 1560 CURVE",
"185 1560 LINE",
"185 0 LINE"
);
},
{
closed = 1;
nodes = (
"855 1624 LINE",
"1163 1944 LINE",
"951 1944 LINE",
"725 1624 LINE"
);
}
);
width = 1539;
}
);
unicode = 0143;
userData = {
org.pippin.gimp.org.kernagic = {
lstem = 0;
rstem = 0;
};
};
},
{
glyphname = Ncaron;
lastChange = "2018-07-25 18:37:52 +0000";
layers = (
{
layerId = "2E262F32-97C5-4CC7-8265-2EAE7B11245A";
paths = (
{
closed = 1;
nodes = (
"357 0 LINE",
"357 1341 LINE",
"426 1217 LINE",
"1165 0 LINE",
"1372 0 LINE",
"1372 1560 LINE",
"1201 1560 LINE",
"1201 215 LINE",
"933 665 OFFCURVE",
"660 1111 OFFCURVE",
"390 1560 CURVE",
"185 1560 LINE",
"185 0 LINE"
);
},
{
closed = 1;
nodes = (
"878 1644 LINE",
"1116 1967 LINE",
"962 1967 LINE",
"794 1752 LINE",
"630 1967 LINE",
"483 1967 LINE",
"722 1644 LINE"
);
}
);
width = 1539;
}
);
unicode = 0147;
userData = {
org.pippin.gimp.org.kernagic = {
lstem = 0;
rstem = 0;
};
};
},
{
glyphname = Ncommaaccent;
lastChange = "2018-07-25 18:37:52 +0000";
layers = (
{
layerId = "2E262F32-97C5-4CC7-8265-2EAE7B11245A";
paths = (
{
closed = 1;
nodes = (
"357 0 LINE",
"357 1341 LINE",
"426 1217 LINE",
"1165 0 LINE",
"1372 0 LINE",
"1372 1560 LINE",
"1201 1560 LINE",
"1201 215 LINE",
"933 665 OFFCURVE",
"660 1111 OFFCURVE",
"390 1560 CURVE",
"185 1560 LINE",
"185 0 LINE"
);
},
{
closed = 1;
nodes = (
"765 -585 LINE",
"928 -122 LINE",
"741 -122 LINE",
"634 -585 LINE"
);
}
);
width = 1539;
}
);
unicode = 0145;
userData = {
org.pippin.gimp.org.kernagic = {
lstem = 0;
rstem = 0;
};
};
},
{
glyphname = Ntilde;
lastChange = "2018-07-25 18:37:52 +0000";
layers = (
{
layerId = "2E262F32-97C5-4CC7-8265-2EAE7B11245A";
paths = (
{
closed = 1;
nodes = (
"357 0 LINE",
"357 1341 LINE",
"426 1217 LINE",
"1165 0 LINE",
"1372 0 LINE",
"1372 1560 LINE",
"1201 1560 LINE",
"1201 215 LINE",
"933 665 OFFCURVE",
"660 1111 OFFCURVE",
"390 1560 CURVE",
"185 1560 LINE",
"185 0 LINE"
);
},
{
closed = 1;
nodes = (
"616 1647 LINE",
"623 1700 OFFCURVE",
"632 1739 OFFCURVE",
"677 1739 CURVE SMOOTH",
"753 1739 OFFCURVE",
"799 1648 OFFCURVE",
"900 1648 CURVE SMOOTH",
"1024 1648 OFFCURVE",
"1082 1756 OFFCURVE",
"1095 1869 CURVE",
"987 1869 LINE",
"980 1820 OFFCURVE",
"973 1773 OFFCURVE",
"927 1773 CURVE SMOOTH",
"875 1773 OFFCURVE",
"817 1863 OFFCURVE",
"710 1863 CURVE SMOOTH",
"586 1863 OFFCURVE",
"521 1763 OFFCURVE",
"511 1647 CURVE"
);
}
);
width = 1539;
}
);
unicode = 00D1;
userData = {
org.pippin.gimp.org.kernagic = {
lstem = 0;
rstem = 0;
};
};
},
{
glyphname = O;
lastChange = "2018-07-25 18:37:52 +0000";
layers = (
{
layerId = "2E262F32-97C5-4CC7-8265-2EAE7B11245A";
paths = (
{
closed = 1;
nodes = (
"1270 -24 OFFCURVE",
"1512 340 OFFCURVE",
"1512 782 CURVE SMOOTH",
"1512 1226 OFFCURVE",
"1270 1586 OFFCURVE",
"815 1586 CURVE SMOOTH",
"360 1586 OFFCURVE",
"118 1226 OFFCURVE",
"118 782 CURVE SMOOTH",
"118 340 OFFCURVE",
"360 -24 OFFCURVE",
"815 -24 CURVE SMOOTH"
);
},
{
closed = 1;
nodes = (
"528 126 OFFCURVE",
"302 353 OFFCURVE",
"302 782 CURVE SMOOTH",
"302 1211 OFFCURVE",
"528 1436 OFFCURVE",
"815 1436 CURVE SMOOTH",
"1102 1436 OFFCURVE",
"1328 1211 OFFCURVE",
"1328 782 CURVE SMOOTH",
"1328 353 OFFCURVE",
"1102 126 OFFCURVE",
"815 126 CURVE SMOOTH"
);
}
);
width = 1629;
}
);
unicode = 004F;
userData = {
org.pippin.gimp.org.kernagic = {
lstem = 0;
rstem = 0;
};
};
},
{
glyphname = Oacute;
lastChange = "2018-07-25 18:37:52 +0000";
layers = (
{
layerId = "2E262F32-97C5-4CC7-8265-2EAE7B11245A";
paths = (
{
closed = 1;
nodes = (
"1270 -24 OFFCURVE",
"1512 340 OFFCURVE",
"1512 782 CURVE SMOOTH",
"1512 1226 OFFCURVE",
"1270 1586 OFFCURVE",
"815 1586 CURVE SMOOTH",
"360 1586 OFFCURVE",
"118 1226 OFFCURVE",
"118 782 CURVE SMOOTH",
"118 340 OFFCURVE",
"360 -24 OFFCURVE",
"815 -24 CURVE SMOOTH"
);
},
{
closed = 1;
nodes = (
"528 126 OFFCURVE",
"302 353 OFFCURVE",
"302 782 CURVE SMOOTH",
"302 1211 OFFCURVE",
"528 1436 OFFCURVE",
"815 1436 CURVE SMOOTH",
"1102 1436 OFFCURVE",
"1328 1211 OFFCURVE",
"1328 782 CURVE SMOOTH",
"1328 353 OFFCURVE",
"1102 126 OFFCURVE",
"815 126 CURVE SMOOTH"
);
},
{
closed = 1;
nodes = (
"841 1624 LINE",
"1149 1944 LINE",
"937 1944 LINE",
"711 1624 LINE"
);
}
);
width = 1629;
}
);
unicode = 00D3;
userData = {
org.pippin.gimp.org.kernagic = {
lstem = 0;
rstem = 0;
};
};
},
{
glyphname = Obreve;
lastChange = "2018-07-25 18:37:52 +0000";
layers = (
{
layerId = "2E262F32-97C5-4CC7-8265-2EAE7B11245A";
paths = (
{
closed = 1;
nodes = (
"1270 -24 OFFCURVE",
"1512 340 OFFCURVE",
"1512 782 CURVE SMOOTH",
"1512 1226 OFFCURVE",
"1270 1586 OFFCURVE",
"815 1586 CURVE SMOOTH",
"360 1586 OFFCURVE",
"118 1226 OFFCURVE",
"118 782 CURVE SMOOTH",
"118 340 OFFCURVE",
"360 -24 OFFCURVE",
"815 -24 CURVE SMOOTH"
);
},
{
closed = 1;
nodes = (
"528 126 OFFCURVE",
"302 353 OFFCURVE",
"302 782 CURVE SMOOTH",
"302 1211 OFFCURVE",
"528 1436 OFFCURVE",
"815 1436 CURVE SMOOTH",
"1102 1436 OFFCURVE",
"1328 1211 OFFCURVE",
"1328 782 CURVE SMOOTH",
"1328 353 OFFCURVE",
"1102 126 OFFCURVE",
"815 126 CURVE SMOOTH"
);
},
{
closed = 1;
nodes = (
"893 1711 OFFCURVE",
"1008 1789 OFFCURVE",
"1021 1946 CURVE",
"935 1946 LINE",
"915 1861 OFFCURVE",
"843 1817 OFFCURVE",
"773 1817 CURVE SMOOTH",
"705 1817 OFFCURVE",
"639 1859 OFFCURVE",
"624 1946 CURVE",
"537 1946 LINE",
"550 1789 OFFCURVE",
"664 1711 OFFCURVE",
"778 1711 CURVE SMOOTH"
);
}
);
width = 1629;
}
);
unicode = 014E;
userData = {
org.pippin.gimp.org.kernagic = {
lstem = 0;
rstem = 0;
};
};
},
{
glyphname = Ocircumflex;
lastChange = "2018-07-25 18:37:52 +0000";
layers = (
{
layerId = "2E262F32-97C5-4CC7-8265-2EAE7B11245A";
paths = (
{
closed = 1;
nodes = (
"1270 -24 OFFCURVE",
"1512 340 OFFCURVE",
"1512 782 CURVE SMOOTH",
"1512 1226 OFFCURVE",
"1270 1586 OFFCURVE",
"815 1586 CURVE SMOOTH",
"360 1586 OFFCURVE",
"118 1226 OFFCURVE",
"118 782 CURVE SMOOTH",
"118 340 OFFCURVE",
"360 -24 OFFCURVE",
"815 -24 CURVE SMOOTH"
);
},
{
closed = 1;
nodes = (
"528 126 OFFCURVE",
"302 353 OFFCURVE",
"302 782 CURVE SMOOTH",
"302 1211 OFFCURVE",
"528 1436 OFFCURVE",
"815 1436 CURVE SMOOTH",
"1102 1436 OFFCURVE",
"1328 1211 OFFCURVE",
"1328 782 CURVE SMOOTH",
"1328 353 OFFCURVE",
"1102 126 OFFCURVE",
"815 126 CURVE SMOOTH"
);
},
{
closed = 1;
nodes = (
"598 1643 LINE",
"776 1859 LINE",
"954 1643 LINE",
"1086 1643 LINE",
"857 1967 LINE",
"700 1967 LINE",
"472 1643 LINE"
);
}
);
width = 1629;
}
);
unicode = 00D4;
userData = {
org.pippin.gimp.org.kernagic = {
lstem = 0;
rstem = 0;
};
};
},
{
glyphname = Odieresis;
lastChange = "2018-07-25 18:37:52 +0000";
layers = (
{
layerId = "2E262F32-97C5-4CC7-8265-2EAE7B11245A";
paths = (
{
closed = 1;
nodes = (
"1270 -24 OFFCURVE",
"1512 340 OFFCURVE",
"1512 782 CURVE SMOOTH",
"1512 1226 OFFCURVE",
"1270 1586 OFFCURVE",
"815 1586 CURVE SMOOTH",
"360 1586 OFFCURVE",
"118 1226 OFFCURVE",
"118 782 CURVE SMOOTH",
"118 340 OFFCURVE",
"360 -24 OFFCURVE",
"815 -24 CURVE SMOOTH"
);
},
{
closed = 1;
nodes = (
"528 126 OFFCURVE",
"302 353 OFFCURVE",
"302 782 CURVE SMOOTH",
"302 1211 OFFCURVE",
"528 1436 OFFCURVE",
"815 1436 CURVE SMOOTH",
"1102 1436 OFFCURVE",
"1328 1211 OFFCURVE",
"1328 782 CURVE SMOOTH",
"1328 353 OFFCURVE",
"1102 126 OFFCURVE",
"815 126 CURVE SMOOTH"
);
},
{
closed = 1;
nodes = (
"672 1664 OFFCURVE",
"709 1701 OFFCURVE",
"709 1746 CURVE SMOOTH",
"709 1770 LINE SMOOTH",
"709 1815 OFFCURVE",
"672 1852 OFFCURVE",
"627 1852 CURVE SMOOTH",
"582 1852 OFFCURVE",
"545 1815 OFFCURVE",
"545 1770 CURVE SMOOTH",
"545 1746 LINE SMOOTH",
"545 1701 OFFCURVE",
"582 1664 OFFCURVE",
"627 1664 CURVE SMOOTH"
);
},
{
closed = 1;
nodes = (
"1004 1664 OFFCURVE",
"1041 1701 OFFCURVE",
"1041 1746 CURVE SMOOTH",
"1041 1770 LINE SMOOTH",
"1041 1815 OFFCURVE",
"1004 1852 OFFCURVE",
"959 1852 CURVE SMOOTH",
"914 1852 OFFCURVE",
"877 1815 OFFCURVE",
"877 1770 CURVE SMOOTH",
"877 1746 LINE SMOOTH",
"877 1701 OFFCURVE",
"914 1664 OFFCURVE",
"959 1664 CURVE SMOOTH"
);
}
);
width = 1629;
}
);
unicode = 00D6;
userData = {
org.pippin.gimp.org.kernagic = {
lstem = 0;
rstem = 0;
};
};
},
{
glyphname = Ograve;
lastChange = "2018-07-25 18:37:52 +0000";
layers = (
{
layerId = "2E262F32-97C5-4CC7-8265-2EAE7B11245A";
paths = (
{
closed = 1;
nodes = (
"1270 -24 OFFCURVE",
"1512 340 OFFCURVE",
"1512 782 CURVE SMOOTH",
"1512 1226 OFFCURVE",
"1270 1586 OFFCURVE",
"815 1586 CURVE SMOOTH",
"360 1586 OFFCURVE",
"118 1226 OFFCURVE",
"118 782 CURVE SMOOTH",
"118 340 OFFCURVE",
"360 -24 OFFCURVE",
"815 -24 CURVE SMOOTH"
);
},
{
closed = 1;
nodes = (
"528 126 OFFCURVE",
"302 353 OFFCURVE",
"302 782 CURVE SMOOTH",
"302 1211 OFFCURVE",
"528 1436 OFFCURVE",
"815 1436 CURVE SMOOTH",
"1102 1436 OFFCURVE",
"1328 1211 OFFCURVE",
"1328 782 CURVE SMOOTH",
"1328 353 OFFCURVE",
"1102 126 OFFCURVE",
"815 126 CURVE SMOOTH"
);
},
{
closed = 1;
nodes = (
"858 1648 LINE",
"611 1968 LINE",
"397 1968 LINE",
"729 1648 LINE"
);
}
);
width = 1629;
}
);
unicode = 00D2;
userData = {
org.pippin.gimp.org.kernagic = {
lstem = 0;
rstem = 0;
};
};
},
{
glyphname = Ohungarumlaut;
lastChange = "2018-07-25 18:37:52 +0000";
layers = (
{
layerId = "2E262F32-97C5-4CC7-8265-2EAE7B11245A";
paths = (
{
closed = 1;
nodes = (
"1270 -24 OFFCURVE",
"1512 340 OFFCURVE",
"1512 782 CURVE SMOOTH",
"1512 1145.57 OFFCURVE",
"1349 1452.81 OFFCURVE",
"1041 1552.2 CURVE",
"1294 1840 LINE",
"1118 1840 LINE",
"937 1576.64 LINE",
"898 1582.8 OFFCURVE",
"857 1586 OFFCURVE",
"815 1586 CURVE SMOOTH",
"812 1586 OFFCURVE",
"809 1585.99 OFFCURVE",
"806 1585.96 CURVE",
"1025 1840 LINE",
"855 1840 LINE",
"669 1572.75 LINE",
"308 1504.03 OFFCURVE",
"118 1176.11 OFFCURVE",
"118 782 CURVE SMOOTH",
"118 340 OFFCURVE",
"360 -24 OFFCURVE",
"815 -24 CURVE SMOOTH"
);
},
{
closed = 1;
nodes = (
"528 126 OFFCURVE",
"302 353 OFFCURVE",
"302 782 CURVE SMOOTH",
"302 1211 OFFCURVE",
"528 1436 OFFCURVE",
"815 1436 CURVE SMOOTH",
"1102 1436 OFFCURVE",
"1328 1211 OFFCURVE",
"1328 782 CURVE SMOOTH",
"1328 353 OFFCURVE",
"1102 126 OFFCURVE",
"815 126 CURVE SMOOTH"
);
}
);
width = 1629;
}
);
unicode = 0150;
userData = {
org.pippin.gimp.org.kernagic = {
lstem = 0;
rstem = 0;
};
};
},
{
glyphname = Omacron;
lastChange = "2018-07-25 18:37:52 +0000";
layers = (
{
layerId = "2E262F32-97C5-4CC7-8265-2EAE7B11245A";
paths = (
{
closed = 1;
nodes = (
"1270 -24 OFFCURVE",
"1512 340 OFFCURVE",
"1512 782 CURVE SMOOTH",
"1512 1226 OFFCURVE",
"1270 1586 OFFCURVE",
"815 1586 CURVE SMOOTH",
"360 1586 OFFCURVE",
"118 1226 OFFCURVE",
"118 782 CURVE SMOOTH",
"118 340 OFFCURVE",
"360 -24 OFFCURVE",
"815 -24 CURVE SMOOTH"
);
},
{
closed = 1;
nodes = (
"528 126 OFFCURVE",
"302 353 OFFCURVE",
"302 782 CURVE SMOOTH",
"302 1211 OFFCURVE",
"528 1436 OFFCURVE",
"815 1436 CURVE SMOOTH",
"1102 1436 OFFCURVE",
"1328 1211 OFFCURVE",
"1328 782 CURVE SMOOTH",
"1328 353 OFFCURVE",
"1102 126 OFFCURVE",
"815 126 CURVE SMOOTH"
);
},
{
closed = 1;
nodes = (
"1070 1706 LINE",
"1070 1840 LINE",
"498 1840 LINE",
"498 1706 LINE"
);
}
);
width = 1629;
}
);
unicode = 014C;
userData = {
org.pippin.gimp.org.kernagic = {
lstem = 0;
rstem = 0;
};
};
},
{
glyphname = Oslash;
lastChange = "2018-07-25 18:37:52 +0000";
layers = (
{
layerId = "2E262F32-97C5-4CC7-8265-2EAE7B11245A";
paths = (
{
closed = 1;
nodes = (
"588 10.273 LINE",
"656 -12.005 OFFCURVE",
"732 -24 OFFCURVE",
"815 -24 CURVE SMOOTH",
"1270 -24 OFFCURVE",
"1512 340 OFFCURVE",
"1512 782 CURVE SMOOTH",
"1512 1082.68 OFFCURVE",
"1401 1344.83 OFFCURVE",
"1188 1482.75 CURVE",
"1224 1571 LINE",
"1117 1604 LINE",
"1088 1534.68 LINE",
"1008 1567.85 OFFCURVE",
"917 1586 OFFCURVE",
"815 1586 CURVE SMOOTH",
"360 1586 OFFCURVE",
"118 1226 OFFCURVE",
"118 782 CURVE SMOOTH",
"118 461.456 OFFCURVE",
"245 181.935 OFFCURVE",
"488 52.521 CURVE",
"410 -142 LINE",
"513 -175 LINE"
);
},
{
closed = 1;
nodes = (
"400 303.643 OFFCURVE",
"302 498.811 OFFCURVE",
"302 782 CURVE SMOOTH",
"302 1211 OFFCURVE",
"528 1436 OFFCURVE",
"815 1436 CURVE SMOOTH",
"891 1436 OFFCURVE",
"964 1419.83 OFFCURVE",
"1029 1387.89 CURVE",
"549 203.689 LINE"
);
},
{
closed = 1;
nodes = (
"756 126 OFFCURVE",
"699 135.589 OFFCURVE",
"647 154.551 CURVE",
"1124 1325.55 LINE",
"1248 1219 OFFCURVE",
"1328 1036.36 OFFCURVE",
"1328 782 CURVE SMOOTH",
"1328 353 OFFCURVE",
"1102 126 OFFCURVE",
"815 126 CURVE SMOOTH"
);
}
);
width = 1629;
}
);
unicode = 00D8;
userData = {
org.pippin.gimp.org.kernagic = {
lstem = 0;
rstem = 0;
};
};
},
{
glyphname = Otilde;
lastChange = "2018-07-25 18:37:52 +0000";
layers = (
{
layerId = "2E262F32-97C5-4CC7-8265-2EAE7B11245A";
paths = (
{
closed = 1;
nodes = (
"1270 -24 OFFCURVE",
"1512 340 OFFCURVE",
"1512 782 CURVE SMOOTH",
"1512 1226 OFFCURVE",
"1270 1586 OFFCURVE",
"815 1586 CURVE SMOOTH",
"360 1586 OFFCURVE",
"118 1226 OFFCURVE",
"118 782 CURVE SMOOTH",
"118 340 OFFCURVE",
"360 -24 OFFCURVE",
"815 -24 CURVE SMOOTH"
);
},
{
closed = 1;
nodes = (
"528 126 OFFCURVE",
"302 353 OFFCURVE",
"302 782 CURVE SMOOTH",
"302 1211 OFFCURVE",
"528 1436 OFFCURVE",
"815 1436 CURVE SMOOTH",
"1102 1436 OFFCURVE",
"1328 1211 OFFCURVE",
"1328 782 CURVE SMOOTH",
"1328 353 OFFCURVE",
"1102 126 OFFCURVE",
"815 126 CURVE SMOOTH"
);
},
{
closed = 1;
nodes = (
"602 1647 LINE",
"609 1700 OFFCURVE",
"618 1739 OFFCURVE",
"663 1739 CURVE SMOOTH",
"739 1739 OFFCURVE",
"785 1648 OFFCURVE",
"886 1648 CURVE SMOOTH",
"1010 1648 OFFCURVE",
"1068 1756 OFFCURVE",
"1081 1869 CURVE",
"973 1869 LINE",
"966 1820 OFFCURVE",
"959 1773 OFFCURVE",
"913 1773 CURVE SMOOTH",
"861 1773 OFFCURVE",
"803 1863 OFFCURVE",
"696 1863 CURVE SMOOTH",
"572 1863 OFFCURVE",
"507 1763 OFFCURVE",
"497 1647 CURVE"
);
}
);
width = 1629;
}
);
unicode = 00D5;
userData = {
org.pippin.gimp.org.kernagic = {
lstem = 0;
rstem = 0;
};
};
},
{
glyphname = OE;
lastChange = "2018-07-25 18:37:52 +0000";
layers = (
{
layerId = "2E262F32-97C5-4CC7-8265-2EAE7B11245A";
paths = (
{
closed = 1;
nodes = (
"873 -24 OFFCURVE",
"938 -16 OFFCURVE",
"997 0 CURVE",
"1892 0 LINE",
"1892 138 LINE",
"1169 138 LINE",
"1169 732 LINE",
"1804 732 LINE",
"1804 870 LINE",
"1169 870 LINE",
"1169 1422 LINE",
"1842 1422 LINE",
"1842 1560 LINE",
"995 1560 LINE",
"995 1456.54 LINE",
"936 1472.18 OFFCURVE",
"872 1480 OFFCURVE",
"803 1480 CURVE SMOOTH",
"348 1480 OFFCURVE",
"106 1122 OFFCURVE",
"106 728 CURVE SMOOTH",
"106 336 OFFCURVE",
"348 -24 OFFCURVE",
"803 -24 CURVE SMOOTH"
);
},
{
closed = 1;
nodes = (
"536 126 OFFCURVE",
"290 330 OFFCURVE",
"290 729 CURVE SMOOTH",
"290 1128 OFFCURVE",
"536 1330 OFFCURVE",
"803 1330 CURVE SMOOTH",
"869 1330 OFFCURVE",
"934 1317.28 OFFCURVE",
"995 1292.81 CURVE",
"995 164.153 LINE",
"934 138.718 OFFCURVE",
"869 126 OFFCURVE",
"803 126 CURVE SMOOTH"
);
}
);
width = 1870;
}
);
unicode = 0152;
userData = {
org.pippin.gimp.org.kernagic = {
lstem = 0;
rstem = 0;
};
};
},
{
glyphname = P;
lastChange = "2018-07-25 18:37:52 +0000";
layers = (
{
layerId = "2E262F32-97C5-4CC7-8265-2EAE7B11245A";
paths = (
{
closed = 1;
nodes = (
"353 0 LINE",
"353 691 LINE",
"602 691 LINE SMOOTH",
"972 691 OFFCURVE",
"1150 838 OFFCURVE",
"1150 1124 CURVE SMOOTH",
"1150 1420 OFFCURVE",
"993 1560 OFFCURVE",
"578 1560 CURVE SMOOTH",
"179 1560 LINE",
"179 0 LINE"
);
},
{
closed = 1;
nodes = (
"353 1422 LINE",
"601 1422 LINE SMOOTH",
"880 1422 OFFCURVE",
"966 1326 OFFCURVE",
"966 1122 CURVE SMOOTH",
"966 936 OFFCURVE",
"862 840 OFFCURVE",
"621 840 CURVE SMOOTH",
"353 840 LINE"
);
}
);
width = 1237;
}
);
unicode = 0050;
userData = {
org.pippin.gimp.org.kernagic = {
lstem = 0;
rstem = 771;
};
};
},
{
glyphname = Thorn;
lastChange = "2018-07-25 18:37:52 +0000";
layers = (
{
layerId = "2E262F32-97C5-4CC7-8265-2EAE7B11245A";
paths = (
{
closed = 1;
nodes = (
"351 0 LINE",
"351 443 LINE",
"617 443 LINE SMOOTH",
"939 443 OFFCURVE",
"1153 554 OFFCURVE",
"1153 876 CURVE SMOOTH",
"1153 1231 OFFCURVE",
"907 1312 OFFCURVE",
"566 1312 CURVE SMOOTH",
"351 1312 LINE",
"351 1456 LINE",
"179 1456 LINE",
"179 0 LINE"
);
},
{
closed = 1;
nodes = (
"351 1164 LINE",
"608 1164 LINE SMOOTH",
"838 1164 OFFCURVE",
"969 1114 OFFCURVE",
"969 874 CURVE SMOOTH",
"969 674 OFFCURVE",
"865 592 OFFCURVE",
"655 592 CURVE SMOOTH",
"351 592 LINE"
);
}
);
width = 1297;
}
);
unicode = 00DE;
userData = {
org.pippin.gimp.org.kernagic = {
lstem = 0;
rstem = 0;
};
};
},
{
glyphname = Q;
lastChange = "2018-07-25 18:37:52 +0000";
layers = (
{
layerId = "2E262F32-97C5-4CC7-8265-2EAE7B11245A";
paths = (
{
closed = 1;
nodes = (
"1347 -168 LINE",
"1206 92 LINE",
"1407 234 OFFCURVE",
"1512 491 OFFCURVE",
"1512 782 CURVE SMOOTH",
"1512 1226 OFFCURVE",
"1270 1586 OFFCURVE",
"815 1586 CURVE SMOOTH",
"360 1586 OFFCURVE",
"118 1226 OFFCURVE",
"118 782 CURVE SMOOTH",
"118 340 OFFCURVE",
"360 -24 OFFCURVE",
"815 -24 CURVE SMOOTH",
"911 -24 OFFCURVE",
"996 -7 OFFCURVE",
"1073 22 CURVE",
"1219 -237 LINE"
);
},
{
closed = 1;
nodes = (
"528 126 OFFCURVE",
"302 353 OFFCURVE",
"302 782 CURVE SMOOTH",
"302 1211 OFFCURVE",
"528 1436 OFFCURVE",
"815 1436 CURVE SMOOTH",
"1102 1436 OFFCURVE",
"1328 1211 OFFCURVE",
"1328 782 CURVE SMOOTH",
"1328 529 OFFCURVE",
"1249 346 OFFCURVE",
"1126 239 CURVE",
"997 477 LINE",
"859 402 LINE",
"996 159 LINE",
"940 137 OFFCURVE",
"879 126 OFFCURVE",
"815 126 CURVE SMOOTH"
);
}
);
width = 1629;
}
);
unicode = 0051;
userData = {
org.pippin.gimp.org.kernagic = {
lstem = 0;
rstem = 0;
};
};
},
{
glyphname = R;
lastChange = "2018-07-25 18:37:52 +0000";
layers = (
{
layerId = "2E262F32-97C5-4CC7-8265-2EAE7B11245A";
paths = (
{
closed = 1;
nodes = (
"347 0 LINE",
"347 756 LINE",
"647 756 LINE",
"1025 0 LINE",
"1217 0 LINE",
"812 780 LINE",
"1058 833 OFFCURVE",
"1148 982 OFFCURVE",
"1148 1176 CURVE SMOOTH",
"1148 1508 OFFCURVE",
"900 1560 OFFCURVE",
"578 1560 CURVE SMOOTH",
"173 1560 LINE",
"173 0 LINE"
);
},
{
closed = 1;
nodes = (
"347 1422 LINE",
"667 1422 LINE SMOOTH",
"862 1422 OFFCURVE",
"977 1373 OFFCURVE",
"977 1162 CURVE SMOOTH",
"977 963 OFFCURVE",
"845 903 OFFCURVE",
"656 903 CURVE SMOOTH",
"347 903 LINE"
);
}
);
width = 1267;
}
);
unicode = 0052;
userData = {
org.pippin.gimp.org.kernagic = {
lstem = 0;
rstem = 0;
};
};
},
{
glyphname = Racute;
lastChange = "2018-07-25 18:37:52 +0000";
layers = (
{
layerId = "2E262F32-97C5-4CC7-8265-2EAE7B11245A";
paths = (
{
closed = 1;
nodes = (
"347 0 LINE",
"347 756 LINE",
"647 756 LINE",
"1025 0 LINE",
"1217 0 LINE",
"812 780 LINE",
"1058 833 OFFCURVE",
"1148 982 OFFCURVE",
"1148 1176 CURVE SMOOTH",
"1148 1508 OFFCURVE",
"900 1560 OFFCURVE",
"578 1560 CURVE SMOOTH",
"173 1560 LINE",
"173 0 LINE"
);
},
{
closed = 1;
nodes = (
"347 1422 LINE",
"667 1422 LINE SMOOTH",
"862 1422 OFFCURVE",
"977 1373 OFFCURVE",
"977 1162 CURVE SMOOTH",
"977 963 OFFCURVE",
"845 903 OFFCURVE",
"656 903 CURVE SMOOTH",
"347 903 LINE"
);
},
{
closed = 1;
nodes = (
"734 1624 LINE",
"1042 1944 LINE",
"830 1944 LINE",
"604 1624 LINE"
);
}
);
width = 1267;
}
);
unicode = 0154;
userData = {
org.pippin.gimp.org.kernagic = {
lstem = 0;
rstem = 0;
};
};
},
{
glyphname = Rcaron;
lastChange = "2018-07-25 18:37:52 +0000";
layers = (
{
layerId = "2E262F32-97C5-4CC7-8265-2EAE7B11245A";
paths = (
{
closed = 1;
nodes = (
"347 0 LINE",
"347 756 LINE",
"647 756 LINE",
"1025 0 LINE",
"1217 0 LINE",
"812 780 LINE",
"1058 833 OFFCURVE",
"1148 982 OFFCURVE",
"1148 1176 CURVE SMOOTH",
"1148 1508 OFFCURVE",
"900 1560 OFFCURVE",
"578 1560 CURVE SMOOTH",
"173 1560 LINE",
"173 0 LINE"
);
},
{
closed = 1;
nodes = (
"347 1422 LINE",
"667 1422 LINE SMOOTH",
"862 1422 OFFCURVE",
"977 1373 OFFCURVE",
"977 1162 CURVE SMOOTH",
"977 963 OFFCURVE",
"845 903 OFFCURVE",
"656 903 CURVE SMOOTH",
"347 903 LINE"
);
},
{
closed = 1;
nodes = (
"757 1644 LINE",
"995 1967 LINE",
"841 1967 LINE",
"673 1752 LINE",
"509 1967 LINE",
"362 1967 LINE",
"601 1644 LINE"
);
}
);
width = 1267;
}
);
unicode = 0158;
userData = {
org.pippin.gimp.org.kernagic = {
lstem = 0;
rstem = 0;
};
};
},
{
glyphname = Rcommaaccent;
lastChange = "2018-07-25 18:37:52 +0000";
layers = (
{
layerId = "2E262F32-97C5-4CC7-8265-2EAE7B11245A";
paths = (
{
closed = 1;
nodes = (
"347 0 LINE",
"347 756 LINE",
"647 756 LINE",
"1025 0 LINE",
"1217 0 LINE",
"812 780 LINE",
"1058 833 OFFCURVE",
"1148 982 OFFCURVE",
"1148 1176 CURVE SMOOTH",
"1148 1508 OFFCURVE",
"900 1560 OFFCURVE",
"578 1560 CURVE SMOOTH",
"173 1560 LINE",
"173 0 LINE"
);
},
{
closed = 1;
nodes = (
"685 -585 LINE",
"848 -122 LINE",
"661 -122 LINE",
"554 -585 LINE"
);
},
{
closed = 1;
nodes = (
"347 1422 LINE",
"667 1422 LINE SMOOTH",
"862 1422 OFFCURVE",
"977 1373 OFFCURVE",
"977 1162 CURVE SMOOTH",
"977 963 OFFCURVE",
"845 903 OFFCURVE",
"656 903 CURVE SMOOTH",
"347 903 LINE"
);
}
);
width = 1267;
}
);
unicode = 0156;
userData = {
org.pippin.gimp.org.kernagic = {
lstem = 0;
rstem = 0;
};
};
},
{
glyphname = S;
lastChange = "2018-07-25 18:36:45 +0000";
layers = (
{
layerId = "2E262F32-97C5-4CC7-8265-2EAE7B11245A";
paths = (
{
closed = 1;
nodes = (
"815 -22 OFFCURVE",
"1046 95 OFFCURVE",
"1046 420 CURVE SMOOTH",
"1046 636 OFFCURVE",
"939 751 OFFCURVE",
"602 885 CURVE SMOOTH",
"353 984 OFFCURVE",
"273 1034 OFFCURVE",
"273 1180 CURVE SMOOTH",
"273 1356 OFFCURVE",
"406 1436 OFFCURVE",
"587 1436 CURVE SMOOTH",
"712 1436 OFFCURVE",
"832 1373 OFFCURVE",
"914 1310 CURVE",
"980 1444 LINE",
"874 1527 OFFCURVE",
"744 1586 OFFCURVE",
"571 1586 CURVE SMOOTH",
"315 1586 OFFCURVE",
"100 1436 OFFCURVE",
"100 1178 CURVE SMOOTH",
"100 946 OFFCURVE",
"206 860 OFFCURVE",
"502 735 CURVE SMOOTH",
"795 611 OFFCURVE",
"884 561 OFFCURVE",
"877 393 CURVE SMOOTH",
"869 204 OFFCURVE",
"731 125 OFFCURVE",
"590 125 CURVE SMOOTH",
"447 125 OFFCURVE",
"280 201 OFFCURVE",
"169 293 CURVE",
"106 158 LINE",
"219 62 OFFCURVE",
"406 -22 OFFCURVE",
"589 -22 CURVE SMOOTH"
);
}
);
width = 1176;
}
);
unicode = 0053;
userData = {
com.typemytype.robofont.layerData = {
b = {
anchors = (
);
components = (
);
contours = (
{
points = (
{
segmentType = curve;
smooth = 1;
x = 1080;
y = 445;
},
{
smooth = 0;
x = 1080;
y = 147;
},
{
smooth = 0;
x = 866;
y = -22;
},
{
segmentType = curve;
smooth = 1;
x = 568;
y = -22;
},
{
smooth = 0;
x = 313;
y = -22;
},
{
smooth = 0;
x = 124;
y = 71;
},
{
segmentType = curve;
smooth = 0;
x = 33;
y = 132;
},
{
segmentType = line;
smooth = 0;
x = 111;
y = 320;
},
{
smooth = 0;
x = 225;
y = 245;
},
{
smooth = 0;
x = 405;
y = 176;
},
{
segmentType = curve;
smooth = 1;
x = 554;
y = 176;
},
{
smooth = 0;
x = 703;
y = 176;
},
{
smooth = 0;
x = 836;
y = 243;
},
{
segmentType = curve;
smooth = 1;
x = 836;
y = 418;
},
{
smooth = 0;
x = 836;
y = 558;
},
{
smooth = 0;
x = 770;
y = 598;
},
{
segmentType = curve;
smooth = 1;
x = 532;
y = 708;
},
{
smooth = 0;
x = 316;
y = 808;
},
{
smooth = 0;
x = 45;
y = 872;
},
{
segmentType = curve;
smooth = 1;
x = 45;
y = 1166;
},
{
smooth = 0;
x = 45;
y = 1451;
},
{
smooth = 0;
x = 277;
y = 1587;
},
{
segmentType = curve;
smooth = 1;
x = 565;
y = 1587;
},
{
smooth = 0;
x = 769;
y = 1587;
},
{
smooth = 0;
x = 926;
y = 1527;
},
{
segmentType = curve;
smooth = 0;
x = 1031;
y = 1461;
},
{
segmentType = line;
smooth = 0;
x = 974;
y = 1266;
},
{
smooth = 0;
x = 848;
y = 1340;
},
{
smooth = 0;
x = 701;
y = 1389;
},
{
segmentType = curve;
smooth = 1;
x = 578;
y = 1389;
},
{
smooth = 0;
x = 424;
y = 1389;
},
{
smooth = 0;
x = 300;
y = 1317;
},
{
segmentType = curve;
smooth = 1;
x = 300;
y = 1186;
},
{
smooth = 0;
x = 300;
y = 1052;
},
{
smooth = 0;
x = 423;
y = 1015;
},
{
segmentType = curve;
smooth = 1;
x = 646;
y = 911;
},
{
smooth = 0;
x = 891;
y = 798;
},
{
smooth = 0;
x = 1080;
y = 712;
}
);
}
);
lib = {
};
name = S;
unicodes = (
);
width = 1146;
};
};
org.pippin.gimp.org.kernagic = {
lstem = 0;
rstem = 0;
};
};
},
{
glyphname = Sacute;
lastChange = "2018-07-25 18:37:52 +0000";
layers = (
{
layerId = "2E262F32-97C5-4CC7-8265-2EAE7B11245A";
paths = (
{
closed = 1;
nodes = (
"851 -24 OFFCURVE",
"1018 158 OFFCURVE",
"1018 420 CURVE SMOOTH",
"1018 636 OFFCURVE",
"933 771 OFFCURVE",
"598 885 CURVE SMOOTH",
"345 972 OFFCURVE",
"279 1034 OFFCURVE",
"279 1180 CURVE SMOOTH",
"279 1184 OFFCURVE",
"280 1189 OFFCURVE",
"280 1194 CURVE SMOOTH",
"283 1348 OFFCURVE",
"402 1436 OFFCURVE",
"583 1436 CURVE SMOOTH",
"708 1436 OFFCURVE",
"828 1373 OFFCURVE",
"910 1310 CURVE",
"976 1444 LINE",
"870 1527 OFFCURVE",
"736 1586 OFFCURVE",
"563 1586 CURVE SMOOTH",
"307 1586 OFFCURVE",
"108 1442 OFFCURVE",
"106 1184 CURVE",
"106 1178 LINE SMOOTH",
"106 946 OFFCURVE",
"218 829 OFFCURVE",
"498 735 CURVE SMOOTH",
"798 634 OFFCURVE",
"849 553 OFFCURVE",
"849 423 CURVE SMOOTH",
"849 249 OFFCURVE",
"751 126 OFFCURVE",
"567 126 CURVE SMOOTH",
"422 126 OFFCURVE",
"254 208 OFFCURVE",
"161 290 CURVE",
"110 139 LINE",
"201 65 OFFCURVE",
"381 -24 OFFCURVE",
"571 -24 CURVE SMOOTH"
);
},
{
closed = 1;
nodes = (
"662 1624 LINE",
"970 1944 LINE",
"758 1944 LINE",
"532 1624 LINE"
);
}
);
width = 1146;
}
);
unicode = 015A;
userData = {
org.pippin.gimp.org.kernagic = {
lstem = 0;
rstem = 0;
};
};
},
{
glyphname = Scaron;
lastChange = "2018-07-25 18:37:52 +0000";
layers = (
{
layerId = "2E262F32-97C5-4CC7-8265-2EAE7B11245A";
paths = (
{
closed = 1;
nodes = (
"851 -24 OFFCURVE",
"1018 158 OFFCURVE",
"1018 420 CURVE SMOOTH",
"1018 636 OFFCURVE",
"933 771 OFFCURVE",
"598 885 CURVE SMOOTH",
"345 972 OFFCURVE",
"279 1034 OFFCURVE",
"279 1180 CURVE SMOOTH",
"279 1184 OFFCURVE",
"280 1189 OFFCURVE",
"280 1194 CURVE SMOOTH",
"283 1348 OFFCURVE",
"402 1436 OFFCURVE",
"583 1436 CURVE SMOOTH",
"708 1436 OFFCURVE",
"828 1373 OFFCURVE",
"910 1310 CURVE",
"976 1444 LINE",
"870 1527 OFFCURVE",
"736 1586 OFFCURVE",
"563 1586 CURVE SMOOTH",
"307 1586 OFFCURVE",
"108 1442 OFFCURVE",
"106 1184 CURVE",
"106 1178 LINE SMOOTH",
"106 946 OFFCURVE",
"218 829 OFFCURVE",
"498 735 CURVE SMOOTH",
"798 634 OFFCURVE",
"849 553 OFFCURVE",
"849 423 CURVE SMOOTH",
"849 249 OFFCURVE",
"751 126 OFFCURVE",
"567 126 CURVE SMOOTH",
"422 126 OFFCURVE",
"254 208 OFFCURVE",
"161 290 CURVE",
"110 139 LINE",
"201 65 OFFCURVE",
"381 -24 OFFCURVE",
"571 -24 CURVE SMOOTH"
);
},
{
closed = 1;
nodes = (
"685 1644 LINE",
"923 1967 LINE",
"769 1967 LINE",
"601 1752 LINE",
"437 1967 LINE",
"290 1967 LINE",
"529 1644 LINE"
);
}
);
width = 1146;
}
);
unicode = 0160;
userData = {
org.pippin.gimp.org.kernagic = {
lstem = 0;
rstem = 0;
};
};
},
{
glyphname = Scedilla;
lastChange = "2018-07-25 18:37:52 +0000";
layers = (
{
layerId = "2E262F32-97C5-4CC7-8265-2EAE7B11245A";
paths = (
{
closed = 1;
nodes = (
"664 -397 OFFCURVE",
"784 -360 OFFCURVE",
"784 -240 CURVE SMOOTH",
"784 -132 OFFCURVE",
"688 -96 OFFCURVE",
"584 -91 CURVE",
"575 -91 LINE",
"586 -23.817 LINE",
"857 -17.293 OFFCURVE",
"1018 162.808 OFFCURVE",
"1018 420 CURVE SMOOTH",
"1018 636 OFFCURVE",
"933 771 OFFCURVE",
"598 885 CURVE SMOOTH",
"345 972 OFFCURVE",
"279 1034 OFFCURVE",
"279 1180 CURVE SMOOTH",
"279 1184 OFFCURVE",
"280 1189 OFFCURVE",
"280 1194 CURVE SMOOTH",
"283 1348 OFFCURVE",
"402 1436 OFFCURVE",
"583 1436 CURVE SMOOTH",
"708 1436 OFFCURVE",
"828 1373 OFFCURVE",
"910 1310 CURVE",
"976 1444 LINE",
"870 1527 OFFCURVE",
"736 1586 OFFCURVE",
"563 1586 CURVE SMOOTH",
"307 1586 OFFCURVE",
"108 1442 OFFCURVE",
"106 1184 CURVE",
"106 1178 LINE SMOOTH",
"106 946 OFFCURVE",
"218 829 OFFCURVE",
"498 735 CURVE SMOOTH",
"798 634 OFFCURVE",
"849 553 OFFCURVE",
"849 423 CURVE SMOOTH",
"849 249 OFFCURVE",
"751 126 OFFCURVE",
"567 126 CURVE SMOOTH",
"422 126 OFFCURVE",
"254 208 OFFCURVE",
"161 290 CURVE",
"110 139 LINE",
"187 75.632 OFFCURVE",
"331 1.265 OFFCURVE",
"489 -18.797 CURVE",
"463 -174 LINE",
"495 -172 LINE SMOOTH",
"506 -171 OFFCURVE",
"523 -169 OFFCURVE",
"532 -169 CURVE SMOOTH",
"592 -169 OFFCURVE",
"641 -183 OFFCURVE",
"641 -242 CURVE SMOOTH",
"641 -298 OFFCURVE",
"593 -314 OFFCURVE",
"527 -314 CURVE SMOOTH",
"473 -314 OFFCURVE",
"426 -302 OFFCURVE",
"376 -290 CURVE",
"368 -375 LINE",
"422 -386 OFFCURVE",
"483 -397 OFFCURVE",
"543 -397 CURVE SMOOTH"
);
}
);
width = 1146;
}
);
unicode = 015E;
userData = {
org.pippin.gimp.org.kernagic = {
lstem = 0;
rstem = 0;
};
};
},
{
glyphname = Scircumflex;
lastChange = "2018-07-25 18:37:52 +0000";
layers = (
{
layerId = "2E262F32-97C5-4CC7-8265-2EAE7B11245A";
paths = (
{
closed = 1;
nodes = (
"851 -24 OFFCURVE",
"1018 158 OFFCURVE",
"1018 420 CURVE SMOOTH",
"1018 636 OFFCURVE",
"933 771 OFFCURVE",
"598 885 CURVE SMOOTH",
"345 972 OFFCURVE",
"279 1034 OFFCURVE",
"279 1180 CURVE SMOOTH",
"279 1184 OFFCURVE",
"280 1189 OFFCURVE",
"280 1194 CURVE SMOOTH",
"283 1348 OFFCURVE",
"402 1436 OFFCURVE",
"583 1436 CURVE SMOOTH",
"708 1436 OFFCURVE",
"828 1373 OFFCURVE",
"910 1310 CURVE",
"976 1444 LINE",
"870 1527 OFFCURVE",
"736 1586 OFFCURVE",
"563 1586 CURVE SMOOTH",
"307 1586 OFFCURVE",
"108 1442 OFFCURVE",
"106 1184 CURVE",
"106 1178 LINE SMOOTH",
"106 946 OFFCURVE",
"218 829 OFFCURVE",
"498 735 CURVE SMOOTH",
"798 634 OFFCURVE",
"849 553 OFFCURVE",
"849 423 CURVE SMOOTH",
"849 249 OFFCURVE",
"751 126 OFFCURVE",
"567 126 CURVE SMOOTH",
"422 126 OFFCURVE",
"254 208 OFFCURVE",
"161 290 CURVE",
"110 139 LINE",
"201 65 OFFCURVE",
"381 -24 OFFCURVE",
"571 -24 CURVE SMOOTH"
);
},
{
closed = 1;
nodes = (
"419 1643 LINE",
"597 1859 LINE",
"775 1643 LINE",
"907 1643 LINE",
"678 1967 LINE",
"521 1967 LINE",
"293 1643 LINE"
);
}
);
width = 1146;
}
);
unicode = 015C;
userData = {
org.pippin.gimp.org.kernagic = {
lstem = 0;
rstem = 0;
};
};
},
{
glyphname = Scommaaccent;
lastChange = "2018-07-25 18:37:52 +0000";
layers = (
{
layerId = "2E262F32-97C5-4CC7-8265-2EAE7B11245A";
paths = (
{
closed = 1;
nodes = (
"851 -24 OFFCURVE",
"1018 158 OFFCURVE",
"1018 420 CURVE SMOOTH",
"1018 636 OFFCURVE",
"933 771 OFFCURVE",
"598 885 CURVE SMOOTH",
"345 972 OFFCURVE",
"279 1034 OFFCURVE",
"279 1180 CURVE SMOOTH",
"279 1184 OFFCURVE",
"280 1189 OFFCURVE",
"280 1194 CURVE SMOOTH",
"283 1348 OFFCURVE",
"402 1436 OFFCURVE",
"583 1436 CURVE SMOOTH",
"708 1436 OFFCURVE",
"828 1373 OFFCURVE",
"910 1310 CURVE",
"976 1444 LINE",
"870 1527 OFFCURVE",
"736 1586 OFFCURVE",
"563 1586 CURVE SMOOTH",
"307 1586 OFFCURVE",
"108 1442 OFFCURVE",
"106 1184 CURVE",
"106 1178 LINE SMOOTH",
"106 946 OFFCURVE",
"218 829 OFFCURVE",
"498 735 CURVE SMOOTH",
"798 634 OFFCURVE",
"849 553 OFFCURVE",
"849 423 CURVE SMOOTH",
"849 249 OFFCURVE",
"751 126 OFFCURVE",
"567 126 CURVE SMOOTH",
"422 126 OFFCURVE",
"254 208 OFFCURVE",
"161 290 CURVE",
"110 139 LINE",
"201 65 OFFCURVE",
"381 -24 OFFCURVE",
"571 -24 CURVE SMOOTH"
);
},
{
closed = 1;
nodes = (
"589 -609 LINE",
"752 -146 LINE",
"565 -146 LINE",
"458 -609 LINE"
);
}
);
width = 1146;
}
);
unicode = 0218;
userData = {
org.pippin.gimp.org.kernagic = {
lstem = 0;
rstem = 0;
};
};
},
{
glyphname = T;
lastChange = "2018-07-25 18:37:52 +0000";
layers = (
{
layerId = "2E262F32-97C5-4CC7-8265-2EAE7B11245A";
paths = (
{
closed = 1;
nodes = (
"576 0 LINE",
"576 1422 LINE",
"1022 1422 LINE",
"1022 1560 LINE",
"-49 1560 LINE",
"-49 1422 LINE",
"402 1422 LINE",
"402 0 LINE"
);
}
);
width = 973;
}
);
unicode = 0054;
userData = {
com.typemytype.robofont.layerData = {
b = {
anchors = (
);
components = (
);
contours = (
);
lib = {
};
name = T;
unicodes = (
);
width = 973;
};
};
org.pippin.gimp.org.kernagic = {
lstem = 0;
rstem = 0;
};
};
},
{
glyphname = Tcaron;
lastChange = "2018-07-25 18:37:52 +0000";
layers = (
{
layerId = "2E262F32-97C5-4CC7-8265-2EAE7B11245A";
paths = (
{
closed = 1;
nodes = (
"900 0 LINE",
"900 1422 LINE",
"1346 1422 LINE",
"1346 1560 LINE",
"275 1560 LINE",
"275 1422 LINE",
"726 1422 LINE",
"726 0 LINE"
);
},
{
closed = 1;
nodes = (
"910 1644 LINE",
"1148 1967 LINE",
"994 1967 LINE",
"826 1752 LINE",
"662 1967 LINE",
"515 1967 LINE",
"754 1644 LINE"
);
}
);
width = 1297;
}
);
unicode = 0164;
userData = {
org.pippin.gimp.org.kernagic = {
lstem = 0;
rstem = 0;
};
};
},
{
glyphname = Tcommaaccent;
lastChange = "2018-07-25 18:37:52 +0000";
layers = (
{
layerId = "2E262F32-97C5-4CC7-8265-2EAE7B11245A";
paths = (
{
closed = 1;
nodes = (
"1022 -396 OFFCURVE",
"1142 -359 OFFCURVE",
"1142 -239 CURVE SMOOTH",
"1142 -131 OFFCURVE",
"1046 -95 OFFCURVE",
"942 -90 CURVE",
"933 -90 LINE",
"951 17 LINE",
"900 17 LINE",
"900 1422 LINE",
"1346 1422 LINE",
"1346 1560 LINE",
"275 1560 LINE",
"275 1422 LINE",
"726 1422 LINE",
"726 0 LINE",
"851 0 LINE",
"821 -173 LINE",
"853 -171 LINE SMOOTH",
"864 -170 OFFCURVE",
"881 -168 OFFCURVE",
"890 -168 CURVE SMOOTH",
"950 -168 OFFCURVE",
"999 -182 OFFCURVE",
"999 -241 CURVE SMOOTH",
"999 -297 OFFCURVE",
"951 -313 OFFCURVE",
"885 -313 CURVE SMOOTH",
"831 -313 OFFCURVE",
"784 -301 OFFCURVE",
"734 -289 CURVE",
"726 -374 LINE",
"780 -385 OFFCURVE",
"841 -396 OFFCURVE",
"901 -396 CURVE SMOOTH"
);
}
);
width = 1297;
}
);
unicode = 021A;
userData = {
org.pippin.gimp.org.kernagic = {
lstem = 0;
rstem = 0;
};
};
},
{
glyphname = U;
lastChange = "2018-07-25 18:37:52 +0000";
layers = (
{
layerId = "2E262F32-97C5-4CC7-8265-2EAE7B11245A";
paths = (
{
closed = 1;
nodes = (
"1071 -24 OFFCURVE",
"1266 191 OFFCURVE",
"1268 551 CURVE",
"1268 1560 LINE",
"1095 1560 LINE",
"1095 539 LINE SMOOTH",
"1095 279 OFFCURVE",
"964 126 OFFCURVE",
"722 126 CURVE SMOOTH",
"461 126 OFFCURVE",
"329 260 OFFCURVE",
"329 546 CURVE SMOOTH",
"329 1560 LINE",
"155 1560 LINE",
"155 541 LINE SMOOTH",
"155 157 OFFCURVE",
"354 -24 OFFCURVE",
"723 -24 CURVE SMOOTH"
);
}
);
width = 1418;
}
);
unicode = 0055;
userData = {
org.pippin.gimp.org.kernagic = {
lstem = 0;
rstem = 0;
};
};
},
{
glyphname = Uacute;
lastChange = "2018-07-25 18:37:52 +0000";
layers = (
{
layerId = "2E262F32-97C5-4CC7-8265-2EAE7B11245A";
paths = (
{
closed = 1;
nodes = (
"1071 -24 OFFCURVE",
"1266 191 OFFCURVE",
"1268 551 CURVE",
"1268 1560 LINE",
"1095 1560 LINE",
"1095 539 LINE SMOOTH",
"1095 279 OFFCURVE",
"964 126 OFFCURVE",
"722 126 CURVE SMOOTH",
"461 126 OFFCURVE",
"329 260 OFFCURVE",
"329 546 CURVE SMOOTH",
"329 1560 LINE",
"155 1560 LINE",
"155 541 LINE SMOOTH",
"155 157 OFFCURVE",
"354 -24 OFFCURVE",
"723 -24 CURVE SMOOTH"
);
},
{
closed = 1;
nodes = (
"695 1624 LINE",
"1003 1944 LINE",
"791 1944 LINE",
"565 1624 LINE"
);
}
);
width = 1418;
}
);
unicode = 00DA;
userData = {
org.pippin.gimp.org.kernagic = {
lstem = 0;
rstem = 0;
};
};
},
{
glyphname = Ubreve;
lastChange = "2018-07-25 18:37:52 +0000";
layers = (
{
layerId = "2E262F32-97C5-4CC7-8265-2EAE7B11245A";
paths = (
{
closed = 1;
nodes = (
"1071 -24 OFFCURVE",
"1266 191 OFFCURVE",
"1268 551 CURVE",
"1268 1560 LINE",
"1095 1560 LINE",
"1095 539 LINE SMOOTH",
"1095 279 OFFCURVE",
"964 126 OFFCURVE",
"722 126 CURVE SMOOTH",
"461 126 OFFCURVE",
"329 260 OFFCURVE",
"329 546 CURVE SMOOTH",
"329 1560 LINE",
"155 1560 LINE",
"155 541 LINE SMOOTH",
"155 157 OFFCURVE",
"354 -24 OFFCURVE",
"723 -24 CURVE SMOOTH"
);
},
{
closed = 1;
nodes = (
"747 1711 OFFCURVE",
"862 1789 OFFCURVE",
"875 1946 CURVE",
"789 1946 LINE",
"769 1861 OFFCURVE",
"697 1817 OFFCURVE",
"627 1817 CURVE SMOOTH",
"559 1817 OFFCURVE",
"493 1859 OFFCURVE",
"478 1946 CURVE",
"391 1946 LINE",
"404 1789 OFFCURVE",
"518 1711 OFFCURVE",
"632 1711 CURVE SMOOTH"
);
}
);
width = 1418;
}
);
unicode = 016C;
userData = {
org.pippin.gimp.org.kernagic = {
lstem = 0;
rstem = 0;
};
};
},
{
glyphname = Ucircumflex;
lastChange = "2018-07-25 18:37:52 +0000";
layers = (
{
layerId = "2E262F32-97C5-4CC7-8265-2EAE7B11245A";
paths = (
{
closed = 1;
nodes = (
"1071 -24 OFFCURVE",
"1266 191 OFFCURVE",
"1268 551 CURVE",
"1268 1560 LINE",
"1095 1560 LINE",
"1095 539 LINE SMOOTH",
"1095 279 OFFCURVE",
"964 126 OFFCURVE",
"722 126 CURVE SMOOTH",
"461 126 OFFCURVE",
"329 260 OFFCURVE",
"329 546 CURVE SMOOTH",
"329 1560 LINE",
"155 1560 LINE",
"155 541 LINE SMOOTH",
"155 157 OFFCURVE",
"354 -24 OFFCURVE",
"723 -24 CURVE SMOOTH"
);
},
{
closed = 1;
nodes = (
"452 1643 LINE",
"630 1859 LINE",
"808 1643 LINE",
"940 1643 LINE",
"711 1967 LINE",
"554 1967 LINE",
"326 1643 LINE"
);
}
);
width = 1418;
}
);
unicode = 00DB;
userData = {
org.pippin.gimp.org.kernagic = {
lstem = 0;
rstem = 0;
};
};
},
{
glyphname = Udieresis;
lastChange = "2018-07-25 18:37:52 +0000";
layers = (
{
layerId = "2E262F32-97C5-4CC7-8265-2EAE7B11245A";
paths = (
{
closed = 1;
nodes = (
"1071 -24 OFFCURVE",
"1266 191 OFFCURVE",
"1268 551 CURVE",
"1268 1560 LINE",
"1095 1560 LINE",
"1095 539 LINE SMOOTH",
"1095 279 OFFCURVE",
"964 126 OFFCURVE",
"722 126 CURVE SMOOTH",
"461 126 OFFCURVE",
"329 260 OFFCURVE",
"329 546 CURVE SMOOTH",
"329 1560 LINE",
"155 1560 LINE",
"155 541 LINE SMOOTH",
"155 157 OFFCURVE",
"354 -24 OFFCURVE",
"723 -24 CURVE SMOOTH"
);
},
{
closed = 1;
nodes = (
"526 1664 OFFCURVE",
"563 1701 OFFCURVE",
"563 1746 CURVE SMOOTH",
"563 1770 LINE SMOOTH",
"563 1815 OFFCURVE",
"526 1852 OFFCURVE",
"481 1852 CURVE SMOOTH",
"436 1852 OFFCURVE",
"399 1815 OFFCURVE",
"399 1770 CURVE SMOOTH",
"399 1746 LINE SMOOTH",
"399 1701 OFFCURVE",
"436 1664 OFFCURVE",
"481 1664 CURVE SMOOTH"
);
},
{
closed = 1;
nodes = (
"858 1664 OFFCURVE",
"895 1701 OFFCURVE",
"895 1746 CURVE SMOOTH",
"895 1770 LINE SMOOTH",
"895 1815 OFFCURVE",
"858 1852 OFFCURVE",
"813 1852 CURVE SMOOTH",
"768 1852 OFFCURVE",
"731 1815 OFFCURVE",
"731 1770 CURVE SMOOTH",
"731 1746 LINE SMOOTH",
"731 1701 OFFCURVE",
"768 1664 OFFCURVE",
"813 1664 CURVE SMOOTH"
);
}
);
width = 1418;
}
);
unicode = 00DC;
userData = {
org.pippin.gimp.org.kernagic = {
lstem = 0;
rstem = 0;
};
};
},
{
glyphname = Ugrave;
lastChange = "2018-07-25 18:37:52 +0000";
layers = (
{
layerId = "2E262F32-97C5-4CC7-8265-2EAE7B11245A";
paths = (
{
closed = 1;
nodes = (
"1071 -24 OFFCURVE",
"1266 191 OFFCURVE",
"1268 551 CURVE",
"1268 1560 LINE",
"1095 1560 LINE",
"1095 539 LINE SMOOTH",
"1095 279 OFFCURVE",
"964 126 OFFCURVE",
"722 126 CURVE SMOOTH",
"461 126 OFFCURVE",
"329 260 OFFCURVE",
"329 546 CURVE SMOOTH",
"329 1560 LINE",
"155 1560 LINE",
"155 541 LINE SMOOTH",
"155 157 OFFCURVE",
"354 -24 OFFCURVE",
"723 -24 CURVE SMOOTH"
);
},
{
closed = 1;
nodes = (
"712 1648 LINE",
"465 1968 LINE",
"251 1968 LINE",
"583 1648 LINE"
);
}
);
width = 1418;
}
);
unicode = 00D9;
userData = {
org.pippin.gimp.org.kernagic = {
lstem = 0;
rstem = 0;
};
};
},
{
glyphname = Uhungarumlaut;
lastChange = "2018-07-25 18:37:52 +0000";
layers = (
{
layerId = "2E262F32-97C5-4CC7-8265-2EAE7B11245A";
paths = (
{
closed = 1;
nodes = (
"1071 -24 OFFCURVE",
"1266 191 OFFCURVE",
"1268 551 CURVE",
"1268 1560 LINE",
"1095 1560 LINE",
"1095 539 LINE SMOOTH",
"1095 279 OFFCURVE",
"964 126 OFFCURVE",
"722 126 CURVE SMOOTH",
"461 126 OFFCURVE",
"329 260 OFFCURVE",
"329 546 CURVE SMOOTH",
"329 1560 LINE",
"155 1560 LINE",
"155 541 LINE SMOOTH",
"155 157 OFFCURVE",
"354 -24 OFFCURVE",
"723 -24 CURVE SMOOTH"
);
},
{
closed = 1;
nodes = (
"610 1527 LINE",
"879 1840 LINE",
"709 1840 LINE",
"492 1527 LINE"
);
},
{
closed = 1;
nodes = (
"873 1527 LINE",
"1148 1840 LINE",
"972 1840 LINE",
"758 1527 LINE"
);
}
);
width = 1418;
}
);
unicode = 0170;
userData = {
org.pippin.gimp.org.kernagic = {
lstem = 0;
rstem = 0;
};
};
},
{
glyphname = Umacron;
lastChange = "2018-07-25 18:37:52 +0000";
layers = (
{
layerId = "2E262F32-97C5-4CC7-8265-2EAE7B11245A";
paths = (
{
closed = 1;
nodes = (
"1071 -24 OFFCURVE",
"1266 191 OFFCURVE",
"1268 551 CURVE",
"1268 1560 LINE",
"1095 1560 LINE",
"1095 539 LINE SMOOTH",
"1095 279 OFFCURVE",
"964 126 OFFCURVE",
"722 126 CURVE SMOOTH",
"461 126 OFFCURVE",
"329 260 OFFCURVE",
"329 546 CURVE SMOOTH",
"329 1560 LINE",
"155 1560 LINE",
"155 541 LINE SMOOTH",
"155 157 OFFCURVE",
"354 -24 OFFCURVE",
"723 -24 CURVE SMOOTH"
);
},
{
closed = 1;
nodes = (
"924 1706 LINE",
"924 1840 LINE",
"352 1840 LINE",
"352 1706 LINE"
);
}
);
width = 1418;
}
);
unicode = 016A;
userData = {
org.pippin.gimp.org.kernagic = {
lstem = 0;
rstem = 0;
};
};
},
{
glyphname = Uogonek;
lastChange = "2018-07-25 18:37:52 +0000";
layers = (
{
layerId = "2E262F32-97C5-4CC7-8265-2EAE7B11245A";
paths = (
{
closed = 1;
nodes = (
"862 -390 OFFCURVE",
"929 -380 OFFCURVE",
"975 -361 CURVE",
"975 -250 LINE",
"929 -268 OFFCURVE",
"885 -281 OFFCURVE",
"821 -281 CURVE SMOOTH",
"770 -281 OFFCURVE",
"721 -250 OFFCURVE",
"721 -199 CURVE SMOOTH",
"721 -117 OFFCURVE",
"838 -52 OFFCURVE",
"924 0 CURVE",
"912 1.067 LINE",
"1141 67.462 OFFCURVE",
"1266 262.75 OFFCURVE",
"1268 551 CURVE",
"1268 1560 LINE",
"1095 1560 LINE",
"1095 539 LINE SMOOTH",
"1095 279 OFFCURVE",
"964 126 OFFCURVE",
"722 126 CURVE SMOOTH",
"461 126 OFFCURVE",
"329 260 OFFCURVE",
"329 546 CURVE SMOOTH",
"329 1560 LINE",
"155 1560 LINE",
"155 541 LINE SMOOTH",
"155 157 OFFCURVE",
"354 -24 OFFCURVE",
"723 -24 CURVE SMOOTH",
"723 -24 OFFCURVE",
"724 -23.999 OFFCURVE",
"724 -23.999 CURVE",
"648 -67.527 OFFCURVE",
"580 -126.867 OFFCURVE",
"580 -225 CURVE SMOOTH",
"580 -335 OFFCURVE",
"673 -390 OFFCURVE",
"798 -390 CURVE SMOOTH"
);
}
);
width = 1418;
}
);
unicode = 0172;
userData = {
org.pippin.gimp.org.kernagic = {
lstem = 0;
rstem = 0;
};
};
},
{
glyphname = Uring;
lastChange = "2018-07-25 18:37:52 +0000";
layers = (
{
layerId = "2E262F32-97C5-4CC7-8265-2EAE7B11245A";
paths = (
{
closed = 1;
nodes = (
"1071 -24 OFFCURVE",
"1266 191 OFFCURVE",
"1268 551 CURVE",
"1268 1560 LINE",
"1095 1560 LINE",
"1095 539 LINE SMOOTH",
"1095 279 OFFCURVE",
"964 126 OFFCURVE",
"722 126 CURVE SMOOTH",
"461 126 OFFCURVE",
"329 260 OFFCURVE",
"329 546 CURVE SMOOTH",
"329 1560 LINE",
"155 1560 LINE",
"155 541 LINE SMOOTH",
"155 157 OFFCURVE",
"354 -24 OFFCURVE",
"723 -24 CURVE SMOOTH"
);
},
{
closed = 1;
nodes = (
"733 1504 OFFCURVE",
"818 1579 OFFCURVE",
"818 1684 CURVE SMOOTH",
"818 1788 OFFCURVE",
"733 1864 OFFCURVE",
"628 1864 CURVE SMOOTH",
"524 1864 OFFCURVE",
"438 1788 OFFCURVE",
"438 1684 CURVE SMOOTH",
"438 1579 OFFCURVE",
"524 1504 OFFCURVE",
"628 1504 CURVE SMOOTH"
);
},
{
closed = 1;
nodes = (
"570 1579 OFFCURVE",
"527 1627 OFFCURVE",
"527 1685 CURVE SMOOTH",
"527 1742 OFFCURVE",
"570 1790 OFFCURVE",
"628 1790 CURVE SMOOTH",
"685 1790 OFFCURVE",
"729 1742 OFFCURVE",
"729 1685 CURVE SMOOTH",
"729 1627 OFFCURVE",
"685 1579 OFFCURVE",
"628 1579 CURVE SMOOTH"
);
}
);
width = 1418;
}
);
unicode = 016E;
userData = {
org.pippin.gimp.org.kernagic = {
lstem = 0;
rstem = 0;
};
};
},
{
glyphname = Utilde;
lastChange = "2018-07-25 18:37:52 +0000";
layers = (
{
layerId = "2E262F32-97C5-4CC7-8265-2EAE7B11245A";
paths = (
{
closed = 1;
nodes = (
"1071 -24 OFFCURVE",
"1266 191 OFFCURVE",
"1268 551 CURVE",
"1268 1560 LINE",
"1095 1560 LINE",
"1095 539 LINE SMOOTH",
"1095 279 OFFCURVE",
"964 126 OFFCURVE",
"722 126 CURVE SMOOTH",
"461 126 OFFCURVE",
"329 260 OFFCURVE",
"329 546 CURVE SMOOTH",
"329 1560 LINE",
"155 1560 LINE",
"155 541 LINE SMOOTH",
"155 157 OFFCURVE",
"354 -24 OFFCURVE",
"723 -24 CURVE SMOOTH"
);
},
{
closed = 1;
nodes = (
"456 1647 LINE",
"463 1700 OFFCURVE",
"472 1739 OFFCURVE",
"517 1739 CURVE SMOOTH",
"593 1739 OFFCURVE",
"639 1648 OFFCURVE",
"740 1648 CURVE SMOOTH",
"864 1648 OFFCURVE",
"922 1756 OFFCURVE",
"935 1869 CURVE",
"827 1869 LINE",
"820 1820 OFFCURVE",
"813 1773 OFFCURVE",
"767 1773 CURVE SMOOTH",
"715 1773 OFFCURVE",
"657 1863 OFFCURVE",
"550 1863 CURVE SMOOTH",
"426 1863 OFFCURVE",
"361 1763 OFFCURVE",
"351 1647 CURVE"
);
}
);
width = 1418;
}
);
unicode = 0168;
userData = {
org.pippin.gimp.org.kernagic = {
lstem = 0;
rstem = 0;
};
};
},
{
glyphname = V;
lastChange = "2018-07-25 18:37:52 +0000";
layers = (
{
layerId = "2E262F32-97C5-4CC7-8265-2EAE7B11245A";
paths = (
{
closed = 1;
nodes = (
"679 0 LINE",
"1217 1560 LINE",
"1033 1560 LINE",
"884 1102 OFFCURVE",
"734 644 OFFCURVE",
"585 185 CURVE",
"539 335 LINE",
"127 1560 LINE",
"-56 1560 LINE",
"493 0 LINE"
);
}
);
width = 1176;
}
);
unicode = 0056;
userData = {
org.pippin.gimp.org.kernagic = {
lstem = 0;
rstem = 0;
};
};
},
{
glyphname = W;
lastChange = "2018-07-25 18:37:52 +0000";
layers = (
{
layerId = "2E262F32-97C5-4CC7-8265-2EAE7B11245A";
paths = (
{
closed = 1;
nodes = (
"517 0 LINE",
"898 1354 LINE",
"1275 0 LINE",
"1487 0 LINE",
"1890 1560 LINE",
"1713 1560 LINE",
"1603 1100 OFFCURVE",
"1495 637 OFFCURVE",
"1383 179 CURVE",
"1254 641 OFFCURVE",
"1121 1099 OFFCURVE",
"990 1560 CURVE",
"817 1560 LINE",
"684 1099 OFFCURVE",
"551 638 OFFCURVE",
"417 178 CURVE",
"379 349 LINE",
"86 1560 LINE",
"-92 1560 LINE",
"306 0 LINE"
);
}
);
width = 1810;
}
);
unicode = 0057;
userData = {
org.pippin.gimp.org.kernagic = {
lstem = 0;
rstem = 0;
};
};
},
{
glyphname = Wacute;
lastChange = "2018-07-25 18:37:52 +0000";
layers = (
{
layerId = "2E262F32-97C5-4CC7-8265-2EAE7B11245A";
paths = (
{
closed = 1;
nodes = (
"517 0 LINE",
"898 1354 LINE",
"1275 0 LINE",
"1487 0 LINE",
"1890 1560 LINE",
"1713 1560 LINE",
"1603 1100 OFFCURVE",
"1495 637 OFFCURVE",
"1383 179 CURVE",
"1254 641 OFFCURVE",
"1121 1099 OFFCURVE",
"990 1560 CURVE",
"817 1560 LINE",
"684 1099 OFFCURVE",
"551 638 OFFCURVE",
"417 178 CURVE",
"379 349 LINE",
"86 1560 LINE",
"-92 1560 LINE",
"306 0 LINE"
);
},
{
closed = 1;
nodes = (
"918 1624 LINE",
"1226 1944 LINE",
"1014 1944 LINE",
"788 1624 LINE"
);
}
);
width = 1810;
}
);
unicode = 1E82;
userData = {
org.pippin.gimp.org.kernagic = {
lstem = 0;
rstem = 0;
};
};
},
{
glyphname = Wcircumflex;
lastChange = "2018-07-25 18:37:52 +0000";
layers = (
{
layerId = "2E262F32-97C5-4CC7-8265-2EAE7B11245A";
paths = (
{
closed = 1;
nodes = (
"517 0 LINE",
"898 1354 LINE",
"1275 0 LINE",
"1487 0 LINE",
"1890 1560 LINE",
"1713 1560 LINE",
"1603 1100 OFFCURVE",
"1495 637 OFFCURVE",
"1383 179 CURVE",
"1254 641 OFFCURVE",
"1121 1099 OFFCURVE",
"990 1560 CURVE",
"817 1560 LINE",
"684 1099 OFFCURVE",
"551 638 OFFCURVE",
"417 178 CURVE",
"379 349 LINE",
"86 1560 LINE",
"-92 1560 LINE",
"306 0 LINE"
);
},
{
closed = 1;
nodes = (
"675 1643 LINE",
"853 1859 LINE",
"1031 1643 LINE",
"1163 1643 LINE",
"934 1967 LINE",
"777 1967 LINE",
"549 1643 LINE"
);
}
);
width = 1810;
}
);
unicode = 0174;
userData = {
org.pippin.gimp.org.kernagic = {
lstem = 0;
rstem = 0;
};
};
},
{
glyphname = Wdieresis;
lastChange = "2018-07-25 18:37:52 +0000";
layers = (
{
layerId = "2E262F32-97C5-4CC7-8265-2EAE7B11245A";
paths = (
{
closed = 1;
nodes = (
"517 0 LINE",
"898 1354 LINE",
"1275 0 LINE",
"1487 0 LINE",
"1890 1560 LINE",
"1713 1560 LINE",
"1603 1100 OFFCURVE",
"1495 637 OFFCURVE",
"1383 179 CURVE",
"1254 641 OFFCURVE",
"1121 1099 OFFCURVE",
"990 1560 CURVE",
"817 1560 LINE",
"684 1099 OFFCURVE",
"551 638 OFFCURVE",
"417 178 CURVE",
"379 349 LINE",
"86 1560 LINE",
"-92 1560 LINE",
"306 0 LINE"
);
},
{
closed = 1;
nodes = (
"749 1664 OFFCURVE",
"786 1701 OFFCURVE",
"786 1746 CURVE SMOOTH",
"786 1770 LINE SMOOTH",
"786 1815 OFFCURVE",
"749 1852 OFFCURVE",
"704 1852 CURVE SMOOTH",
"659 1852 OFFCURVE",
"622 1815 OFFCURVE",
"622 1770 CURVE SMOOTH",
"622 1746 LINE SMOOTH",
"622 1701 OFFCURVE",
"659 1664 OFFCURVE",
"704 1664 CURVE SMOOTH"
);
},
{
closed = 1;
nodes = (
"1081 1664 OFFCURVE",
"1118 1701 OFFCURVE",
"1118 1746 CURVE SMOOTH",
"1118 1770 LINE SMOOTH",
"1118 1815 OFFCURVE",
"1081 1852 OFFCURVE",
"1036 1852 CURVE SMOOTH",
"991 1852 OFFCURVE",
"954 1815 OFFCURVE",
"954 1770 CURVE SMOOTH",
"954 1746 LINE SMOOTH",
"954 1701 OFFCURVE",
"991 1664 OFFCURVE",
"1036 1664 CURVE SMOOTH"
);
}
);
width = 1810;
}
);
unicode = 1E84;
userData = {
org.pippin.gimp.org.kernagic = {
lstem = 0;
rstem = 0;
};
};
},
{
glyphname = Wgrave;
lastChange = "2018-07-25 18:37:52 +0000";
layers = (
{
layerId = "2E262F32-97C5-4CC7-8265-2EAE7B11245A";
paths = (
{
closed = 1;
nodes = (
"517 0 LINE",
"898 1354 LINE",
"1275 0 LINE",
"1487 0 LINE",
"1890 1560 LINE",
"1713 1560 LINE",
"1603 1100 OFFCURVE",
"1495 637 OFFCURVE",
"1383 179 CURVE",
"1254 641 OFFCURVE",
"1121 1099 OFFCURVE",
"990 1560 CURVE",
"817 1560 LINE",
"684 1099 OFFCURVE",
"551 638 OFFCURVE",
"417 178 CURVE",
"379 349 LINE",
"86 1560 LINE",
"-92 1560 LINE",
"306 0 LINE"
);
},
{
closed = 1;
nodes = (
"935 1648 LINE",
"688 1968 LINE",
"474 1968 LINE",
"806 1648 LINE"
);
}
);
width = 1810;
}
);
unicode = 1E80;
userData = {
org.pippin.gimp.org.kernagic = {
lstem = 0;
rstem = 0;
};
};
},
{
glyphname = X;
lastChange = "2018-07-25 18:37:52 +0000";
layers = (
{
layerId = "2E262F32-97C5-4CC7-8265-2EAE7B11245A";
paths = (
{
closed = 1;
nodes = (
"238 0 LINE",
"654 697 LINE",
"1072 0 LINE",
"1273 0 LINE",
"765 816 LINE",
"1263 1560 LINE",
"1067 1560 LINE",
"667 928 LINE",
"279 1560 LINE",
"73 1560 LINE",
"558 815 LINE",
"34 0 LINE"
);
}
);
width = 1297;
}
);
unicode = 0058;
userData = {
org.pippin.gimp.org.kernagic = {
lstem = 0;
rstem = 0;
};
};
},
{
glyphname = Y;
lastChange = "2018-07-25 18:37:52 +0000";
layers = (
{
layerId = "2E262F32-97C5-4CC7-8265-2EAE7B11245A";
paths = (
{
closed = 1;
nodes = (
"616 0 LINE",
"616 655 LINE",
"1139 1560 LINE",
"949 1560 LINE",
"529 797 LINE",
"113 1560 LINE",
"-74 1560 LINE",
"442 652 LINE",
"442 0 LINE"
);
}
);
width = 1056;
}
);
unicode = 0059;
userData = {
org.pippin.gimp.org.kernagic = {
lstem = 0;
rstem = 0;
};
};
},
{
glyphname = Yacute;
lastChange = "2018-07-25 18:37:52 +0000";
layers = (
{
layerId = "2E262F32-97C5-4CC7-8265-2EAE7B11245A";
paths = (
{
closed = 1;
nodes = (
"616 0 LINE",
"616 655 LINE",
"1139 1560 LINE",
"949 1560 LINE",
"529 797 LINE",
"113 1560 LINE",
"-74 1560 LINE",
"442 652 LINE",
"442 0 LINE"
);
},
{
closed = 1;
nodes = (
"574 1624 LINE",
"882 1944 LINE",
"670 1944 LINE",
"444 1624 LINE"
);
}
);
width = 1056;
}
);
unicode = 00DD;
userData = {
org.pippin.gimp.org.kernagic = {
lstem = 0;
rstem = 0;
};
};
},
{
glyphname = Ycircumflex;
lastChange = "2018-07-25 18:37:52 +0000";
layers = (
{
layerId = "2E262F32-97C5-4CC7-8265-2EAE7B11245A";
paths = (
{
closed = 1;
nodes = (
"616 0 LINE",
"616 655 LINE",
"1139 1560 LINE",
"949 1560 LINE",
"529 797 LINE",
"113 1560 LINE",
"-74 1560 LINE",
"442 652 LINE",
"442 0 LINE"
);
},
{
closed = 1;
nodes = (
"331 1643 LINE",
"509 1859 LINE",
"687 1643 LINE",
"819 1643 LINE",
"590 1967 LINE",
"433 1967 LINE",
"205 1643 LINE"
);
}
);
width = 1056;
}
);
unicode = 0176;
userData = {
org.pippin.gimp.org.kernagic = {
lstem = 0;
rstem = 0;
};
};
},
{
glyphname = Ydieresis;
lastChange = "2018-07-25 18:37:52 +0000";
layers = (
{
layerId = "2E262F32-97C5-4CC7-8265-2EAE7B11245A";
paths = (
{
closed = 1;
nodes = (
"616 0 LINE",
"616 655 LINE",
"1139 1560 LINE",
"949 1560 LINE",
"529 797 LINE",
"113 1560 LINE",
"-74 1560 LINE",
"442 652 LINE",
"442 0 LINE"
);
},
{
closed = 1;
nodes = (
"405 1664 OFFCURVE",
"442 1701 OFFCURVE",
"442 1746 CURVE SMOOTH",
"442 1770 LINE SMOOTH",
"442 1815 OFFCURVE",
"405 1852 OFFCURVE",
"360 1852 CURVE SMOOTH",
"315 1852 OFFCURVE",
"278 1815 OFFCURVE",
"278 1770 CURVE SMOOTH",
"278 1746 LINE SMOOTH",
"278 1701 OFFCURVE",
"315 1664 OFFCURVE",
"360 1664 CURVE SMOOTH"
);
},
{
closed = 1;
nodes = (
"737 1664 OFFCURVE",
"774 1701 OFFCURVE",
"774 1746 CURVE SMOOTH",
"774 1770 LINE SMOOTH",
"774 1815 OFFCURVE",
"737 1852 OFFCURVE",
"692 1852 CURVE SMOOTH",
"647 1852 OFFCURVE",
"610 1815 OFFCURVE",
"610 1770 CURVE SMOOTH",
"610 1746 LINE SMOOTH",
"610 1701 OFFCURVE",
"647 1664 OFFCURVE",
"692 1664 CURVE SMOOTH"
);
}
);
width = 1056;
}
);
unicode = 0178;
userData = {
org.pippin.gimp.org.kernagic = {
lstem = 0;
rstem = 0;
};
};
},
{
glyphname = Ygrave;
lastChange = "2018-07-25 18:37:52 +0000";
layers = (
{
layerId = "2E262F32-97C5-4CC7-8265-2EAE7B11245A";
paths = (
{
closed = 1;
nodes = (
"616 0 LINE",
"616 655 LINE",
"1139 1560 LINE",
"949 1560 LINE",
"529 797 LINE",
"113 1560 LINE",
"-74 1560 LINE",
"442 652 LINE",
"442 0 LINE"
);
},
{
closed = 1;
nodes = (
"591 1648 LINE",
"344 1968 LINE",
"130 1968 LINE",
"462 1648 LINE"
);
}
);
width = 1056;
}
);
unicode = 1EF2;
userData = {
org.pippin.gimp.org.kernagic = {
lstem = 0;
rstem = 0;
};
};
},
{
glyphname = Z;
lastChange = "2018-07-25 18:37:52 +0000";
layers = (
{
layerId = "2E262F32-97C5-4CC7-8265-2EAE7B11245A";
paths = (
{
closed = 1;
nodes = (
"1060 0 LINE",
"1060 138 LINE",
"304 138 LINE",
"1068 1472 LINE",
"1068 1560 LINE",
"108 1560 LINE",
"108 1422 LINE",
"836 1422 LINE",
"76 92 LINE",
"76 0 LINE"
);
}
);
width = 1176;
}
);
unicode = 005A;
userData = {
org.pippin.gimp.org.kernagic = {
lstem = 0;
rstem = 0;
};
};
},
{
glyphname = Zacute;
lastChange = "2018-07-25 18:37:52 +0000";
layers = (
{
layerId = "2E262F32-97C5-4CC7-8265-2EAE7B11245A";
paths = (
{
closed = 1;
nodes = (
"1060 0 LINE",
"1060 138 LINE",
"304 138 LINE",
"1068 1472 LINE",
"1068 1560 LINE",
"108 1560 LINE",
"108 1422 LINE",
"836 1422 LINE",
"76 92 LINE",
"76 0 LINE"
);
},
{
closed = 1;
nodes = (
"743 1624 LINE",
"1051 1944 LINE",
"839 1944 LINE",
"613 1624 LINE"
);
}
);
width = 1176;
}
);
unicode = 0179;
userData = {
org.pippin.gimp.org.kernagic = {
lstem = 0;
rstem = 0;
};
};
},
{
glyphname = Zcaron;
lastChange = "2018-07-25 18:37:52 +0000";
layers = (
{
layerId = "2E262F32-97C5-4CC7-8265-2EAE7B11245A";
paths = (
{
closed = 1;
nodes = (
"1060 0 LINE",
"1060 138 LINE",
"304 138 LINE",
"1068 1472 LINE",
"1068 1560 LINE",
"108 1560 LINE",
"108 1422 LINE",
"836 1422 LINE",
"76 92 LINE",
"76 0 LINE"
);
},
{
closed = 1;
nodes = (
"766 1644 LINE",
"1004 1967 LINE",
"850 1967 LINE",
"682 1752 LINE",
"518 1967 LINE",
"371 1967 LINE",
"610 1644 LINE"
);
}
);
width = 1176;
}
);
unicode = 017D;
userData = {
org.pippin.gimp.org.kernagic = {
lstem = 0;
rstem = 0;
};
};
},
{
glyphname = Zdotaccent;
lastChange = "2018-07-25 18:37:52 +0000";
layers = (
{
layerId = "2E262F32-97C5-4CC7-8265-2EAE7B11245A";
paths = (
{
closed = 1;
nodes = (
"1060 0 LINE",
"1060 138 LINE",
"304 138 LINE",
"1068 1472 LINE",
"1068 1560 LINE",
"108 1560 LINE",
"108 1422 LINE",
"836 1422 LINE",
"76 92 LINE",
"76 0 LINE"
);
},
{
closed = 1;
nodes = (
"723 1752 LINE",
"723 1915 LINE",
"563 1915 LINE",
"563 1752 LINE"
);
}
);
width = 1176;
}
);
unicode = 017B;
userData = {
org.pippin.gimp.org.kernagic = {
lstem = 0;
rstem = 0;
};
};
},
{
glyphname = uni0200;
lastChange = "2018-07-25 18:37:52 +0000";
layers = (
{
layerId = "2E262F32-97C5-4CC7-8265-2EAE7B11245A";
paths = (
{
closed = 1;
nodes = (
"204 0 LINE",
"371 479 LINE",
"996 479 LINE",
"1164 0 LINE",
"1345 0 LINE",
"775 1560 LINE",
"597 1560 LINE",
"28 0 LINE"
);
},
{
closed = 1;
nodes = (
"510 872 OFFCURVE",
"597 1130 OFFCURVE",
"686 1385 CURVE",
"769 1125 OFFCURVE",
"857 871 OFFCURVE",
"944 615 CURVE",
"423 615 LINE"
);
},
{
closed = 1;
nodes = (
"597 1631 LINE",
"383 1944 LINE",
"207 1944 LINE",
"482 1631 LINE"
);
},
{
closed = 1;
nodes = (
"863 1631 LINE",
"646 1944 LINE",
"476 1944 LINE",
"745 1631 LINE"
);
}
);
width = 1388;
}
);
unicode = 0200;
userData = {
org.pippin.gimp.org.kernagic = {
lstem = 0;
rstem = 0;
};
};
},
{
glyphname = uni0202;
lastChange = "2018-07-25 18:37:52 +0000";
layers = (
{
layerId = "2E262F32-97C5-4CC7-8265-2EAE7B11245A";
paths = (
{
closed = 1;
nodes = (
"204 0 LINE",
"371 479 LINE",
"996 479 LINE",
"1164 0 LINE",
"1345 0 LINE",
"775 1560 LINE",
"597 1560 LINE",
"28 0 LINE"
);
},
{
closed = 1;
nodes = (
"510 872 OFFCURVE",
"597 1130 OFFCURVE",
"686 1385 CURVE",
"769 1125 OFFCURVE",
"857 871 OFFCURVE",
"944 615 CURVE",
"423 615 LINE"
);
},
{
closed = 1;
nodes = (
"501 1602 LINE",
"516 1690 OFFCURVE",
"589 1731 OFFCURVE",
"691 1731 CURVE SMOOTH",
"793 1731 OFFCURVE",
"872 1686 OFFCURVE",
"892 1602 CURVE",
"978 1602 LINE",
"965 1756 OFFCURVE",
"864 1838 OFFCURVE",
"698 1838 CURVE SMOOTH",
"527 1838 OFFCURVE",
"427 1762 OFFCURVE",
"414 1602 CURVE"
);
}
);
width = 1388;
}
);
unicode = 0202;
userData = {
org.pippin.gimp.org.kernagic = {
lstem = 0;
rstem = 0;
};
};
},
{
glyphname = uni0204;
lastChange = "2018-07-25 18:37:52 +0000";
layers = (
{
layerId = "2E262F32-97C5-4CC7-8265-2EAE7B11245A";
paths = (
{
closed = 1;
nodes = (
"1073 0 LINE",
"1073 138 LINE",
"350 138 LINE",
"350 732 LINE",
"985 732 LINE",
"985 870 LINE",
"350 870 LINE",
"350 1422 LINE",
"1023 1422 LINE",
"1023 1560 LINE",
"176 1560 LINE",
"176 0 LINE"
);
},
{
closed = 1;
nodes = (
"545 1631 LINE",
"331 1944 LINE",
"155 1944 LINE",
"430 1631 LINE"
);
},
{
closed = 1;
nodes = (
"811 1631 LINE",
"594 1944 LINE",
"424 1944 LINE",
"693 1631 LINE"
);
}
);
width = 1176;
}
);
unicode = 0204;
userData = {
org.pippin.gimp.org.kernagic = {
lstem = 0;
rstem = 0;
};
};
},
{
glyphname = uni0206;
lastChange = "2018-07-25 18:37:52 +0000";
layers = (
{
layerId = "2E262F32-97C5-4CC7-8265-2EAE7B11245A";
paths = (
{
closed = 1;
nodes = (
"1070 0 LINE",
"1070 138 LINE",
"347 138 LINE",
"347 732 LINE",
"982 732 LINE",
"982 870 LINE",
"347 870 LINE",
"347 1422 LINE",
"1020 1422 LINE",
"1020 1560 LINE",
"173 1560 LINE",
"173 0 LINE"
);
},
{
closed = 1;
nodes = (
"446 1602 LINE",
"461 1690 OFFCURVE",
"534 1731 OFFCURVE",
"636 1731 CURVE SMOOTH",
"738 1731 OFFCURVE",
"817 1686 OFFCURVE",
"837 1602 CURVE",
"923 1602 LINE",
"910 1756 OFFCURVE",
"809 1838 OFFCURVE",
"643 1838 CURVE SMOOTH",
"472 1838 OFFCURVE",
"372 1762 OFFCURVE",
"359 1602 CURVE"
);
}
);
width = 1176;
}
);
unicode = 0206;
userData = {
org.pippin.gimp.org.kernagic = {
lstem = 0;
rstem = 0;
};
};
},
{
glyphname = uni0208;
lastChange = "2018-07-25 18:37:52 +0000";
layers = (
{
layerId = "2E262F32-97C5-4CC7-8265-2EAE7B11245A";
paths = (
{
closed = 1;
nodes = (
"823 0 LINE",
"823 124 LINE",
"615 124 LINE",
"615 1436 LINE",
"823 1436 LINE",
"823 1560 LINE",
"233 1560 LINE",
"233 1436 LINE",
"441 1436 LINE",
"441 124 LINE",
"233 124 LINE",
"233 0 LINE"
);
},
{
closed = 1;
nodes = (
"478 1631 LINE",
"264 1944 LINE",
"88 1944 LINE",
"363 1631 LINE"
);
},
{
closed = 1;
nodes = (
"744 1631 LINE",
"527 1944 LINE",
"357 1944 LINE",
"626 1631 LINE"
);
}
);
width = 935;
}
);
unicode = 0208;
userData = {
org.pippin.gimp.org.kernagic = {
lstem = 0;
rstem = 0;
};
};
},
{
glyphname = uni020A;
lastChange = "2018-07-25 18:37:52 +0000";
layers = (
{
layerId = "2E262F32-97C5-4CC7-8265-2EAE7B11245A";
paths = (
{
closed = 1;
nodes = (
"769 0 LINE",
"769 124 LINE",
"561 124 LINE",
"561 1436 LINE",
"769 1436 LINE",
"769 1560 LINE",
"179 1560 LINE",
"179 1436 LINE",
"387 1436 LINE",
"387 124 LINE",
"179 124 LINE",
"179 0 LINE"
);
},
{
closed = 1;
nodes = (
"328 1602 LINE",
"343 1690 OFFCURVE",
"416 1731 OFFCURVE",
"518 1731 CURVE SMOOTH",
"620 1731 OFFCURVE",
"699 1686 OFFCURVE",
"719 1602 CURVE",
"805 1602 LINE",
"792 1756 OFFCURVE",
"691 1838 OFFCURVE",
"525 1838 CURVE SMOOTH",
"354 1838 OFFCURVE",
"254 1762 OFFCURVE",
"241 1602 CURVE"
);
}
);
width = 965;
}
);
unicode = 020A;
userData = {
org.pippin.gimp.org.kernagic = {
lstem = 0;
rstem = 0;
};
};
},
{
glyphname = uni020C;
lastChange = "2018-07-25 18:37:52 +0000";
layers = (
{
layerId = "2E262F32-97C5-4CC7-8265-2EAE7B11245A";
paths = (
{
closed = 1;
nodes = (
"1270 -24 OFFCURVE",
"1512 340 OFFCURVE",
"1512 782 CURVE SMOOTH",
"1512 1226 OFFCURVE",
"1270 1586 OFFCURVE",
"815 1586 CURVE SMOOTH",
"360 1586 OFFCURVE",
"118 1226 OFFCURVE",
"118 782 CURVE SMOOTH",
"118 340 OFFCURVE",
"360 -24 OFFCURVE",
"815 -24 CURVE SMOOTH"
);
},
{
closed = 1;
nodes = (
"528 126 OFFCURVE",
"302 353 OFFCURVE",
"302 782 CURVE SMOOTH",
"302 1211 OFFCURVE",
"528 1436 OFFCURVE",
"815 1436 CURVE SMOOTH",
"1102 1436 OFFCURVE",
"1328 1211 OFFCURVE",
"1328 782 CURVE SMOOTH",
"1328 353 OFFCURVE",
"1102 126 OFFCURVE",
"815 126 CURVE SMOOTH"
);
},
{
closed = 1;
nodes = (
"689 1631 LINE",
"475 1944 LINE",
"299 1944 LINE",
"574 1631 LINE"
);
},
{
closed = 1;
nodes = (
"955 1631 LINE",
"738 1944 LINE",
"568 1944 LINE",
"837 1631 LINE"
);
}
);
width = 1629;
}
);
unicode = 020C;
userData = {
org.pippin.gimp.org.kernagic = {
lstem = 0;
rstem = 0;
};
};
},
{
glyphname = uni020E;
lastChange = "2018-07-25 18:37:52 +0000";
layers = (
{
layerId = "2E262F32-97C5-4CC7-8265-2EAE7B11245A";
paths = (
{
closed = 1;
nodes = (
"1270 -24 OFFCURVE",
"1512 340 OFFCURVE",
"1512 782 CURVE SMOOTH",
"1512 1226 OFFCURVE",
"1270 1586 OFFCURVE",
"815 1586 CURVE SMOOTH",
"360 1586 OFFCURVE",
"118 1226 OFFCURVE",
"118 782 CURVE SMOOTH",
"118 340 OFFCURVE",
"360 -24 OFFCURVE",
"815 -24 CURVE SMOOTH"
);
},
{
closed = 1;
nodes = (
"528 126 OFFCURVE",
"302 353 OFFCURVE",
"302 782 CURVE SMOOTH",
"302 1211 OFFCURVE",
"528 1436 OFFCURVE",
"815 1436 CURVE SMOOTH",
"1102 1436 OFFCURVE",
"1328 1211 OFFCURVE",
"1328 782 CURVE SMOOTH",
"1328 353 OFFCURVE",
"1102 126 OFFCURVE",
"815 126 CURVE SMOOTH"
);
},
{
closed = 1;
nodes = (
"593 1602 LINE",
"608 1690 OFFCURVE",
"681 1731 OFFCURVE",
"783 1731 CURVE SMOOTH",
"885 1731 OFFCURVE",
"964 1686 OFFCURVE",
"984 1602 CURVE",
"1070 1602 LINE",
"1057 1756 OFFCURVE",
"956 1838 OFFCURVE",
"790 1838 CURVE SMOOTH",
"619 1838 OFFCURVE",
"519 1762 OFFCURVE",
"506 1602 CURVE"
);
}
);
width = 1629;
}
);
unicode = 020E;
userData = {
org.pippin.gimp.org.kernagic = {
lstem = 0;
rstem = 0;
};
};
},
{
glyphname = uni0210;
lastChange = "2018-07-25 18:37:52 +0000";
layers = (
{
layerId = "2E262F32-97C5-4CC7-8265-2EAE7B11245A";
paths = (
{
closed = 1;
nodes = (
"347 0 LINE",
"347 756 LINE",
"647 756 LINE",
"1025 0 LINE",
"1217 0 LINE",
"812 780 LINE",
"1058 833 OFFCURVE",
"1148 982 OFFCURVE",
"1148 1176 CURVE SMOOTH",
"1148 1508 OFFCURVE",
"900 1560 OFFCURVE",
"578 1560 CURVE SMOOTH",
"173 1560 LINE",
"173 0 LINE"
);
},
{
closed = 1;
nodes = (
"347 1422 LINE",
"667 1422 LINE SMOOTH",
"862 1422 OFFCURVE",
"977 1373 OFFCURVE",
"977 1162 CURVE SMOOTH",
"977 963 OFFCURVE",
"845 903 OFFCURVE",
"656 903 CURVE SMOOTH",
"347 903 LINE"
);
},
{
closed = 1;
nodes = (
"582 1631 LINE",
"368 1944 LINE",
"192 1944 LINE",
"467 1631 LINE"
);
},
{
closed = 1;
nodes = (
"848 1631 LINE",
"631 1944 LINE",
"461 1944 LINE",
"730 1631 LINE"
);
}
);
width = 1267;
}
);
unicode = 0210;
userData = {
org.pippin.gimp.org.kernagic = {
lstem = 0;
rstem = 0;
};
};
},
{
glyphname = uni0212;
lastChange = "2018-07-25 18:37:52 +0000";
layers = (
{
layerId = "2E262F32-97C5-4CC7-8265-2EAE7B11245A";
paths = (
{
closed = 1;
nodes = (
"347 0 LINE",
"347 756 LINE",
"647 756 LINE",
"1025 0 LINE",
"1217 0 LINE",
"812 780 LINE",
"1058 833 OFFCURVE",
"1148 982 OFFCURVE",
"1148 1176 CURVE SMOOTH",
"1148 1508 OFFCURVE",
"900 1560 OFFCURVE",
"578 1560 CURVE SMOOTH",
"173 1560 LINE",
"173 0 LINE"
);
},
{
closed = 1;
nodes = (
"347 1422 LINE",
"667 1422 LINE SMOOTH",
"862 1422 OFFCURVE",
"977 1373 OFFCURVE",
"977 1162 CURVE SMOOTH",
"977 963 OFFCURVE",
"845 903 OFFCURVE",
"656 903 CURVE SMOOTH",
"347 903 LINE"
);
},
{
closed = 1;
nodes = (
"486 1602 LINE",
"501 1690 OFFCURVE",
"574 1731 OFFCURVE",
"676 1731 CURVE SMOOTH",
"778 1731 OFFCURVE",
"857 1686 OFFCURVE",
"877 1602 CURVE",
"963 1602 LINE",
"950 1756 OFFCURVE",
"849 1838 OFFCURVE",
"683 1838 CURVE SMOOTH",
"512 1838 OFFCURVE",
"412 1762 OFFCURVE",
"399 1602 CURVE"
);
}
);
width = 1267;
}
);
unicode = 0212;
userData = {
org.pippin.gimp.org.kernagic = {
lstem = 0;
rstem = 0;
};
};
},
{
glyphname = uni0214;
lastChange = "2018-07-25 18:37:52 +0000";
layers = (
{
layerId = "2E262F32-97C5-4CC7-8265-2EAE7B11245A";
paths = (
{
closed = 1;
nodes = (
"1073 -24 OFFCURVE",
"1268 191 OFFCURVE",
"1270 551 CURVE",
"1270 1560 LINE",
"1097 1560 LINE",
"1097 539 LINE SMOOTH",
"1097 279 OFFCURVE",
"966 126 OFFCURVE",
"724 126 CURVE SMOOTH",
"463 126 OFFCURVE",
"331 260 OFFCURVE",
"331 546 CURVE SMOOTH",
"331 1560 LINE",
"157 1560 LINE",
"157 541 LINE SMOOTH",
"157 157 OFFCURVE",
"356 -24 OFFCURVE",
"725 -24 CURVE SMOOTH"
);
},
{
closed = 1;
nodes = (
"545 1631 LINE",
"331 1944 LINE",
"155 1944 LINE",
"430 1631 LINE"
);
},
{
closed = 1;
nodes = (
"811 1631 LINE",
"594 1944 LINE",
"424 1944 LINE",
"693 1631 LINE"
);
}
);
width = 1418;
}
);
unicode = 0214;
userData = {
org.pippin.gimp.org.kernagic = {
lstem = 0;
rstem = 0;
};
};
},
{
glyphname = uni0216;
lastChange = "2018-07-25 18:37:52 +0000";
layers = (
{
layerId = "2E262F32-97C5-4CC7-8265-2EAE7B11245A";
paths = (
{
closed = 1;
nodes = (
"1071 -24 OFFCURVE",
"1266 191 OFFCURVE",
"1268 551 CURVE",
"1268 1560 LINE",
"1095 1560 LINE",
"1095 539 LINE SMOOTH",
"1095 279 OFFCURVE",
"964 126 OFFCURVE",
"722 126 CURVE SMOOTH",
"461 126 OFFCURVE",
"329 260 OFFCURVE",
"329 546 CURVE SMOOTH",
"329 1560 LINE",
"155 1560 LINE",
"155 541 LINE SMOOTH",
"155 157 OFFCURVE",
"354 -24 OFFCURVE",
"723 -24 CURVE SMOOTH"
);
},
{
closed = 1;
nodes = (
"447 1602 LINE",
"462 1690 OFFCURVE",
"535 1731 OFFCURVE",
"637 1731 CURVE SMOOTH",
"739 1731 OFFCURVE",
"818 1686 OFFCURVE",
"838 1602 CURVE",
"924 1602 LINE",
"911 1756 OFFCURVE",
"810 1838 OFFCURVE",
"644 1838 CURVE SMOOTH",
"473 1838 OFFCURVE",
"373 1762 OFFCURVE",
"360 1602 CURVE"
);
}
);
width = 1418;
}
);
unicode = 0216;
userData = {
org.pippin.gimp.org.kernagic = {
lstem = 0;
rstem = 0;
};
};
},
{
glyphname = uni021A;
lastChange = "2018-07-25 18:37:52 +0000";
layers = (
{
layerId = "2E262F32-97C5-4CC7-8265-2EAE7B11245A";
paths = (
{
closed = 1;
nodes = (
"900 0 LINE",
"900 1422 LINE",
"1346 1422 LINE",
"1346 1560 LINE",
"275 1560 LINE",
"275 1422 LINE",
"726 1422 LINE",
"726 0 LINE"
);
},
{
closed = 1;
nodes = (
"810 -585 LINE",
"973 -122 LINE",
"786 -122 LINE",
"679 -585 LINE"
);
}
);
width = 1297;
}
);
unicode = 021A;
userData = {
org.pippin.gimp.org.kernagic = {
lstem = 0;
rstem = 0;
};
};
},
{
glyphname = uni1E02;
lastChange = "2018-07-25 18:37:52 +0000";
layers = (
{
layerId = "2E262F32-97C5-4CC7-8265-2EAE7B11245A";
paths = (
{
closed = 1;
nodes = (
"612 0 LINE SMOOTH",
"954 0 OFFCURVE",
"1187 122 OFFCURVE",
"1187 432 CURVE SMOOTH",
"1187 669 OFFCURVE",
"1067 782 OFFCURVE",
"866 824 CURVE",
"1028 882 OFFCURVE",
"1119 983 OFFCURVE",
"1119 1184 CURVE SMOOTH",
"1119 1454 OFFCURVE",
"935 1560 OFFCURVE",
"565 1560 CURVE SMOOTH",
"167 1560 LINE",
"167 0 LINE"
);
},
{
closed = 1;
nodes = (
"341 733 LINE",
"561 733 LINE SMOOTH",
"866 733 OFFCURVE",
"1005 645 OFFCURVE",
"1005 435 CURVE SMOOTH",
"1005 229 OFFCURVE",
"870 138 OFFCURVE",
"606 138 CURVE SMOOTH",
"341 138 LINE"
);
},
{
closed = 1;
nodes = (
"341 1422 LINE",
"565 1422 LINE SMOOTH",
"852 1422 OFFCURVE",
"940 1339 OFFCURVE",
"940 1154 CURVE SMOOTH",
"940 962 OFFCURVE",
"809 884 OFFCURVE",
"531 884 CURVE SMOOTH",
"341 884 LINE"
);
},
{
closed = 1;
nodes = (
"708 1752 LINE",
"708 1915 LINE",
"548 1915 LINE",
"548 1752 LINE"
);
}
);
width = 1297;
}
);
unicode = 1E02;
userData = {
org.pippin.gimp.org.kernagic = {
lstem = 0;
rstem = 0;
};
};
},
{
glyphname = uni1E0A;
lastChange = "2018-07-25 18:37:52 +0000";
layers = (
{
layerId = "2E262F32-97C5-4CC7-8265-2EAE7B11245A";
paths = (
{
closed = 1;
nodes = (
"585 0 LINE SMOOTH",
"1051 0 OFFCURVE",
"1375 295 OFFCURVE",
"1375 778 CURVE SMOOTH",
"1375 1327 OFFCURVE",
"1024 1560 OFFCURVE",
"498 1560 CURVE SMOOTH",
"173 1560 LINE",
"173 0 LINE"
);
},
{
closed = 1;
nodes = (
"347 1422 LINE",
"502 1422 LINE SMOOTH",
"934 1422 OFFCURVE",
"1193 1232 OFFCURVE",
"1193 775 CURVE SMOOTH",
"1193 388 OFFCURVE",
"966 138 OFFCURVE",
"596 138 CURVE SMOOTH",
"347 138 LINE"
);
},
{
closed = 1;
nodes = (
"714 1752 LINE",
"714 1915 LINE",
"554 1915 LINE",
"554 1752 LINE"
);
}
);
width = 1508;
}
);
unicode = 1E0A;
userData = {
org.pippin.gimp.org.kernagic = {
lstem = 0;
rstem = 0;
};
};
},
{
glyphname = uni1E1E;
lastChange = "2018-07-25 18:37:52 +0000";
layers = (
{
layerId = "2E262F32-97C5-4CC7-8265-2EAE7B11245A";
paths = (
{
closed = 1;
nodes = (
"353 0 LINE",
"353 777 LINE",
"971 777 LINE",
"971 925 LINE",
"353 925 LINE",
"353 1422 LINE",
"1005 1422 LINE",
"1005 1560 LINE",
"179 1560 LINE",
"179 0 LINE"
);
},
{
closed = 1;
nodes = (
"720 1752 LINE",
"720 1915 LINE",
"560 1915 LINE",
"560 1752 LINE"
);
}
);
width = 1146;
}
);
unicode = 1E1E;
userData = {
org.pippin.gimp.org.kernagic = {
lstem = 0;
rstem = 0;
};
};
},
{
glyphname = uni1E40;
lastChange = "2018-07-25 18:37:52 +0000";
layers = (
{
layerId = "2E262F32-97C5-4CC7-8265-2EAE7B11245A";
paths = (
{
closed = 1;
nodes = (
"346 0 LINE",
"346 1350 LINE",
"416 1190 LINE",
"890 220 LINE",
"1011 220 LINE",
"1194 591 OFFCURVE",
"1375 964 OFFCURVE",
"1560 1333 CURVE",
"1560 0 LINE",
"1725 0 LINE",
"1725 1560 LINE",
"1513 1560 LINE",
"1327 1179 OFFCURVE",
"1133 806 OFFCURVE",
"953 420 CURVE",
"772 802 OFFCURVE",
"588 1180 OFFCURVE",
"405 1560 CURVE",
"179 1560 LINE",
"179 0 LINE"
);
},
{
closed = 1;
nodes = (
"990 1752 LINE",
"990 1915 LINE",
"830 1915 LINE",
"830 1752 LINE"
);
}
);
width = 1901;
}
);
unicode = 1E40;
userData = {
org.pippin.gimp.org.kernagic = {
lstem = 0;
rstem = 0;
};
};
},
{
glyphname = uni1E56;
lastChange = "2018-07-25 18:37:52 +0000";
layers = (
{
layerId = "2E262F32-97C5-4CC7-8265-2EAE7B11245A";
paths = (
{
closed = 1;
nodes = (
"353 0 LINE",
"353 691 LINE",
"602 691 LINE SMOOTH",
"972 691 OFFCURVE",
"1150 838 OFFCURVE",
"1150 1124 CURVE SMOOTH",
"1150 1420 OFFCURVE",
"993 1560 OFFCURVE",
"578 1560 CURVE SMOOTH",
"179 1560 LINE",
"179 0 LINE"
);
},
{
closed = 1;
nodes = (
"353 1422 LINE",
"601 1422 LINE SMOOTH",
"880 1422 OFFCURVE",
"966 1326 OFFCURVE",
"966 1122 CURVE SMOOTH",
"966 936 OFFCURVE",
"862 840 OFFCURVE",
"621 840 CURVE SMOOTH",
"353 840 LINE"
);
},
{
closed = 1;
nodes = (
"720 1752 LINE",
"720 1915 LINE",
"560 1915 LINE",
"560 1752 LINE"
);
}
);
width = 1267;
}
);
unicode = 1E56;
userData = {
org.pippin.gimp.org.kernagic = {
lstem = 0;
rstem = 0;
};
};
},
{
glyphname = uni1E60;
lastChange = "2018-07-25 18:37:52 +0000";
layers = (
{
layerId = "2E262F32-97C5-4CC7-8265-2EAE7B11245A";
paths = (
{
closed = 1;
nodes = (
"851 -24 OFFCURVE",
"1018 158 OFFCURVE",
"1018 420 CURVE SMOOTH",
"1018 636 OFFCURVE",
"933 771 OFFCURVE",
"598 885 CURVE SMOOTH",
"345 972 OFFCURVE",
"279 1034 OFFCURVE",
"279 1180 CURVE SMOOTH",
"279 1184 OFFCURVE",
"280 1189 OFFCURVE",
"280 1194 CURVE SMOOTH",
"283 1348 OFFCURVE",
"402 1436 OFFCURVE",
"583 1436 CURVE SMOOTH",
"708 1436 OFFCURVE",
"828 1373 OFFCURVE",
"910 1310 CURVE",
"976 1444 LINE",
"870 1527 OFFCURVE",
"736 1586 OFFCURVE",
"563 1586 CURVE SMOOTH",
"307 1586 OFFCURVE",
"108 1442 OFFCURVE",
"106 1184 CURVE",
"106 1178 LINE SMOOTH",
"106 946 OFFCURVE",
"218 829 OFFCURVE",
"498 735 CURVE SMOOTH",
"798 634 OFFCURVE",
"849 553 OFFCURVE",
"849 423 CURVE SMOOTH",
"849 249 OFFCURVE",
"751 126 OFFCURVE",
"567 126 CURVE SMOOTH",
"422 126 OFFCURVE",
"254 208 OFFCURVE",
"161 290 CURVE",
"110 139 LINE",
"201 65 OFFCURVE",
"381 -24 OFFCURVE",
"571 -24 CURVE SMOOTH"
);
},
{
closed = 1;
nodes = (
"642 1752 LINE",
"642 1915 LINE",
"482 1915 LINE",
"482 1752 LINE"
);
}
);
width = 1146;
}
);
unicode = 1E60;
userData = {
org.pippin.gimp.org.kernagic = {
lstem = 0;
rstem = 0;
};
};
},
{
glyphname = uni1E6A;
lastChange = "2018-07-25 18:37:52 +0000";
layers = (
{
layerId = "2E262F32-97C5-4CC7-8265-2EAE7B11245A";
paths = (
{
closed = 1;
nodes = (
"900 0 LINE",
"900 1422 LINE",
"1346 1422 LINE",
"1346 1560 LINE",
"275 1560 LINE",
"275 1422 LINE",
"726 1422 LINE",
"726 0 LINE"
);
},
{
closed = 1;
nodes = (
"867 1752 LINE",
"867 1915 LINE",
"707 1915 LINE",
"707 1752 LINE"
);
}
);
width = 1297;
}
);
unicode = 1E6A;
userData = {
org.pippin.gimp.org.kernagic = {
lstem = 0;
rstem = 0;
};
};
},
{
glyphname = a;
lastChange = "2018-07-25 18:37:52 +0000";
layers = (
{
layerId = "2E262F32-97C5-4CC7-8265-2EAE7B11245A";
paths = (
{
closed = 1;
nodes = (
"652 -22 OFFCURVE",
"732 45 OFFCURVE",
"788 144 CURVE",
"828 -100 OFFCURVE",
"1121 -16.907 OFFCURVE",
"1189 33 CURVE",
"1167 148 LINE",
"1119 126 OFFCURVE",
"953 38 OFFCURVE",
"953 241 CURVE SMOOTH",
"953 976 LINE",
"875 1017 OFFCURVE",
"761 1052 OFFCURVE",
"634 1052 CURVE SMOOTH",
"238 1052 OFFCURVE",
"73 744 OFFCURVE",
"73 467 CURVE SMOOTH",
"73 208 OFFCURVE",
"215 -22 OFFCURVE",
"504 -22 CURVE SMOOTH"
);
},
{
closed = 1;
nodes = (
"323 109.893 OFFCURVE",
"247 271 OFFCURVE",
"247 457 CURVE SMOOTH",
"247 674 OFFCURVE",
"356 920.286 OFFCURVE",
"604 920.286 CURVE SMOOTH",
"678 920.286 OFFCURVE",
"741 907.425 OFFCURVE",
"783 894 CURVE",
"783 453 LINE SMOOTH",
"783 258.03 OFFCURVE",
"705 109.893 OFFCURVE",
"513 109.893 CURVE SMOOTH"
);
}
);
width = 1146;
}
);
unicode = 0061;
userData = {
com.typemytype.robofont.layerData = {
};
org.pippin.gimp.org.kernagic = {
lstem = 0;
rstem = 0;
};
};
},
{
glyphname = aacute;
lastChange = "2018-07-25 18:37:52 +0000";
layers = (
{
layerId = "2E262F32-97C5-4CC7-8265-2EAE7B11245A";
paths = (
{
closed = 1;
nodes = (
"660 -22 OFFCURVE",
"740 45.375 OFFCURVE",
"796 143.635 CURVE",
"837 -100.689 OFFCURVE",
"1129 -16.907 OFFCURVE",
"1197 33 CURVE",
"1175 146 LINE",
"1127 124 OFFCURVE",
"961 41 OFFCURVE",
"961 241 CURVE SMOOTH",
"961 976 LINE",
"883 1017 OFFCURVE",
"769 1052 OFFCURVE",
"642 1052 CURVE SMOOTH",
"246 1052 OFFCURVE",
"73 752.235 OFFCURVE",
"73 475.063 CURVE SMOOTH",
"73 215.836 OFFCURVE",
"223 -22 OFFCURVE",
"512 -22 CURVE SMOOTH"
);
},
{
closed = 1;
nodes = (
"331 109.893 OFFCURVE",
"247 278.577 OFFCURVE",
"247 465.131 CURVE SMOOTH",
"247 681.548 OFFCURVE",
"364 920.286 OFFCURVE",
"612 920.286 CURVE SMOOTH",
"686 920.286 OFFCURVE",
"749 907.425 OFFCURVE",
"791 894 CURVE",
"791 453 LINE SMOOTH",
"791 258.03 OFFCURVE",
"713 109.893 OFFCURVE",
"521 109.893 CURVE SMOOTH"
);
},
{
closed = 1;
nodes = (
"702 1211 LINE",
"1010 1531 LINE",
"798 1531 LINE",
"572 1211 LINE"
);
}
);
width = 1146;
}
);
unicode = 00E1;
userData = {
org.pippin.gimp.org.kernagic = {
lstem = 0;
rstem = 0;
};
};
},
{
glyphname = abreve;
lastChange = "2018-07-25 18:37:52 +0000";
layers = (
{
layerId = "2E262F32-97C5-4CC7-8265-2EAE7B11245A";
paths = (
{
closed = 1;
nodes = (
"660 -22 OFFCURVE",
"740 45.375 OFFCURVE",
"796 143.635 CURVE",
"837 -100.689 OFFCURVE",
"1129 -16.907 OFFCURVE",
"1197 33 CURVE",
"1175 146 LINE",
"1127 124 OFFCURVE",
"961 41 OFFCURVE",
"961 241 CURVE SMOOTH",
"961 976 LINE",
"883 1017 OFFCURVE",
"769 1052 OFFCURVE",
"642 1052 CURVE SMOOTH",
"246 1052 OFFCURVE",
"73 752.235 OFFCURVE",
"73 475.063 CURVE SMOOTH",
"73 215.836 OFFCURVE",
"223 -22 OFFCURVE",
"512 -22 CURVE SMOOTH"
);
},
{
closed = 1;
nodes = (
"331 109.893 OFFCURVE",
"247 278.577 OFFCURVE",
"247 465.131 CURVE SMOOTH",
"247 681.548 OFFCURVE",
"364 920.286 OFFCURVE",
"612 920.286 CURVE SMOOTH",
"686 920.286 OFFCURVE",
"749 907.425 OFFCURVE",
"791 894 CURVE",
"791 453 LINE SMOOTH",
"791 258.03 OFFCURVE",
"713 109.893 OFFCURVE",
"521 109.893 CURVE SMOOTH"
);
},
{
closed = 1;
nodes = (
"754 1298 OFFCURVE",
"869 1376 OFFCURVE",
"882 1533 CURVE",
"796 1533 LINE",
"776 1448 OFFCURVE",
"704 1404 OFFCURVE",
"634 1404 CURVE SMOOTH",
"566 1404 OFFCURVE",
"500 1446 OFFCURVE",
"485 1533 CURVE",
"398 1533 LINE",
"411 1376 OFFCURVE",
"525 1298 OFFCURVE",
"639 1298 CURVE SMOOTH"
);
}
);
width = 1146;
}
);
unicode = 0103;
userData = {
org.pippin.gimp.org.kernagic = {
lstem = 0;
rstem = 0;
};
};
},
{
glyphname = acircumflex;
lastChange = "2018-07-25 18:37:52 +0000";
layers = (
{
layerId = "2E262F32-97C5-4CC7-8265-2EAE7B11245A";
paths = (
{
closed = 1;
nodes = (
"660 -22 OFFCURVE",
"740 45.375 OFFCURVE",
"796 143.635 CURVE",
"837 -100.689 OFFCURVE",
"1129 -16.907 OFFCURVE",
"1197 33 CURVE",
"1175 146 LINE",
"1127 124 OFFCURVE",
"961 41 OFFCURVE",
"961 241 CURVE SMOOTH",
"961 976 LINE",
"883 1017 OFFCURVE",
"769 1052 OFFCURVE",
"642 1052 CURVE SMOOTH",
"246 1052 OFFCURVE",
"73 752.235 OFFCURVE",
"73 475.063 CURVE SMOOTH",
"73 215.836 OFFCURVE",
"223 -22 OFFCURVE",
"512 -22 CURVE SMOOTH"
);
},
{
closed = 1;
nodes = (
"331 109.893 OFFCURVE",
"247 278.577 OFFCURVE",
"247 465.131 CURVE SMOOTH",
"247 681.548 OFFCURVE",
"364 920.286 OFFCURVE",
"612 920.286 CURVE SMOOTH",
"686 920.286 OFFCURVE",
"749 907.425 OFFCURVE",
"791 894 CURVE",
"791 453 LINE SMOOTH",
"791 258.03 OFFCURVE",
"713 109.893 OFFCURVE",
"521 109.893 CURVE SMOOTH"
);
},
{
closed = 1;
nodes = (
"459 1230 LINE",
"637 1446 LINE",
"815 1230 LINE",
"947 1230 LINE",
"718 1554 LINE",
"561 1554 LINE",
"333 1230 LINE"
);
}
);
width = 1146;
}
);
unicode = 00E2;
userData = {
org.pippin.gimp.org.kernagic = {
lstem = 0;
rstem = 0;
};
};
},
{
glyphname = adieresis;
lastChange = "2018-07-25 18:37:52 +0000";
layers = (
{
layerId = "2E262F32-97C5-4CC7-8265-2EAE7B11245A";
paths = (
{
closed = 1;
nodes = (
"660 -22 OFFCURVE",
"740 45.375 OFFCURVE",
"796 143.635 CURVE",
"837 -100.689 OFFCURVE",
"1129 -16.907 OFFCURVE",
"1197 33 CURVE",
"1175 146 LINE",
"1127 124 OFFCURVE",
"961 41 OFFCURVE",
"961 241 CURVE SMOOTH",
"961 976 LINE",
"883 1017 OFFCURVE",
"769 1052 OFFCURVE",
"642 1052 CURVE SMOOTH",
"246 1052 OFFCURVE",
"73 752.235 OFFCURVE",
"73 475.063 CURVE SMOOTH",
"73 215.836 OFFCURVE",
"223 -22 OFFCURVE",
"512 -22 CURVE SMOOTH"
);
},
{
closed = 1;
nodes = (
"331 109.893 OFFCURVE",
"247 278.577 OFFCURVE",
"247 465.131 CURVE SMOOTH",
"247 681.548 OFFCURVE",
"364 920.286 OFFCURVE",
"612 920.286 CURVE SMOOTH",
"686 920.286 OFFCURVE",
"749 907.425 OFFCURVE",
"791 894 CURVE",
"791 453 LINE SMOOTH",
"791 258.03 OFFCURVE",
"713 109.893 OFFCURVE",
"521 109.893 CURVE SMOOTH"
);
},
{
closed = 1;
nodes = (
"533 1251 OFFCURVE",
"570 1288 OFFCURVE",
"570 1333 CURVE SMOOTH",
"570 1357 LINE SMOOTH",
"570 1402 OFFCURVE",
"533 1439 OFFCURVE",
"488 1439 CURVE SMOOTH",
"443 1439 OFFCURVE",
"406 1402 OFFCURVE",
"406 1357 CURVE SMOOTH",
"406 1333 LINE SMOOTH",
"406 1288 OFFCURVE",
"443 1251 OFFCURVE",
"488 1251 CURVE SMOOTH"
);
},
{
closed = 1;
nodes = (
"865 1251 OFFCURVE",
"902 1288 OFFCURVE",
"902 1333 CURVE SMOOTH",
"902 1357 LINE SMOOTH",
"902 1402 OFFCURVE",
"865 1439 OFFCURVE",
"820 1439 CURVE SMOOTH",
"775 1439 OFFCURVE",
"738 1402 OFFCURVE",
"738 1357 CURVE SMOOTH",
"738 1333 LINE SMOOTH",
"738 1288 OFFCURVE",
"775 1251 OFFCURVE",
"820 1251 CURVE SMOOTH"
);
}
);
width = 1146;
}
);
unicode = 00E4;
userData = {
org.pippin.gimp.org.kernagic = {
lstem = 0;
rstem = 0;
};
};
},
{
glyphname = agrave;
lastChange = "2018-07-25 18:37:52 +0000";
layers = (
{
layerId = "2E262F32-97C5-4CC7-8265-2EAE7B11245A";
paths = (
{
closed = 1;
nodes = (
"660 -22 OFFCURVE",
"740 45.375 OFFCURVE",
"796 143.635 CURVE",
"837 -100.689 OFFCURVE",
"1129 -16.907 OFFCURVE",
"1197 33 CURVE",
"1175 146 LINE",
"1127 124 OFFCURVE",
"961 41 OFFCURVE",
"961 241 CURVE SMOOTH",
"961 976 LINE",
"883 1017 OFFCURVE",
"769 1052 OFFCURVE",
"642 1052 CURVE SMOOTH",
"246 1052 OFFCURVE",
"73 752.235 OFFCURVE",
"73 475.063 CURVE SMOOTH",
"73 215.836 OFFCURVE",
"223 -22 OFFCURVE",
"512 -22 CURVE SMOOTH"
);
},
{
closed = 1;
nodes = (
"331 109.893 OFFCURVE",
"247 278.577 OFFCURVE",
"247 465.131 CURVE SMOOTH",
"247 681.548 OFFCURVE",
"364 920.286 OFFCURVE",
"612 920.286 CURVE SMOOTH",
"686 920.286 OFFCURVE",
"749 907.425 OFFCURVE",
"791 894 CURVE",
"791 453 LINE SMOOTH",
"791 258.03 OFFCURVE",
"713 109.893 OFFCURVE",
"521 109.893 CURVE SMOOTH"
);
},
{
closed = 1;
nodes = (
"719 1235 LINE",
"472 1555 LINE",
"258 1555 LINE",
"590 1235 LINE"
);
}
);
width = 1146;
}
);
unicode = 00E0;
userData = {
org.pippin.gimp.org.kernagic = {
lstem = 0;
rstem = 0;
};
};
},
{
glyphname = amacron;
lastChange = "2018-07-25 18:37:52 +0000";
layers = (
{
layerId = "2E262F32-97C5-4CC7-8265-2EAE7B11245A";
paths = (
{
closed = 1;
nodes = (
"660 -22 OFFCURVE",
"740 45.375 OFFCURVE",
"796 143.635 CURVE",
"837 -100.689 OFFCURVE",
"1129 -16.907 OFFCURVE",
"1197 33 CURVE",
"1175 146 LINE",
"1127 124 OFFCURVE",
"961 41 OFFCURVE",
"961 241 CURVE SMOOTH",
"961 976 LINE",
"883 1017 OFFCURVE",
"769 1052 OFFCURVE",
"642 1052 CURVE SMOOTH",
"246 1052 OFFCURVE",
"73 752.235 OFFCURVE",
"73 475.063 CURVE SMOOTH",
"73 215.836 OFFCURVE",
"223 -22 OFFCURVE",
"512 -22 CURVE SMOOTH"
);
},
{
closed = 1;
nodes = (
"331 109.893 OFFCURVE",
"247 278.577 OFFCURVE",
"247 465.131 CURVE SMOOTH",
"247 681.548 OFFCURVE",
"364 920.286 OFFCURVE",
"612 920.286 CURVE SMOOTH",
"686 920.286 OFFCURVE",
"749 907.425 OFFCURVE",
"791 894 CURVE",
"791 453 LINE SMOOTH",
"791 258.03 OFFCURVE",
"713 109.893 OFFCURVE",
"521 109.893 CURVE SMOOTH"
);
},
{
closed = 1;
nodes = (
"931 1293 LINE",
"931 1427 LINE",
"359 1427 LINE",
"359 1293 LINE"
);
}
);
width = 1146;
}
);
unicode = 0101;
userData = {
org.pippin.gimp.org.kernagic = {
lstem = 0;
rstem = 0;
};
};
},
{
glyphname = aogonek;
lastChange = "2018-07-25 18:37:52 +0000";
layers = (
{
layerId = "2E262F32-97C5-4CC7-8265-2EAE7B11245A";
paths = (
{
closed = 1;
nodes = (
"993 -390 OFFCURVE",
"1060 -380 OFFCURVE",
"1106 -361 CURVE",
"1106 -250 LINE",
"1060 -268 OFFCURVE",
"1016 -281 OFFCURVE",
"952 -281 CURVE SMOOTH",
"901 -281 OFFCURVE",
"852 -250 OFFCURVE",
"852 -199 CURVE SMOOTH",
"852 -128 OFFCURVE",
"939 -69.744 OFFCURVE",
"1019 -21.638 CURVE",
"1094 -17.134 OFFCURVE",
"1167 11.173 OFFCURVE",
"1197 33 CURVE",
"1175 146 LINE",
"1127 124 OFFCURVE",
"961 41 OFFCURVE",
"961 241 CURVE SMOOTH",
"961 976 LINE",
"883 1017 OFFCURVE",
"769 1052 OFFCURVE",
"642 1052 CURVE SMOOTH",
"246 1052 OFFCURVE",
"73 752.235 OFFCURVE",
"73 475.063 CURVE SMOOTH",
"73 215.836 OFFCURVE",
"223 -22 OFFCURVE",
"512 -22 CURVE SMOOTH",
"660 -22 OFFCURVE",
"740 45.375 OFFCURVE",
"796 143.635 CURVE",
"809 65.417 OFFCURVE",
"848 20.827 OFFCURVE",
"897 -2.013 CURVE",
"805 -47.528 OFFCURVE",
"711 -109.302 OFFCURVE",
"711 -225 CURVE SMOOTH",
"711 -335 OFFCURVE",
"804 -390 OFFCURVE",
"929 -390 CURVE SMOOTH"
);
},
{
closed = 1;
nodes = (
"331 109.893 OFFCURVE",
"247 278.577 OFFCURVE",
"247 465.131 CURVE SMOOTH",
"247 681.548 OFFCURVE",
"364 920.286 OFFCURVE",
"612 920.286 CURVE SMOOTH",
"686 920.286 OFFCURVE",
"749 907.425 OFFCURVE",
"791 894 CURVE",
"791 453 LINE SMOOTH",
"791 258.03 OFFCURVE",
"713 109.893 OFFCURVE",
"521 109.893 CURVE SMOOTH"
);
}
);
width = 1146;
}
);
unicode = 0105;
userData = {
org.pippin.gimp.org.kernagic = {
lstem = 0;
rstem = 0;
};
};
},
{
glyphname = aring;
lastChange = "2018-07-25 18:37:52 +0000";
layers = (
{
layerId = "2E262F32-97C5-4CC7-8265-2EAE7B11245A";
paths = (
{
closed = 1;
nodes = (
"660 -22 OFFCURVE",
"740 45.375 OFFCURVE",
"796 143.635 CURVE",
"837 -100.689 OFFCURVE",
"1129 -16.907 OFFCURVE",
"1197 33 CURVE",
"1175 146 LINE",
"1127 124 OFFCURVE",
"961 41 OFFCURVE",
"961 241 CURVE SMOOTH",
"961 976 LINE",
"883 1017 OFFCURVE",
"769 1052 OFFCURVE",
"642 1052 CURVE SMOOTH",
"246 1052 OFFCURVE",
"73 752.235 OFFCURVE",
"73 475.063 CURVE SMOOTH",
"73 215.836 OFFCURVE",
"223 -22 OFFCURVE",
"512 -22 CURVE SMOOTH"
);
},
{
closed = 1;
nodes = (
"331 109.893 OFFCURVE",
"247 278.577 OFFCURVE",
"247 465.131 CURVE SMOOTH",
"247 681.548 OFFCURVE",
"364 920.286 OFFCURVE",
"612 920.286 CURVE SMOOTH",
"686 920.286 OFFCURVE",
"749 907.425 OFFCURVE",
"791 894 CURVE",
"791 453 LINE SMOOTH",
"791 258.03 OFFCURVE",
"713 109.893 OFFCURVE",
"521 109.893 CURVE SMOOTH"
);
},
{
closed = 1;
nodes = (
"740 1091 OFFCURVE",
"825 1166 OFFCURVE",
"825 1271 CURVE SMOOTH",
"825 1375 OFFCURVE",
"740 1451 OFFCURVE",
"635 1451 CURVE SMOOTH",
"531 1451 OFFCURVE",
"445 1375 OFFCURVE",
"445 1271 CURVE SMOOTH",
"445 1166 OFFCURVE",
"531 1091 OFFCURVE",
"635 1091 CURVE SMOOTH"
);
},
{
closed = 1;
nodes = (
"577 1166 OFFCURVE",
"534 1214 OFFCURVE",
"534 1272 CURVE SMOOTH",
"534 1329 OFFCURVE",
"577 1377 OFFCURVE",
"635 1377 CURVE SMOOTH",
"692 1377 OFFCURVE",
"736 1329 OFFCURVE",
"736 1272 CURVE SMOOTH",
"736 1214 OFFCURVE",
"692 1166 OFFCURVE",
"635 1166 CURVE SMOOTH"
);
}
);
width = 1146;
}
);
unicode = 00E5;
userData = {
org.pippin.gimp.org.kernagic = {
lstem = 0;
rstem = 0;
};
};
},
{
glyphname = atilde;
lastChange = "2018-07-25 18:37:52 +0000";
layers = (
{
layerId = "2E262F32-97C5-4CC7-8265-2EAE7B11245A";
paths = (
{
closed = 1;
nodes = (
"660 -22 OFFCURVE",
"740 45.375 OFFCURVE",
"796 143.635 CURVE",
"837 -100.689 OFFCURVE",
"1129 -16.907 OFFCURVE",
"1197 33 CURVE",
"1175 146 LINE",
"1127 124 OFFCURVE",
"961 41 OFFCURVE",
"961 241 CURVE SMOOTH",
"961 976 LINE",
"883 1017 OFFCURVE",
"769 1052 OFFCURVE",
"642 1052 CURVE SMOOTH",
"246 1052 OFFCURVE",
"73 752.235 OFFCURVE",
"73 475.063 CURVE SMOOTH",
"73 215.836 OFFCURVE",
"223 -22 OFFCURVE",
"512 -22 CURVE SMOOTH"
);
},
{
closed = 1;
nodes = (
"331 109.893 OFFCURVE",
"247 278.577 OFFCURVE",
"247 465.131 CURVE SMOOTH",
"247 681.548 OFFCURVE",
"364 920.286 OFFCURVE",
"612 920.286 CURVE SMOOTH",
"686 920.286 OFFCURVE",
"749 907.425 OFFCURVE",
"791 894 CURVE",
"791 453 LINE SMOOTH",
"791 258.03 OFFCURVE",
"713 109.893 OFFCURVE",
"521 109.893 CURVE SMOOTH"
);
},
{
closed = 1;
nodes = (
"463 1234 LINE",
"470 1287 OFFCURVE",
"479 1326 OFFCURVE",
"524 1326 CURVE SMOOTH",
"600 1326 OFFCURVE",
"646 1235 OFFCURVE",
"747 1235 CURVE SMOOTH",
"871 1235 OFFCURVE",
"929 1343 OFFCURVE",
"942 1456 CURVE",
"834 1456 LINE",
"827 1407 OFFCURVE",
"820 1360 OFFCURVE",
"774 1360 CURVE SMOOTH",
"722 1360 OFFCURVE",
"664 1450 OFFCURVE",
"557 1450 CURVE SMOOTH",
"433 1450 OFFCURVE",
"368 1350 OFFCURVE",
"358 1234 CURVE"
);
}
);
width = 1146;
}
);
unicode = 00E3;
userData = {
org.pippin.gimp.org.kernagic = {
lstem = 0;
rstem = 0;
};
};
},
{
glyphname = ae;
lastChange = "2018-07-25 18:37:52 +0000";
layers = (
{
layerId = "2E262F32-97C5-4CC7-8265-2EAE7B11245A";
paths = (
{
closed = 1;
nodes = (
"593 -22 OFFCURVE",
"716 87 OFFCURVE",
"786 213 CURVE",
"861 61 OFFCURVE",
"1000 -22 OFFCURVE",
"1180 -22 CURVE SMOOTH",
"1336 -22 OFFCURVE",
"1446 25 OFFCURVE",
"1566 122 CURVE",
"1498 232 LINE",
"1433 179 OFFCURVE",
"1342 114 OFFCURVE",
"1191 114 CURVE SMOOTH",
"1007 114 OFFCURVE",
"879 233 OFFCURVE",
"855 445 CURVE",
"1187 445 OFFCURVE",
"1525 510 OFFCURVE",
"1525 755 CURVE SMOOTH",
"1525 922 OFFCURVE",
"1388 1052 OFFCURVE",
"1181 1052 CURVE SMOOTH",
"1002 1052 OFFCURVE",
"879 972 OFFCURVE",
"807 849 CURVE",
"754 976 OFFCURVE",
"626 1052 OFFCURVE",
"475 1052 CURVE SMOOTH",
"328 1052 OFFCURVE",
"207 1021 OFFCURVE",
"64 908 CURVE",
"132 798 LINE",
"243 898 OFFCURVE",
"356 916 OFFCURVE",
"465 916 CURVE SMOOTH",
"601 916 OFFCURVE",
"707 831 OFFCURVE",
"707 632 CURVE SMOOTH",
"707 609 LINE",
"672 609 LINE SMOOTH",
"354 609 OFFCURVE",
"25 603 OFFCURVE",
"25 286 CURVE SMOOTH",
"25 96 OFFCURVE",
"166 -22 OFFCURVE",
"385 -22 CURVE SMOOTH"
);
},
{
closed = 1;
nodes = (
"281 114 OFFCURVE",
"194 167 OFFCURVE",
"194 294 CURVE SMOOTH",
"194 465 OFFCURVE",
"386 485 OFFCURVE",
"571 490 CURVE SMOOTH",
"709 493 LINE",
"709 276 OFFCURVE",
"628 114 OFFCURVE",
"408 114 CURVE SMOOTH"
);
},
{
closed = 1;
nodes = (
"867 794 OFFCURVE",
"1016 916 OFFCURVE",
"1182 916 CURVE SMOOTH",
"1297 916 OFFCURVE",
"1362 852 OFFCURVE",
"1362 758 CURVE SMOOTH",
"1362 597 OFFCURVE",
"1086 566 OFFCURVE",
"853 566 CURVE"
);
}
);
width = 1569;
}
);
unicode = 00E6;
userData = {
org.pippin.gimp.org.kernagic = {
lstem = 0;
rstem = 0;
};
};
},
{
glyphname = b;
lastChange = "2018-07-25 18:37:52 +0000";
layers = (
{
layerId = "2E262F32-97C5-4CC7-8265-2EAE7B11245A";
paths = (
{
closed = 1;
nodes = (
"835 -22 OFFCURVE",
"1030 215 OFFCURVE",
"1030 545 CURVE SMOOTH",
"1030 865 OFFCURVE",
"850 1052 OFFCURVE",
"627 1052 CURVE SMOOTH",
"492 1052 OFFCURVE",
"383 1013 OFFCURVE",
"291 879 CURVE",
"291 1560 LINE",
"121 1560 LINE",
"121 71 LINE",
"121 71 OFFCURVE",
"298 -22 OFFCURVE",
"531 -22 CURVE SMOOTH"
);
},
{
closed = 1;
nodes = (
"374 114 OFFCURVE",
"291 151 OFFCURVE",
"291 151 CURVE",
"291 538 LINE SMOOTH",
"291 728 OFFCURVE",
"385 920 OFFCURVE",
"598 920 CURVE SMOOTH",
"740 920 OFFCURVE",
"856 793 OFFCURVE",
"856 550 CURVE SMOOTH",
"856 309 OFFCURVE",
"746 114 OFFCURVE",
"522 114 CURVE SMOOTH"
);
}
);
width = 1116;
}
);
unicode = 0062;
userData = {
org.pippin.gimp.org.kernagic = {
lstem = 0;
rstem = 0;
};
};
},
{
glyphname = c;
lastChange = "2018-07-25 18:37:52 +0000";
layers = (
{
layerId = "2E262F32-97C5-4CC7-8265-2EAE7B11245A";
paths = (
{
closed = 1;
nodes = (
"705 -22 OFFCURVE",
"831 10 OFFCURVE",
"934 78 CURVE",
"884 200 LINE",
"800 144 OFFCURVE",
"716 110 OFFCURVE",
"599 110 CURVE SMOOTH",
"418 110 OFFCURVE",
"265 241 OFFCURVE",
"265 510 CURVE SMOOTH",
"265 778 OFFCURVE",
"406 925 OFFCURVE",
"612 920 CURVE SMOOTH",
"699 917.86 OFFCURVE",
"798 884 OFFCURVE",
"884 826 CURVE",
"933 952 LINE",
"827 1020 OFFCURVE",
"712 1052 OFFCURVE",
"603 1052 CURVE SMOOTH",
"308 1052 OFFCURVE",
"91 853 OFFCURVE",
"91 511 CURVE SMOOTH",
"91 180 OFFCURVE",
"313 -22 OFFCURVE",
"594 -22 CURVE SMOOTH"
);
}
);
width = 1026;
}
);
unicode = 0063;
userData = {
org.pippin.gimp.org.kernagic = {
lstem = 0;
rstem = 690;
};
};
},
{
glyphname = cacute;
lastChange = "2018-07-25 18:37:52 +0000";
layers = (
{
layerId = "2E262F32-97C5-4CC7-8265-2EAE7B11245A";
paths = (
{
closed = 1;
nodes = (
"705 -22 OFFCURVE",
"831 10 OFFCURVE",
"934 78 CURVE",
"884 200 LINE",
"800 144 OFFCURVE",
"716 110 OFFCURVE",
"599 110 CURVE SMOOTH",
"418 110 OFFCURVE",
"265 241 OFFCURVE",
"265 510 CURVE SMOOTH",
"265 778 OFFCURVE",
"406 925 OFFCURVE",
"612 920 CURVE SMOOTH",
"699 917.86 OFFCURVE",
"798 884 OFFCURVE",
"884 826 CURVE",
"933 952 LINE",
"827 1020 OFFCURVE",
"712 1052 OFFCURVE",
"603 1052 CURVE SMOOTH",
"308 1052 OFFCURVE",
"91 853 OFFCURVE",
"91 511 CURVE SMOOTH",
"91 180 OFFCURVE",
"313 -22 OFFCURVE",
"594 -22 CURVE SMOOTH"
);
},
{
closed = 1;
nodes = (
"641 1240 LINE",
"949 1560 LINE",
"737 1560 LINE",
"511 1240 LINE"
);
}
);
width = 1026;
}
);
unicode = 0107;
userData = {
org.pippin.gimp.org.kernagic = {
lstem = 0;
rstem = 0;
};
};
},
{
glyphname = ccaron;
lastChange = "2018-07-25 18:37:52 +0000";
layers = (
{
layerId = "2E262F32-97C5-4CC7-8265-2EAE7B11245A";
paths = (
{
closed = 1;
nodes = (
"705 -22 OFFCURVE",
"831 10 OFFCURVE",
"934 78 CURVE",
"884 200 LINE",
"800 144 OFFCURVE",
"716 110 OFFCURVE",
"599 110 CURVE SMOOTH",
"418 110 OFFCURVE",
"265 241 OFFCURVE",
"265 510 CURVE SMOOTH",
"265 778 OFFCURVE",
"406 925 OFFCURVE",
"612 920 CURVE SMOOTH",
"699 917.86 OFFCURVE",
"798 884 OFFCURVE",
"884 826 CURVE",
"933 952 LINE",
"827 1020 OFFCURVE",
"712 1052 OFFCURVE",
"603 1052 CURVE SMOOTH",
"308 1052 OFFCURVE",
"91 853 OFFCURVE",
"91 511 CURVE SMOOTH",
"91 180 OFFCURVE",
"313 -22 OFFCURVE",
"594 -22 CURVE SMOOTH"
);
},
{
closed = 1;
nodes = (
"664 1260 LINE",
"902 1583 LINE",
"748 1583 LINE",
"580 1368 LINE",
"416 1583 LINE",
"269 1583 LINE",
"508 1260 LINE"
);
}
);
width = 1026;
}
);
unicode = 010D;
userData = {
org.pippin.gimp.org.kernagic = {
lstem = 0;
rstem = 0;
};
};
},
{
glyphname = ccedilla;
lastChange = "2018-07-25 18:37:52 +0000";
layers = (
{
layerId = "2E262F32-97C5-4CC7-8265-2EAE7B11245A";
paths = (
{
closed = 1;
nodes = (
"662 -396 OFFCURVE",
"782 -359 OFFCURVE",
"782 -239 CURVE SMOOTH",
"782 -131 OFFCURVE",
"686 -95 OFFCURVE",
"582 -90 CURVE",
"573 -90 LINE",
"584 -21.922 LINE",
"587 -21.974 OFFCURVE",
"590 -22 OFFCURVE",
"594 -22 CURVE SMOOTH",
"705 -22 OFFCURVE",
"831 10 OFFCURVE",
"934 78 CURVE",
"884 200 LINE",
"800 144 OFFCURVE",
"716 110 OFFCURVE",
"599 110 CURVE SMOOTH",
"418 110 OFFCURVE",
"265 241 OFFCURVE",
"265 510 CURVE SMOOTH",
"265 778 OFFCURVE",
"406 925 OFFCURVE",
"612 920 CURVE SMOOTH",
"699 917.86 OFFCURVE",
"798 884 OFFCURVE",
"884 826 CURVE",
"933 952 LINE",
"827 1020 OFFCURVE",
"712 1052 OFFCURVE",
"603 1052 CURVE SMOOTH",
"308 1052 OFFCURVE",
"91 853 OFFCURVE",
"91 511 CURVE SMOOTH",
"91 222.595 OFFCURVE",
"259 32.126 OFFCURVE",
"488 -12.12 CURVE",
"461 -173 LINE",
"493 -171 LINE SMOOTH",
"504 -170 OFFCURVE",
"521 -168 OFFCURVE",
"530 -168 CURVE SMOOTH",
"590 -168 OFFCURVE",
"639 -182 OFFCURVE",
"639 -241 CURVE SMOOTH",
"639 -297 OFFCURVE",
"591 -313 OFFCURVE",
"525 -313 CURVE SMOOTH",
"471 -313 OFFCURVE",
"424 -301 OFFCURVE",
"374 -289 CURVE",
"366 -374 LINE",
"420 -385 OFFCURVE",
"481 -396 OFFCURVE",
"541 -396 CURVE SMOOTH"
);
}
);
width = 1026;
}
);
unicode = 00E7;
userData = {
org.pippin.gimp.org.kernagic = {
lstem = 0;
rstem = 0;
};
};
},
{
glyphname = ccircumflex;
lastChange = "2018-07-25 18:37:52 +0000";
layers = (
{
layerId = "2E262F32-97C5-4CC7-8265-2EAE7B11245A";
paths = (
{
closed = 1;
nodes = (
"705 -22 OFFCURVE",
"831 10 OFFCURVE",
"934 78 CURVE",
"884 200 LINE",
"800 144 OFFCURVE",
"716 110 OFFCURVE",
"599 110 CURVE SMOOTH",
"418 110 OFFCURVE",
"265 241 OFFCURVE",
"265 510 CURVE SMOOTH",
"265 778 OFFCURVE",
"406 925 OFFCURVE",
"612 920 CURVE SMOOTH",
"699 917.86 OFFCURVE",
"798 884 OFFCURVE",
"884 826 CURVE",
"933 952 LINE",
"827 1020 OFFCURVE",
"712 1052 OFFCURVE",
"603 1052 CURVE SMOOTH",
"308 1052 OFFCURVE",
"91 853 OFFCURVE",
"91 511 CURVE SMOOTH",
"91 180 OFFCURVE",
"313 -22 OFFCURVE",
"594 -22 CURVE SMOOTH"
);
},
{
closed = 1;
nodes = (
"398 1259 LINE",
"576 1475 LINE",
"754 1259 LINE",
"886 1259 LINE",
"657 1583 LINE",
"500 1583 LINE",
"272 1259 LINE"
);
}
);
width = 1026;
}
);
unicode = 0109;
userData = {
org.pippin.gimp.org.kernagic = {
lstem = 0;
rstem = 0;
};
};
},
{
glyphname = cdotaccent;
lastChange = "2018-07-25 18:37:52 +0000";
layers = (
{
layerId = "2E262F32-97C5-4CC7-8265-2EAE7B11245A";
paths = (
{
closed = 1;
nodes = (
"705 -22 OFFCURVE",
"831 10 OFFCURVE",
"934 78 CURVE",
"884 200 LINE",
"800 144 OFFCURVE",
"716 110 OFFCURVE",
"599 110 CURVE SMOOTH",
"418 110 OFFCURVE",
"265 241 OFFCURVE",
"265 510 CURVE SMOOTH",
"265 778 OFFCURVE",
"406 925 OFFCURVE",
"612 920 CURVE SMOOTH",
"699 917.86 OFFCURVE",
"798 884 OFFCURVE",
"884 826 CURVE",
"933 952 LINE",
"827 1020 OFFCURVE",
"712 1052 OFFCURVE",
"603 1052 CURVE SMOOTH",
"308 1052 OFFCURVE",
"91 853 OFFCURVE",
"91 511 CURVE SMOOTH",
"91 180 OFFCURVE",
"313 -22 OFFCURVE",
"594 -22 CURVE SMOOTH"
);
},
{
closed = 1;
nodes = (
"621 1368 LINE",
"621 1531 LINE",
"461 1531 LINE",
"461 1368 LINE"
);
}
);
width = 1026;
}
);
unicode = 010B;
userData = {
org.pippin.gimp.org.kernagic = {
lstem = 0;
rstem = 0;
};
};
},
{
glyphname = d;
lastChange = "2018-07-25 18:37:52 +0000";
layers = (
{
layerId = "2E262F32-97C5-4CC7-8265-2EAE7B11245A";
paths = (
{
closed = 1;
nodes = (
"668 -22 OFFCURVE",
"747 33.602 OFFCURVE",
"812 133.206 CURVE",
"834 28.496 OFFCURVE",
"902 -22 OFFCURVE",
"1012 -22 CURVE SMOOTH",
"1073 -22 OFFCURVE",
"1151 -6 OFFCURVE",
"1211 33 CURVE",
"1191 148 LINE",
"1161 131 OFFCURVE",
"1113 110 OFFCURVE",
"1070 110 CURVE SMOOTH",
"1019 110 OFFCURVE",
"975 139 OFFCURVE",
"975 235 CURVE SMOOTH",
"975 1560 LINE",
"805 1560 LINE",
"805 1014 LINE",
"740 1037 OFFCURVE",
"663 1052 OFFCURVE",
"598 1052 CURVE SMOOTH",
"302 1052 OFFCURVE",
"73 869 OFFCURVE",
"73 474 CURVE SMOOTH",
"73 159 OFFCURVE",
"285 -22 OFFCURVE",
"519 -22 CURVE SMOOTH"
);
},
{
closed = 1;
nodes = (
"364 110 OFFCURVE",
"247 243 OFFCURVE",
"247 473 CURVE SMOOTH",
"247 724 OFFCURVE",
"345 920 OFFCURVE",
"597 920 CURVE SMOOTH",
"663 920 OFFCURVE",
"730 912.908 OFFCURVE",
"806 886 CURVE",
"806 497 LINE SMOOTH",
"806 258 OFFCURVE",
"714 110 OFFCURVE",
"525 110 CURVE SMOOTH"
);
}
);
width = 1176;
}
);
unicode = 0064;
userData = {
com.typemytype.robofont.layerData = {
b = {
anchors = (
);
components = (
);
contours = (
{
points = (
{
segmentType = curve;
smooth = 1;
x = 529;
y = -22;
},
{
smooth = 0;
x = 240;
y = -22;
},
{
smooth = 0;
x = 98;
y = 208;
},
{
segmentType = curve;
smooth = 1;
x = 98;
y = 467;
},
{
smooth = 0;
x = 98;
y = 744;
},
{
smooth = 0;
x = 263;
y = 1052;
},
{
segmentType = curve;
smooth = 1;
x = 659;
y = 1052;
},
{
smooth = 0;
x = 786;
y = 1052;
},
{
smooth = 0;
x = 900;
y = 1017;
},
{
segmentType = curve;
smooth = 0;
x = 978;
y = 976;
},
{
segmentType = line;
smooth = 1;
x = 978;
y = 241;
},
{
smooth = 0;
x = 978;
y = 38;
},
{
smooth = 0;
x = 1154;
y = 126;
},
{
segmentType = curve;
smooth = 0;
x = 1194;
y = 148;
},
{
segmentType = line;
smooth = 0;
x = 1214;
y = 33;
},
{
smooth = 0;
x = 1146;
y = -17;
},
{
smooth = 0;
x = 853;
y = -100;
},
{
segmentType = curve;
smooth = 0;
x = 813;
y = 144;
},
{
smooth = 0;
x = 757;
y = 45;
},
{
smooth = 0;
x = 677;
y = -22;
}
);
},
{
points = (
{
segmentType = curve;
smooth = 1;
x = 538;
y = 110;
},
{
smooth = 0;
x = 730;
y = 110;
},
{
smooth = 0;
x = 808;
y = 258;
},
{
segmentType = curve;
smooth = 1;
x = 808;
y = 453;
},
{
segmentType = line;
smooth = 0;
x = 808;
y = 894;
},
{
smooth = 0;
x = 766;
y = 907;
},
{
smooth = 0;
x = 703;
y = 920;
},
{
segmentType = curve;
smooth = 1;
x = 629;
y = 920;
},
{
smooth = 0;
x = 381;
y = 920;
},
{
smooth = 0;
x = 272;
y = 674;
},
{
segmentType = curve;
smooth = 1;
x = 272;
y = 457;
},
{
smooth = 0;
x = 272;
y = 271;
},
{
smooth = 0;
x = 348;
y = 110;
}
);
}
);
lib = {
};
name = d;
unicodes = (
);
width = 1158;
};
};
org.pippin.gimp.org.kernagic = {
lstem = 0;
rstem = 0;
};
};
},
{
glyphname = eth;
lastChange = "2018-07-25 18:37:52 +0000";
layers = (
{
layerId = "2E262F32-97C5-4CC7-8265-2EAE7B11245A";
paths = (
{
closed = 1;
nodes = (
"887 -22 OFFCURVE",
"1060 234 OFFCURVE",
"1060 602 CURVE SMOOTH",
"1060 906 OFFCURVE",
"953 1119 OFFCURVE",
"818 1260 CURVE",
"975 1361 LINE",
"914 1456 LINE",
"731 1338 LINE",
"634 1414 OFFCURVE",
"532 1462 OFFCURVE",
"448 1490 CURVE",
"373 1383 LINE",
"428 1366 OFFCURVE",
"518 1325 OFFCURVE",
"607 1258 CURVE",
"448 1156 LINE",
"510 1061 LINE",
"696 1181 LINE",
"800 1076 OFFCURVE",
"883 928 OFFCURVE",
"883 733 CURVE SMOOTH",
"883 723 LINE",
"814 838 OFFCURVE",
"710 915 OFFCURVE",
"537 915 CURVE SMOOTH",
"280 915 OFFCURVE",
"79 738 OFFCURVE",
"79 446 CURVE SMOOTH",
"79 186 OFFCURVE",
"269 -22 OFFCURVE",
"570 -22 CURVE SMOOTH"
);
},
{
closed = 1;
nodes = (
"389 118 OFFCURVE",
"255 239 OFFCURVE",
"255 441 CURVE SMOOTH",
"255 638 OFFCURVE",
"372 775 OFFCURVE",
"563 775 CURVE SMOOTH",
"726 775 OFFCURVE",
"826 664 OFFCURVE",
"868 536 CURVE",
"868 310 OFFCURVE",
"779 118 OFFCURVE",
"563 118 CURVE SMOOTH"
);
}
);
width = 1146;
}
);
unicode = 00F0;
userData = {
org.pippin.gimp.org.kernagic = {
lstem = 0;
rstem = 0;
};
};
},
{
glyphname = dcaron;
lastChange = "2018-07-25 18:37:52 +0000";
layers = (
{
layerId = "2E262F32-97C5-4CC7-8265-2EAE7B11245A";
paths = (
{
closed = 1;
nodes = (
"668 -22 OFFCURVE",
"747 33.602 OFFCURVE",
"812 133.206 CURVE",
"834 28.496 OFFCURVE",
"902 -22 OFFCURVE",
"1012 -22 CURVE SMOOTH",
"1073 -22 OFFCURVE",
"1151 -6 OFFCURVE",
"1211 33 CURVE",
"1191 148 LINE",
"1161 131 OFFCURVE",
"1113 110 OFFCURVE",
"1070 110 CURVE SMOOTH",
"1019 110 OFFCURVE",
"975 139 OFFCURVE",
"975 235 CURVE SMOOTH",
"975 1560 LINE",
"805 1560 LINE",
"805 1014 LINE",
"740 1037 OFFCURVE",
"663 1052 OFFCURVE",
"598 1052 CURVE SMOOTH",
"302 1052 OFFCURVE",
"73 869 OFFCURVE",
"73 474 CURVE SMOOTH",
"73 159 OFFCURVE",
"285 -22 OFFCURVE",
"519 -22 CURVE SMOOTH"
);
},
{
closed = 1;
nodes = (
"756 -656 LINE",
"919 -139 LINE",
"732 -139 LINE",
"625 -656 LINE"
);
},
{
closed = 1;
nodes = (
"364 110 OFFCURVE",
"247 243 OFFCURVE",
"247 473 CURVE SMOOTH",
"247 724 OFFCURVE",
"345 920 OFFCURVE",
"597 920 CURVE SMOOTH",
"663 920 OFFCURVE",
"730 912.908 OFFCURVE",
"806 886 CURVE",
"806 497 LINE SMOOTH",
"806 258 OFFCURVE",
"714 110 OFFCURVE",
"525 110 CURVE SMOOTH"
);
}
);
width = 1176;
}
);
unicode = 010F;
userData = {
org.pippin.gimp.org.kernagic = {
lstem = 0;
rstem = 0;
};
};
},
{
glyphname = e;
lastChange = "2018-07-25 18:37:52 +0000";
layers = (
{
layerId = "2E262F32-97C5-4CC7-8265-2EAE7B11245A";
paths = (
{
closed = 1;
nodes = (
"729 -22 OFFCURVE",
"852 17 OFFCURVE",
"971 100 CURVE",
"913 223 LINE",
"850 186 OFFCURVE",
"739 110 OFFCURVE",
"588 110 CURVE SMOOTH",
"468 110 OFFCURVE",
"308 166 OFFCURVE",
"263 398 CURVE",
"586 398 OFFCURVE",
"924 510 OFFCURVE",
"924 755 CURVE SMOOTH",
"924 922 OFFCURVE",
"792 1052 OFFCURVE",
"585 1052 CURVE SMOOTH",
"255 1052 OFFCURVE",
"79 803 OFFCURVE",
"79 505 CURVE SMOOTH",
"79 168 OFFCURVE",
"314 -22 OFFCURVE",
"573 -22 CURVE SMOOTH"
);
},
{
closed = 1;
nodes = (
"253 761 OFFCURVE",
"391 920 OFFCURVE",
"573 920 CURVE SMOOTH",
"688 920 OFFCURVE",
"761 852 OFFCURVE",
"761 758 CURVE SMOOTH",
"761 597 OFFCURVE",
"458 519 OFFCURVE",
"252 519 CURVE"
);
}
);
width = 1026;
}
);
unicode = 0065;
userData = {
org.pippin.gimp.org.kernagic = {
lstem = 0;
rstem = 0;
};
};
},
{
glyphname = eacute;
lastChange = "2018-07-25 18:37:52 +0000";
layers = (
{
layerId = "2E262F32-97C5-4CC7-8265-2EAE7B11245A";
paths = (
{
closed = 1;
nodes = (
"729 -22 OFFCURVE",
"852 17 OFFCURVE",
"971 100 CURVE",
"913 223 LINE",
"850 186 OFFCURVE",
"739 110 OFFCURVE",
"588 110 CURVE SMOOTH",
"468 110 OFFCURVE",
"308 166 OFFCURVE",
"263 398 CURVE",
"586 398 OFFCURVE",
"924 510 OFFCURVE",
"924 755 CURVE SMOOTH",
"924 922 OFFCURVE",
"792 1052 OFFCURVE",
"585 1052 CURVE SMOOTH",
"255 1052 OFFCURVE",
"79 803 OFFCURVE",
"79 505 CURVE SMOOTH",
"79 168 OFFCURVE",
"314 -22 OFFCURVE",
"573 -22 CURVE SMOOTH"
);
},
{
closed = 1;
nodes = (
"253 761 OFFCURVE",
"391 920 OFFCURVE",
"573 920 CURVE SMOOTH",
"688 920 OFFCURVE",
"761 852 OFFCURVE",
"761 758 CURVE SMOOTH",
"761 597 OFFCURVE",
"458 519 OFFCURVE",
"252 519 CURVE"
);
},
{
closed = 1;
nodes = (
"648 1210 LINE",
"956 1530 LINE",
"744 1530 LINE",
"518 1210 LINE"
);
}
);
width = 1026;
}
);
unicode = 00E9;
userData = {
org.pippin.gimp.org.kernagic = {
lstem = 0;
rstem = 0;
};
};
},
{
glyphname = ebreve;
lastChange = "2018-07-25 18:37:52 +0000";
layers = (
{
layerId = "2E262F32-97C5-4CC7-8265-2EAE7B11245A";
paths = (
{
closed = 1;
nodes = (
"729 -22 OFFCURVE",
"852 17 OFFCURVE",
"971 100 CURVE",
"913 223 LINE",
"850 186 OFFCURVE",
"739 110 OFFCURVE",
"588 110 CURVE SMOOTH",
"468 110 OFFCURVE",
"308 166 OFFCURVE",
"263 398 CURVE",
"586 398 OFFCURVE",
"924 510 OFFCURVE",
"924 755 CURVE SMOOTH",
"924 922 OFFCURVE",
"792 1052 OFFCURVE",
"585 1052 CURVE SMOOTH",
"255 1052 OFFCURVE",
"79 803 OFFCURVE",
"79 505 CURVE SMOOTH",
"79 168 OFFCURVE",
"314 -22 OFFCURVE",
"573 -22 CURVE SMOOTH"
);
},
{
closed = 1;
nodes = (
"253 761 OFFCURVE",
"391 920 OFFCURVE",
"573 920 CURVE SMOOTH",
"688 920 OFFCURVE",
"761 852 OFFCURVE",
"761 758 CURVE SMOOTH",
"761 597 OFFCURVE",
"458 519 OFFCURVE",
"252 519 CURVE"
);
},
{
closed = 1;
nodes = (
"700 1297 OFFCURVE",
"815 1375 OFFCURVE",
"828 1532 CURVE",
"742 1532 LINE",
"722 1447 OFFCURVE",
"650 1403 OFFCURVE",
"580 1403 CURVE SMOOTH",
"512 1403 OFFCURVE",
"446 1445 OFFCURVE",
"431 1532 CURVE",
"344 1532 LINE",
"357 1375 OFFCURVE",
"471 1297 OFFCURVE",
"585 1297 CURVE SMOOTH"
);
}
);
width = 1026;
}
);
unicode = 0115;
userData = {
org.pippin.gimp.org.kernagic = {
lstem = 0;
rstem = 0;
};
};
},
{
glyphname = ecaron;
lastChange = "2018-07-25 18:37:52 +0000";
layers = (
{
layerId = "2E262F32-97C5-4CC7-8265-2EAE7B11245A";
paths = (
{
closed = 1;
nodes = (
"729 -22 OFFCURVE",
"852 17 OFFCURVE",
"971 100 CURVE",
"913 223 LINE",
"850 186 OFFCURVE",
"739 110 OFFCURVE",
"588 110 CURVE SMOOTH",
"468 110 OFFCURVE",
"308 166 OFFCURVE",
"263 398 CURVE",
"586 398 OFFCURVE",
"924 510 OFFCURVE",
"924 755 CURVE SMOOTH",
"924 922 OFFCURVE",
"792 1052 OFFCURVE",
"585 1052 CURVE SMOOTH",
"255 1052 OFFCURVE",
"79 803 OFFCURVE",
"79 505 CURVE SMOOTH",
"79 168 OFFCURVE",
"314 -22 OFFCURVE",
"573 -22 CURVE SMOOTH"
);
},
{
closed = 1;
nodes = (
"253 761 OFFCURVE",
"391 920 OFFCURVE",
"573 920 CURVE SMOOTH",
"688 920 OFFCURVE",
"761 852 OFFCURVE",
"761 758 CURVE SMOOTH",
"761 597 OFFCURVE",
"458 519 OFFCURVE",
"252 519 CURVE"
);
},
{
closed = 1;
nodes = (
"671 1230 LINE",
"909 1553 LINE",
"755 1553 LINE",
"587 1338 LINE",
"423 1553 LINE",
"276 1553 LINE",
"515 1230 LINE"
);
}
);
width = 1026;
}
);
unicode = 011B;
userData = {
org.pippin.gimp.org.kernagic = {
lstem = 0;
rstem = 0;
};
};
},
{
glyphname = ecircumflex;
lastChange = "2018-07-25 18:37:52 +0000";
layers = (
{
layerId = "2E262F32-97C5-4CC7-8265-2EAE7B11245A";
paths = (
{
closed = 1;
nodes = (
"729 -22 OFFCURVE",
"852 17 OFFCURVE",
"971 100 CURVE",
"913 223 LINE",
"850 186 OFFCURVE",
"739 110 OFFCURVE",
"588 110 CURVE SMOOTH",
"468 110 OFFCURVE",
"308 166 OFFCURVE",
"263 398 CURVE",
"586 398 OFFCURVE",
"924 510 OFFCURVE",
"924 755 CURVE SMOOTH",
"924 922 OFFCURVE",
"792 1052 OFFCURVE",
"585 1052 CURVE SMOOTH",
"255 1052 OFFCURVE",
"79 803 OFFCURVE",
"79 505 CURVE SMOOTH",
"79 168 OFFCURVE",
"314 -22 OFFCURVE",
"573 -22 CURVE SMOOTH"
);
},
{
closed = 1;
nodes = (
"253 761 OFFCURVE",
"391 920 OFFCURVE",
"573 920 CURVE SMOOTH",
"688 920 OFFCURVE",
"761 852 OFFCURVE",
"761 758 CURVE SMOOTH",
"761 597 OFFCURVE",
"458 519 OFFCURVE",
"252 519 CURVE"
);
},
{
closed = 1;
nodes = (
"405 1229 LINE",
"583 1445 LINE",
"761 1229 LINE",
"893 1229 LINE",
"664 1553 LINE",
"507 1553 LINE",
"279 1229 LINE"
);
}
);
width = 1026;
}
);
unicode = 00EA;
userData = {
org.pippin.gimp.org.kernagic = {
lstem = 0;
rstem = 0;
};
};
},
{
glyphname = edieresis;
lastChange = "2018-07-25 18:37:52 +0000";
layers = (
{
layerId = "2E262F32-97C5-4CC7-8265-2EAE7B11245A";
paths = (
{
closed = 1;
nodes = (
"729 -22 OFFCURVE",
"852 17 OFFCURVE",
"971 100 CURVE",
"913 223 LINE",
"850 186 OFFCURVE",
"739 110 OFFCURVE",
"588 110 CURVE SMOOTH",
"468 110 OFFCURVE",
"308 166 OFFCURVE",
"263 398 CURVE",
"586 398 OFFCURVE",
"924 510 OFFCURVE",
"924 755 CURVE SMOOTH",
"924 922 OFFCURVE",
"792 1052 OFFCURVE",
"585 1052 CURVE SMOOTH",
"255 1052 OFFCURVE",
"79 803 OFFCURVE",
"79 505 CURVE SMOOTH",
"79 168 OFFCURVE",
"314 -22 OFFCURVE",
"573 -22 CURVE SMOOTH"
);
},
{
closed = 1;
nodes = (
"253 761 OFFCURVE",
"391 920 OFFCURVE",
"573 920 CURVE SMOOTH",
"688 920 OFFCURVE",
"761 852 OFFCURVE",
"761 758 CURVE SMOOTH",
"761 597 OFFCURVE",
"458 519 OFFCURVE",
"252 519 CURVE"
);
},
{
closed = 1;
nodes = (
"479 1250 OFFCURVE",
"516 1287 OFFCURVE",
"516 1332 CURVE SMOOTH",
"516 1356 LINE SMOOTH",
"516 1401 OFFCURVE",
"479 1438 OFFCURVE",
"434 1438 CURVE SMOOTH",
"389 1438 OFFCURVE",
"352 1401 OFFCURVE",
"352 1356 CURVE SMOOTH",
"352 1332 LINE SMOOTH",
"352 1287 OFFCURVE",
"389 1250 OFFCURVE",
"434 1250 CURVE SMOOTH"
);
},
{
closed = 1;
nodes = (
"811 1250 OFFCURVE",
"848 1287 OFFCURVE",
"848 1332 CURVE SMOOTH",
"848 1356 LINE SMOOTH",
"848 1401 OFFCURVE",
"811 1438 OFFCURVE",
"766 1438 CURVE SMOOTH",
"721 1438 OFFCURVE",
"684 1401 OFFCURVE",
"684 1356 CURVE SMOOTH",
"684 1332 LINE SMOOTH",
"684 1287 OFFCURVE",
"721 1250 OFFCURVE",
"766 1250 CURVE SMOOTH"
);
}
);
width = 1026;
}
);
unicode = 00EB;
userData = {
org.pippin.gimp.org.kernagic = {
lstem = 0;
rstem = 0;
};
};
},
{
glyphname = edotaccent;
lastChange = "2018-07-25 18:37:52 +0000";
layers = (
{
layerId = "2E262F32-97C5-4CC7-8265-2EAE7B11245A";
paths = (
{
closed = 1;
nodes = (
"729 -22 OFFCURVE",
"852 17 OFFCURVE",
"971 100 CURVE",
"913 223 LINE",
"850 186 OFFCURVE",
"739 110 OFFCURVE",
"588 110 CURVE SMOOTH",
"468 110 OFFCURVE",
"308 166 OFFCURVE",
"263 398 CURVE",
"586 398 OFFCURVE",
"924 510 OFFCURVE",
"924 755 CURVE SMOOTH",
"924 922 OFFCURVE",
"792 1052 OFFCURVE",
"585 1052 CURVE SMOOTH",
"255 1052 OFFCURVE",
"79 803 OFFCURVE",
"79 505 CURVE SMOOTH",
"79 168 OFFCURVE",
"314 -22 OFFCURVE",
"573 -22 CURVE SMOOTH"
);
},
{
closed = 1;
nodes = (
"253 761 OFFCURVE",
"391 920 OFFCURVE",
"573 920 CURVE SMOOTH",
"688 920 OFFCURVE",
"761 852 OFFCURVE",
"761 758 CURVE SMOOTH",
"761 597 OFFCURVE",
"458 519 OFFCURVE",
"252 519 CURVE"
);
},
{
closed = 1;
nodes = (
"628 1338 LINE",
"628 1501 LINE",
"468 1501 LINE",
"468 1338 LINE"
);
}
);
width = 1026;
}
);
unicode = 0117;
userData = {
org.pippin.gimp.org.kernagic = {
lstem = 0;
rstem = 0;
};
};
},
{
glyphname = egrave;
lastChange = "2018-07-25 18:37:52 +0000";
layers = (
{
layerId = "2E262F32-97C5-4CC7-8265-2EAE7B11245A";
paths = (
{
closed = 1;
nodes = (
"729 -22 OFFCURVE",
"852 17 OFFCURVE",
"971 100 CURVE",
"913 223 LINE",
"850 186 OFFCURVE",
"739 110 OFFCURVE",
"588 110 CURVE SMOOTH",
"468 110 OFFCURVE",
"308 166 OFFCURVE",
"263 398 CURVE",
"586 398 OFFCURVE",
"924 510 OFFCURVE",
"924 755 CURVE SMOOTH",
"924 922 OFFCURVE",
"792 1052 OFFCURVE",
"585 1052 CURVE SMOOTH",
"255 1052 OFFCURVE",
"79 803 OFFCURVE",
"79 505 CURVE SMOOTH",
"79 168 OFFCURVE",
"314 -22 OFFCURVE",
"573 -22 CURVE SMOOTH"
);
},
{
closed = 1;
nodes = (
"253 761 OFFCURVE",
"391 920 OFFCURVE",
"573 920 CURVE SMOOTH",
"688 920 OFFCURVE",
"761 852 OFFCURVE",
"761 758 CURVE SMOOTH",
"761 597 OFFCURVE",
"458 519 OFFCURVE",
"252 519 CURVE"
);
},
{
closed = 1;
nodes = (
"665 1234 LINE",
"418 1554 LINE",
"204 1554 LINE",
"536 1234 LINE"
);
}
);
width = 1026;
}
);
unicode = 00E8;
userData = {
org.pippin.gimp.org.kernagic = {
lstem = 0;
rstem = 0;
};
};
},
{
glyphname = emacron;
lastChange = "2018-07-25 18:37:52 +0000";
layers = (
{
layerId = "2E262F32-97C5-4CC7-8265-2EAE7B11245A";
paths = (
{
closed = 1;
nodes = (
"729 -22 OFFCURVE",
"852 17 OFFCURVE",
"971 100 CURVE",
"913 223 LINE",
"850 186 OFFCURVE",
"739 110 OFFCURVE",
"588 110 CURVE SMOOTH",
"468 110 OFFCURVE",
"308 166 OFFCURVE",
"263 398 CURVE",
"586 398 OFFCURVE",
"924 510 OFFCURVE",
"924 755 CURVE SMOOTH",
"924 922 OFFCURVE",
"792 1052 OFFCURVE",
"585 1052 CURVE SMOOTH",
"255 1052 OFFCURVE",
"79 803 OFFCURVE",
"79 505 CURVE SMOOTH",
"79 168 OFFCURVE",
"314 -22 OFFCURVE",
"573 -22 CURVE SMOOTH"
);
},
{
closed = 1;
nodes = (
"253 761 OFFCURVE",
"391 920 OFFCURVE",
"573 920 CURVE SMOOTH",
"688 920 OFFCURVE",
"761 852 OFFCURVE",
"761 758 CURVE SMOOTH",
"761 597 OFFCURVE",
"458 519 OFFCURVE",
"252 519 CURVE"
);
},
{
closed = 1;
nodes = (
"877 1292 LINE",
"877 1426 LINE",
"305 1426 LINE",
"305 1292 LINE"
);
}
);
width = 1026;
}
);
unicode = 0113;
userData = {
org.pippin.gimp.org.kernagic = {
lstem = 0;
rstem = 0;
};
};
},
{
glyphname = eogonek;
lastChange = "2018-07-25 18:37:52 +0000";
layers = (
{
layerId = "2E262F32-97C5-4CC7-8265-2EAE7B11245A";
paths = (
{
closed = 1;
nodes = (
"874 -334 OFFCURVE",
"941 -324 OFFCURVE",
"987 -305 CURVE",
"987 -194 LINE",
"941 -212 OFFCURVE",
"897 -225 OFFCURVE",
"833 -225 CURVE SMOOTH",
"782 -225 OFFCURVE",
"733 -194 OFFCURVE",
"733 -143 CURVE SMOOTH",
"733 -61 OFFCURVE",
"850 4 OFFCURVE",
"936 56 CURVE",
"905 58.868 LINE",
"927 71.129 OFFCURVE",
"949 84.829 OFFCURVE",
"971 100 CURVE",
"913 223 LINE",
"850 186 OFFCURVE",
"739 110 OFFCURVE",
"588 110 CURVE SMOOTH",
"468 110 OFFCURVE",
"308 166 OFFCURVE",
"263 398 CURVE",
"586 398 OFFCURVE",
"924 510 OFFCURVE",
"924 755 CURVE SMOOTH",
"924 922 OFFCURVE",
"792 1052 OFFCURVE",
"585 1052 CURVE SMOOTH",
"255 1052 OFFCURVE",
"79 803 OFFCURVE",
"79 505 CURVE SMOOTH",
"79 168 OFFCURVE",
"314 -22 OFFCURVE",
"573 -22 CURVE SMOOTH",
"605 -22 OFFCURVE",
"636 -20.326 OFFCURVE",
"665 -16.934 CURVE",
"622 -54.789 OFFCURVE",
"592 -103.164 OFFCURVE",
"592 -169 CURVE SMOOTH",
"592 -279 OFFCURVE",
"685 -334 OFFCURVE",
"810 -334 CURVE SMOOTH"
);
},
{
closed = 1;
nodes = (
"253 761 OFFCURVE",
"391 920 OFFCURVE",
"573 920 CURVE SMOOTH",
"688 920 OFFCURVE",
"761 852 OFFCURVE",
"761 758 CURVE SMOOTH",
"761 597 OFFCURVE",
"458 519 OFFCURVE",
"252 519 CURVE"
);
}
);
width = 1056;
}
);
unicode = 0119;
userData = {
org.pippin.gimp.org.kernagic = {
lstem = 0;
rstem = 0;
};
};
},
{
glyphname = f;
lastChange = "2018-07-25 18:37:52 +0000";
layers = (
{
layerId = "2E262F32-97C5-4CC7-8265-2EAE7B11245A";
paths = (
{
closed = 1;
nodes = (
"411 0 LINE",
"411 920 LINE",
"670 920 LINE",
"670 1026 LINE",
"411 1026 LINE",
"411 1159 LINE SMOOTH",
"411 1336 OFFCURVE",
"496 1424 OFFCURVE",
"735 1424 CURVE",
"718 1560 LINE",
"338 1560 OFFCURVE",
"241 1380 OFFCURVE",
"241 1147 CURVE SMOOTH",
"241 1026 LINE",
"39 1026 LINE",
"39 920 LINE",
"241 920 LINE",
"241 0 LINE"
);
}
);
width = 694;
}
);
unicode = 0066;
userData = {
org.pippin.gimp.org.kernagic = {
lstem = 191;
rstem = 438;
};
};
},
{
glyphname = g;
lastChange = "2018-07-25 18:37:52 +0000";
layers = (
{
layerId = "2E262F32-97C5-4CC7-8265-2EAE7B11245A";
paths = (
{
closed = 1;
nodes = (
"824 -566 OFFCURVE",
"985 -309 OFFCURVE",
"985 9 CURVE SMOOTH",
"985 971 LINE",
"905 1023 OFFCURVE",
"761 1052 OFFCURVE",
"632 1052 CURVE SMOOTH",
"346 1052 OFFCURVE",
"85 846.2 OFFCURVE",
"85 469.838 CURVE SMOOTH",
"85 186.521 OFFCURVE",
"264 -22 OFFCURVE",
"507 -22 CURVE SMOOTH",
"643 -22 OFFCURVE",
"749 21 OFFCURVE",
"815 136 CURVE",
"815 -12 LINE SMOOTH",
"815 -272 OFFCURVE",
"700 -424 OFFCURVE",
"468 -424 CURVE SMOOTH",
"389 -424 OFFCURVE",
"298 -407 OFFCURVE",
"193 -370 CURVE",
"175 -513 LINE",
"288 -549 OFFCURVE",
"388 -566 OFFCURVE",
"476 -566 CURVE SMOOTH"
);
},
{
closed = 1;
nodes = (
"344 109.893 OFFCURVE",
"260 278.577 OFFCURVE",
"260 465.131 CURVE SMOOTH",
"260 681.548 OFFCURVE",
"377 920.285 OFFCURVE",
"624 920.285 CURVE SMOOTH",
"699 920.285 OFFCURVE",
"773 907.425 OFFCURVE",
"815 894 CURVE",
"815 453 LINE SMOOTH",
"815 258.029 OFFCURVE",
"726 109.893 OFFCURVE",
"534 109.893 CURVE SMOOTH"
);
}
);
width = 1116;
}
);
unicode = 0067;
userData = {
org.pippin.gimp.org.kernagic = {
lstem = 0;
rstem = 0;
};
};
},
{
glyphname = gbreve;
lastChange = "2018-07-25 18:37:52 +0000";
layers = (
{
layerId = "2E262F32-97C5-4CC7-8265-2EAE7B11245A";
paths = (
{
closed = 1;
nodes = (
"824 -566 OFFCURVE",
"985 -309 OFFCURVE",
"985 9 CURVE SMOOTH",
"985 971 LINE",
"905 1023 OFFCURVE",
"761 1052 OFFCURVE",
"632 1052 CURVE SMOOTH",
"346 1052 OFFCURVE",
"85 846.2 OFFCURVE",
"85 469.838 CURVE SMOOTH",
"85 186.521 OFFCURVE",
"264 -22 OFFCURVE",
"507 -22 CURVE SMOOTH",
"643 -22 OFFCURVE",
"749 21 OFFCURVE",
"815 136 CURVE",
"815 -12 LINE SMOOTH",
"815 -272 OFFCURVE",
"700 -424 OFFCURVE",
"468 -424 CURVE SMOOTH",
"389 -424 OFFCURVE",
"298 -407 OFFCURVE",
"193 -370 CURVE",
"175 -513 LINE",
"288 -549 OFFCURVE",
"388 -566 OFFCURVE",
"476 -566 CURVE SMOOTH"
);
},
{
closed = 1;
nodes = (
"344 109.893 OFFCURVE",
"260 278.577 OFFCURVE",
"260 465.131 CURVE SMOOTH",
"260 681.548 OFFCURVE",
"377 920.285 OFFCURVE",
"624 920.285 CURVE SMOOTH",
"699 920.285 OFFCURVE",
"773 907.425 OFFCURVE",
"815 894 CURVE",
"815 453 LINE SMOOTH",
"815 258.029 OFFCURVE",
"726 109.893 OFFCURVE",
"534 109.893 CURVE SMOOTH"
);
},
{
closed = 1;
nodes = (
"742 1202 OFFCURVE",
"857 1280 OFFCURVE",
"870 1437 CURVE",
"784 1437 LINE",
"764 1352 OFFCURVE",
"692 1308 OFFCURVE",
"622 1308 CURVE SMOOTH",
"554 1308 OFFCURVE",
"488 1350 OFFCURVE",
"473 1437 CURVE",
"386 1437 LINE",
"399 1280 OFFCURVE",
"513 1202 OFFCURVE",
"627 1202 CURVE SMOOTH"
);
}
);
width = 1116;
}
);
unicode = 011F;
userData = {
org.pippin.gimp.org.kernagic = {
lstem = 0;
rstem = 0;
};
};
},
{
glyphname = gcircumflex;
lastChange = "2018-07-25 18:37:52 +0000";
layers = (
{
layerId = "2E262F32-97C5-4CC7-8265-2EAE7B11245A";
paths = (
{
closed = 1;
nodes = (
"824 -566 OFFCURVE",
"985 -309 OFFCURVE",
"985 9 CURVE SMOOTH",
"985 971 LINE",
"905 1023 OFFCURVE",
"761 1052 OFFCURVE",
"632 1052 CURVE SMOOTH",
"346 1052 OFFCURVE",
"85 846.2 OFFCURVE",
"85 469.838 CURVE SMOOTH",
"85 186.521 OFFCURVE",
"264 -22 OFFCURVE",
"507 -22 CURVE SMOOTH",
"643 -22 OFFCURVE",
"749 21 OFFCURVE",
"815 136 CURVE",
"815 -12 LINE SMOOTH",
"815 -272 OFFCURVE",
"700 -424 OFFCURVE",
"468 -424 CURVE SMOOTH",
"389 -424 OFFCURVE",
"298 -407 OFFCURVE",
"193 -370 CURVE",
"175 -513 LINE",
"288 -549 OFFCURVE",
"388 -566 OFFCURVE",
"476 -566 CURVE SMOOTH"
);
},
{
closed = 1;
nodes = (
"344 109.893 OFFCURVE",
"260 278.577 OFFCURVE",
"260 465.131 CURVE SMOOTH",
"260 681.548 OFFCURVE",
"377 920.285 OFFCURVE",
"624 920.285 CURVE SMOOTH",
"699 920.285 OFFCURVE",
"773 907.425 OFFCURVE",
"815 894 CURVE",
"815 453 LINE SMOOTH",
"815 258.029 OFFCURVE",
"726 109.893 OFFCURVE",
"534 109.893 CURVE SMOOTH"
);
},
{
closed = 1;
nodes = (
"447 1134 LINE",
"625 1350 LINE",
"803 1134 LINE",
"935 1134 LINE",
"706 1458 LINE",
"549 1458 LINE",
"321 1134 LINE"
);
}
);
width = 1116;
}
);
unicode = 011D;
userData = {
org.pippin.gimp.org.kernagic = {
lstem = 0;
rstem = 0;
};
};
},
{
glyphname = gcommaaccent;
lastChange = "2018-07-25 18:37:52 +0000";
layers = (
{
layerId = "2E262F32-97C5-4CC7-8265-2EAE7B11245A";
paths = (
{
closed = 1;
nodes = (
"796 -494 OFFCURVE",
"994 -306 OFFCURVE",
"994 -23 CURVE SMOOTH",
"994 962 LINE",
"914 1014 OFFCURVE",
"774 1048 OFFCURVE",
"645 1048 CURVE SMOOTH",
"313 1048 OFFCURVE",
"85 804 OFFCURVE",
"85 438 CURVE SMOOTH",
"85 162 OFFCURVE",
"251 -22 OFFCURVE",
"491 -22 CURVE SMOOTH",
"627 -22 OFFCURVE",
"758 39 OFFCURVE",
"830 133 CURVE",
"830 -44 LINE SMOOTH",
"830 -232 OFFCURVE",
"697 -357 OFFCURVE",
"496 -357 CURVE SMOOTH",
"411 -357 OFFCURVE",
"293 -326 OFFCURVE",
"203 -280 CURVE",
"184 -433 LINE",
"284 -470 OFFCURVE",
"412 -494 OFFCURVE",
"509 -494 CURVE SMOOTH"
);
},
{
closed = 1;
nodes = (
"359 116 OFFCURVE",
"255 249 OFFCURVE",
"255 448 CURVE SMOOTH",
"255 723 OFFCURVE",
"410 907 OFFCURVE",
"642 907 CURVE SMOOTH",
"715 907 OFFCURVE",
"790 893 OFFCURVE",
"830 872 CURVE",
"830 453 LINE SMOOTH",
"830 261 OFFCURVE",
"704 116 OFFCURVE",
"515 116 CURVE SMOOTH"
);
},
{
closed = 1;
nodes = (
"591 1162 LINE",
"694 1625 LINE",
"568 1625 LINE",
"411 1162 LINE"
);
}
);
width = 1116;
}
);
unicode = 0123;
userData = {
org.pippin.gimp.org.kernagic = {
lstem = 0;
rstem = 0;
};
};
},
{
glyphname = gdotaccent;
lastChange = "2018-07-25 18:37:52 +0000";
layers = (
{
layerId = "2E262F32-97C5-4CC7-8265-2EAE7B11245A";
paths = (
{
closed = 1;
nodes = (
"824 -566 OFFCURVE",
"985 -309 OFFCURVE",
"985 9 CURVE SMOOTH",
"985 971 LINE",
"905 1023 OFFCURVE",
"761 1052 OFFCURVE",
"632 1052 CURVE SMOOTH",
"346 1052 OFFCURVE",
"85 846.2 OFFCURVE",
"85 469.838 CURVE SMOOTH",
"85 186.521 OFFCURVE",
"264 -22 OFFCURVE",
"507 -22 CURVE SMOOTH",
"643 -22 OFFCURVE",
"749 21 OFFCURVE",
"815 136 CURVE",
"815 -12 LINE SMOOTH",
"815 -272 OFFCURVE",
"700 -424 OFFCURVE",
"468 -424 CURVE SMOOTH",
"389 -424 OFFCURVE",
"298 -407 OFFCURVE",
"193 -370 CURVE",
"175 -513 LINE",
"288 -549 OFFCURVE",
"388 -566 OFFCURVE",
"476 -566 CURVE SMOOTH"
);
},
{
closed = 1;
nodes = (
"344 109.893 OFFCURVE",
"260 278.577 OFFCURVE",
"260 465.131 CURVE SMOOTH",
"260 681.548 OFFCURVE",
"377 920.285 OFFCURVE",
"624 920.285 CURVE SMOOTH",
"699 920.285 OFFCURVE",
"773 907.425 OFFCURVE",
"815 894 CURVE",
"815 453 LINE SMOOTH",
"815 258.029 OFFCURVE",
"726 109.893 OFFCURVE",
"534 109.893 CURVE SMOOTH"
);
},
{
closed = 1;
nodes = (
"670 1243 LINE",
"670 1406 LINE",
"510 1406 LINE",
"510 1243 LINE"
);
}
);
width = 1116;
}
);
unicode = 0121;
userData = {
org.pippin.gimp.org.kernagic = {
lstem = 0;
rstem = 0;
};
};
},
{
glyphname = h;
lastChange = "2018-07-25 18:37:52 +0000";
layers = (
{
layerId = "2E262F32-97C5-4CC7-8265-2EAE7B11245A";
paths = (
{
closed = 1;
nodes = (
"1088 -22 OFFCURVE",
"1166 -6 OFFCURVE",
"1226 33 CURVE",
"1206 148 LINE",
"1176 131 OFFCURVE",
"1128 110 OFFCURVE",
"1085 110 CURVE SMOOTH",
"1034 110 OFFCURVE",
"990 139 OFFCURVE",
"990 235 CURVE SMOOTH",
"990 625 LINE SMOOTH",
"990 946 OFFCURVE",
"842 1052 OFFCURVE",
"656 1052 CURVE SMOOTH",
"493 1052 OFFCURVE",
"379 986 OFFCURVE",
"297 876 CURVE",
"297 1560 LINE",
"127 1560 LINE",
"127 0 LINE",
"297 0 LINE",
"297 532 LINE SMOOTH",
"297 753 OFFCURVE",
"437 912 OFFCURVE",
"604 920 CURVE SMOOTH",
"749 927 OFFCURVE",
"820 853 OFFCURVE",
"820 607 CURVE SMOOTH",
"820 216 LINE SMOOTH",
"820 55 OFFCURVE",
"892 -22 OFFCURVE",
"1027 -22 CURVE SMOOTH"
);
}
);
width = 1176;
}
);
unicode = 0068;
userData = {
com.typemytype.robofont.layerData = {
b = {
anchors = (
);
components = (
);
contours = (
{
points = (
{
segmentType = curve;
smooth = 1;
x = 544;
y = -22;
},
{
smooth = 0;
x = 255;
y = -22;
},
{
smooth = 0;
x = 113;
y = 208;
},
{
segmentType = curve;
smooth = 1;
x = 113;
y = 467;
},
{
smooth = 0;
x = 113;
y = 744;
},
{
smooth = 0;
x = 278;
y = 1052;
},
{
segmentType = curve;
smooth = 1;
x = 674;
y = 1052;
},
{
smooth = 0;
x = 801;
y = 1052;
},
{
smooth = 0;
x = 915;
y = 1017;
},
{
segmentType = curve;
smooth = 0;
x = 993;
y = 976;
},
{
segmentType = line;
smooth = 1;
x = 993;
y = 241;
},
{
smooth = 0;
x = 993;
y = 38;
},
{
smooth = 0;
x = 1171;
y = 126;
},
{
segmentType = curve;
smooth = 0;
x = 1209;
y = 148;
},
{
segmentType = line;
smooth = 0;
x = 1229;
y = 33;
},
{
smooth = 0;
x = 1152;
y = -21;
},
{
smooth = 0;
x = 867;
y = -96;
},
{
segmentType = curve;
smooth = 0;
x = 829;
y = 144;
},
{
smooth = 0;
x = 773;
y = 45;
},
{
smooth = 0;
x = 692;
y = -22;
}
);
},
{
points = (
{
segmentType = curve;
smooth = 1;
x = 553;
y = 110;
},
{
smooth = 0;
x = 745;
y = 110;
},
{
smooth = 0;
x = 823;
y = 258;
},
{
segmentType = curve;
smooth = 1;
x = 823;
y = 453;
},
{
segmentType = line;
smooth = 0;
x = 823;
y = 894;
},
{
smooth = 0;
x = 781;
y = 907;
},
{
smooth = 0;
x = 718;
y = 920;
},
{
segmentType = curve;
smooth = 1;
x = 644;
y = 920;
},
{
smooth = 0;
x = 396;
y = 920;
},
{
smooth = 0;
x = 287;
y = 674;
},
{
segmentType = curve;
smooth = 1;
x = 287;
y = 457;
},
{
smooth = 0;
x = 287;
y = 271;
},
{
smooth = 0;
x = 363;
y = 110;
}
);
}
);
lib = {
};
name = h;
unicodes = (
);
width = 1194;
};
};
org.pippin.gimp.org.kernagic = {
lstem = 0;
rstem = 0;
};
};
},
{
glyphname = hbar;
lastChange = "2018-07-25 18:37:52 +0000";
layers = (
{
layerId = "2E262F32-97C5-4CC7-8265-2EAE7B11245A";
paths = (
{
closed = 1;
nodes = (
"1098 -22 OFFCURVE",
"1176 -6 OFFCURVE",
"1236 33 CURVE",
"1216 148 LINE",
"1186 131 OFFCURVE",
"1138 110 OFFCURVE",
"1095 110 CURVE SMOOTH",
"1044 110 OFFCURVE",
"1000 139 OFFCURVE",
"1000 235 CURVE SMOOTH",
"1000 625 LINE SMOOTH",
"1000 946 OFFCURVE",
"852 1052 OFFCURVE",
"666 1052 CURVE SMOOTH",
"503 1052 OFFCURVE",
"389 986 OFFCURVE",
"307 876 CURVE",
"307 1207 LINE",
"563 1207 LINE",
"563 1341 LINE",
"307 1341 LINE",
"307 1560 LINE",
"137 1560 LINE",
"137 1341 LINE",
"13 1341 LINE",
"13 1207 LINE",
"137 1207 LINE",
"137 0 LINE",
"307 0 LINE",
"307 532 LINE SMOOTH",
"307 753 OFFCURVE",
"447 912 OFFCURVE",
"614 920 CURVE SMOOTH",
"759 927 OFFCURVE",
"830 853 OFFCURVE",
"830 607 CURVE SMOOTH",
"830 216 LINE SMOOTH",
"830 55 OFFCURVE",
"902 -22 OFFCURVE",
"1037 -22 CURVE SMOOTH"
);
}
);
width = 1176;
}
);
unicode = 0127;
userData = {
org.pippin.gimp.org.kernagic = {
lstem = 0;
rstem = 0;
};
};
},
{
glyphname = hcircumflex;
lastChange = "2018-07-25 18:37:52 +0000";
layers = (
{
layerId = "2E262F32-97C5-4CC7-8265-2EAE7B11245A";
paths = (
{
closed = 1;
nodes = (
"1088 -22 OFFCURVE",
"1166 -6 OFFCURVE",
"1226 33 CURVE",
"1206 148 LINE",
"1176 131 OFFCURVE",
"1128 110 OFFCURVE",
"1085 110 CURVE SMOOTH",
"1034 110 OFFCURVE",
"990 139 OFFCURVE",
"990 235 CURVE SMOOTH",
"990 625 LINE SMOOTH",
"990 946 OFFCURVE",
"842 1052 OFFCURVE",
"656 1052 CURVE SMOOTH",
"493 1052 OFFCURVE",
"379 986 OFFCURVE",
"297 876 CURVE",
"297 1560 LINE",
"127 1560 LINE",
"127 0 LINE",
"297 0 LINE",
"297 532 LINE SMOOTH",
"297 753 OFFCURVE",
"437 912 OFFCURVE",
"604 920 CURVE SMOOTH",
"749 927 OFFCURVE",
"820 853 OFFCURVE",
"820 607 CURVE SMOOTH",
"820 216 LINE SMOOTH",
"820 55 OFFCURVE",
"892 -22 OFFCURVE",
"1027 -22 CURVE SMOOTH"
);
},
{
closed = 1;
nodes = (
"500 1367 LINE",
"678 1583 LINE",
"856 1367 LINE",
"988 1367 LINE",
"759 1691 LINE",
"602 1691 LINE",
"374 1367 LINE"
);
}
);
width = 1176;
}
);
unicode = 0125;
userData = {
org.pippin.gimp.org.kernagic = {
lstem = 0;
rstem = 0;
};
};
},
{
glyphname = i;
lastChange = "2018-07-25 18:37:52 +0000";
layers = (
{
layerId = "2E262F32-97C5-4CC7-8265-2EAE7B11245A";
paths = (
{
closed = 1;
nodes = (
"441 -22 OFFCURVE",
"519 -6 OFFCURVE",
"579 33 CURVE",
"559 148 LINE",
"529 131 OFFCURVE",
"481 110 OFFCURVE",
"438 110 CURVE SMOOTH",
"387 110 OFFCURVE",
"343 139 OFFCURVE",
"343 235 CURVE SMOOTH",
"343 1026 LINE",
"173 1026 LINE",
"173 216 LINE SMOOTH",
"173 55 OFFCURVE",
"245 -22 OFFCURVE",
"380 -22 CURVE SMOOTH"
);
},
{
closed = 1;
nodes = (
"267 1236 LINE SMOOTH",
"326 1236 OFFCURVE",
"384 1273 OFFCURVE",
"384 1346 CURVE SMOOTH",
"384 1420 OFFCURVE",
"325 1458 OFFCURVE",
"267 1458 CURVE SMOOTH",
"266 1458 LINE SMOOTH",
"206 1458 OFFCURVE",
"146 1421 OFFCURVE",
"146 1347 CURVE SMOOTH",
"146 1274 OFFCURVE",
"206 1236 OFFCURVE",
"266 1236 CURVE SMOOTH"
);
}
);
width = 603;
}
);
unicode = 0069;
userData = {
org.pippin.gimp.org.kernagic = {
lstem = 0;
rstem = 213;
};
};
},
{
glyphname = dotlessi;
lastChange = "2018-07-25 18:37:52 +0000";
layers = (
{
layerId = "2E262F32-97C5-4CC7-8265-2EAE7B11245A";
paths = (
{
closed = 1;
nodes = (
"479 -18 OFFCURVE",
"548 -3 OFFCURVE",
"618 26 CURVE",
"595 145 LINE",
"542 126 OFFCURVE",
"489 111 OFFCURVE",
"443 111 CURVE SMOOTH",
"370 111 OFFCURVE",
"316 149 OFFCURVE",
"316 267 CURVE SMOOTH",
"316 1026 LINE",
"152 1026 LINE",
"152 262 LINE SMOOTH",
"152 66 OFFCURVE",
"267 -18 OFFCURVE",
"415 -18 CURVE SMOOTH"
);
}
);
width = 784;
}
);
unicode = 0131;
userData = {
org.pippin.gimp.org.kernagic = {
lstem = 0;
rstem = 0;
};
};
},
{
glyphname = iacute;
lastChange = "2018-07-25 18:37:52 +0000";
layers = (
{
layerId = "2E262F32-97C5-4CC7-8265-2EAE7B11245A";
paths = (
{
closed = 1;
nodes = (
"479 -18 OFFCURVE",
"548 -3 OFFCURVE",
"618 26 CURVE",
"595 145 LINE",
"542 126 OFFCURVE",
"489 111 OFFCURVE",
"443 111 CURVE SMOOTH",
"370 111 OFFCURVE",
"316 149 OFFCURVE",
"316 267 CURVE SMOOTH",
"316 1026 LINE",
"152 1026 LINE",
"152 262 LINE SMOOTH",
"152 66 OFFCURVE",
"267 -18 OFFCURVE",
"415 -18 CURVE SMOOTH"
);
},
{
closed = 1;
nodes = (
"290 1111 LINE",
"598 1431 LINE",
"386 1431 LINE",
"160 1111 LINE"
);
}
);
width = 784;
}
);
unicode = 00ED;
userData = {
org.pippin.gimp.org.kernagic = {
lstem = 0;
rstem = 0;
};
};
},
{
glyphname = ibreve;
lastChange = "2018-07-25 18:37:52 +0000";
layers = (
{
layerId = "2E262F32-97C5-4CC7-8265-2EAE7B11245A";
paths = (
{
closed = 1;
nodes = (
"542 -18 OFFCURVE",
"611 -3 OFFCURVE",
"681 26 CURVE",
"658 145 LINE",
"605 126 OFFCURVE",
"552 111 OFFCURVE",
"506 111 CURVE SMOOTH",
"433 111 OFFCURVE",
"379 149 OFFCURVE",
"379 267 CURVE SMOOTH",
"379 1026 LINE",
"215 1026 LINE",
"215 262 LINE SMOOTH",
"215 66 OFFCURVE",
"330 -18 OFFCURVE",
"478 -18 CURVE SMOOTH"
);
},
{
closed = 1;
nodes = (
"405 1198 OFFCURVE",
"520 1276 OFFCURVE",
"533 1433 CURVE",
"447 1433 LINE",
"427 1348 OFFCURVE",
"355 1304 OFFCURVE",
"285 1304 CURVE SMOOTH",
"217 1304 OFFCURVE",
"151 1346 OFFCURVE",
"136 1433 CURVE",
"49 1433 LINE",
"62 1276 OFFCURVE",
"176 1198 OFFCURVE",
"290 1198 CURVE SMOOTH"
);
}
);
width = 814;
}
);
unicode = 012D;
userData = {
org.pippin.gimp.org.kernagic = {
lstem = 0;
rstem = 0;
};
};
},
{
glyphname = icircumflex;
lastChange = "2018-07-25 18:37:52 +0000";
layers = (
{
layerId = "2E262F32-97C5-4CC7-8265-2EAE7B11245A";
paths = (
{
closed = 1;
nodes = (
"788 -18 OFFCURVE",
"857 -3 OFFCURVE",
"927 26 CURVE",
"904 145 LINE",
"851 126 OFFCURVE",
"798 111 OFFCURVE",
"752 111 CURVE SMOOTH",
"679 111 OFFCURVE",
"625 149 OFFCURVE",
"625 267 CURVE SMOOTH",
"625 1026 LINE",
"461 1026 LINE",
"461 262 LINE SMOOTH",
"461 66 OFFCURVE",
"576 -18 OFFCURVE",
"724 -18 CURVE SMOOTH"
);
},
{
closed = 1;
nodes = (
"356 1130 LINE",
"534 1346 LINE",
"712 1130 LINE",
"844 1130 LINE",
"615 1454 LINE",
"458 1454 LINE",
"230 1130 LINE"
);
}
);
width = 1056;
}
);
unicode = 00EE;
userData = {
org.pippin.gimp.org.kernagic = {
lstem = 0;
rstem = 0;
};
};
},
{
glyphname = idieresis;
lastChange = "2018-07-25 18:37:52 +0000";
layers = (
{
layerId = "2E262F32-97C5-4CC7-8265-2EAE7B11245A";
paths = (
{
closed = 1;
nodes = (
"534 -18 OFFCURVE",
"603 -3 OFFCURVE",
"673 26 CURVE",
"650 145 LINE",
"597 126 OFFCURVE",
"544 111 OFFCURVE",
"498 111 CURVE SMOOTH",
"425 111 OFFCURVE",
"371 149 OFFCURVE",
"371 267 CURVE SMOOTH",
"371 1026 LINE",
"207 1026 LINE",
"207 262 LINE SMOOTH",
"207 66 OFFCURVE",
"322 -18 OFFCURVE",
"470 -18 CURVE SMOOTH"
);
},
{
closed = 1;
nodes = (
"176 1151 OFFCURVE",
"213 1188 OFFCURVE",
"213 1233 CURVE SMOOTH",
"213 1257 LINE SMOOTH",
"213 1302 OFFCURVE",
"176 1339 OFFCURVE",
"131 1339 CURVE SMOOTH",
"86 1339 OFFCURVE",
"49 1302 OFFCURVE",
"49 1257 CURVE SMOOTH",
"49 1233 LINE SMOOTH",
"49 1188 OFFCURVE",
"86 1151 OFFCURVE",
"131 1151 CURVE SMOOTH"
);
},
{
closed = 1;
nodes = (
"508 1151 OFFCURVE",
"545 1188 OFFCURVE",
"545 1233 CURVE SMOOTH",
"545 1257 LINE SMOOTH",
"545 1302 OFFCURVE",
"508 1339 OFFCURVE",
"463 1339 CURVE SMOOTH",
"418 1339 OFFCURVE",
"381 1302 OFFCURVE",
"381 1257 CURVE SMOOTH",
"381 1233 LINE SMOOTH",
"381 1188 OFFCURVE",
"418 1151 OFFCURVE",
"463 1151 CURVE SMOOTH"
);
}
);
width = 814;
}
);
unicode = 00EF;
userData = {
org.pippin.gimp.org.kernagic = {
lstem = 0;
rstem = 0;
};
};
},
{
glyphname = igrave;
lastChange = "2018-07-25 18:37:52 +0000";
layers = (
{
layerId = "2E262F32-97C5-4CC7-8265-2EAE7B11245A";
paths = (
{
closed = 1;
nodes = (
"863 -18 OFFCURVE",
"932 -3 OFFCURVE",
"1002 26 CURVE",
"979 145 LINE",
"926 126 OFFCURVE",
"873 111 OFFCURVE",
"827 111 CURVE SMOOTH",
"754 111 OFFCURVE",
"700 149 OFFCURVE",
"700 267 CURVE SMOOTH",
"700 1026 LINE",
"536 1026 LINE",
"536 262 LINE SMOOTH",
"536 66 OFFCURVE",
"651 -18 OFFCURVE",
"799 -18 CURVE SMOOTH"
);
},
{
closed = 1;
nodes = (
"691 1135 LINE",
"444 1455 LINE",
"230 1455 LINE",
"562 1135 LINE"
);
}
);
width = 1116;
}
);
unicode = 00EC;
userData = {
org.pippin.gimp.org.kernagic = {
lstem = 0;
rstem = 0;
};
};
},
{
glyphname = ij;
lastChange = "2018-07-25 18:37:52 +0000";
layers = (
{
layerId = "2E262F32-97C5-4CC7-8265-2EAE7B11245A";
paths = (
{
closed = 1;
nodes = (
"916 -464 OFFCURVE",
"993 -390 OFFCURVE",
"993 -226 CURVE SMOOTH",
"993 1026 LINE",
"823 1026 LINE",
"823 -207 LINE SMOOTH",
"823 -288 OFFCURVE",
"791 -322 OFFCURVE",
"716 -322 CURVE SMOOTH",
"690 -322 OFFCURVE",
"659 -318 OFFCURVE",
"622 -310 CURVE",
"603 -436 LINE",
"669 -455 OFFCURVE",
"727 -464 OFFCURVE",
"777 -464 CURVE SMOOTH"
);
},
{
closed = 1;
nodes = (
"404 -22 OFFCURVE",
"482 -6 OFFCURVE",
"542 33 CURVE",
"522 148 LINE",
"492 131 OFFCURVE",
"444 110 OFFCURVE",
"401 110 CURVE SMOOTH",
"350 110 OFFCURVE",
"306 139 OFFCURVE",
"306 235 CURVE SMOOTH",
"306 1026 LINE",
"136 1026 LINE",
"136 216 LINE SMOOTH",
"136 55 OFFCURVE",
"208 -22 OFFCURVE",
"343 -22 CURVE SMOOTH"
);
},
{
closed = 1;
nodes = (
"230 1236 LINE SMOOTH",
"289 1236 OFFCURVE",
"347 1273 OFFCURVE",
"347 1346 CURVE SMOOTH",
"347 1420 OFFCURVE",
"288 1458 OFFCURVE",
"230 1458 CURVE SMOOTH",
"229 1458 LINE SMOOTH",
"169 1458 OFFCURVE",
"109 1421 OFFCURVE",
"109 1347 CURVE SMOOTH",
"109 1274 OFFCURVE",
"169 1236 OFFCURVE",
"229 1236 CURVE SMOOTH"
);
},
{
closed = 1;
nodes = (
"913 1236 LINE SMOOTH",
"972 1236 OFFCURVE",
"1030 1273 OFFCURVE",
"1030 1346 CURVE SMOOTH",
"1030 1420 OFFCURVE",
"971 1458 OFFCURVE",
"913 1458 CURVE SMOOTH",
"912 1458 LINE SMOOTH",
"852 1458 OFFCURVE",
"792 1421 OFFCURVE",
"792 1347 CURVE SMOOTH",
"792 1274 OFFCURVE",
"852 1236 OFFCURVE",
"912 1236 CURVE SMOOTH"
);
}
);
width = 1146;
}
);
unicode = 0133;
userData = {
org.pippin.gimp.org.kernagic = {
lstem = 0;
rstem = 0;
};
};
},
{
glyphname = imacron;
lastChange = "2018-07-25 18:37:52 +0000";
layers = (
{
layerId = "2E262F32-97C5-4CC7-8265-2EAE7B11245A";
paths = (
{
closed = 1;
nodes = (
"557 -18 OFFCURVE",
"626 -3 OFFCURVE",
"696 26 CURVE",
"673 145 LINE",
"620 126 OFFCURVE",
"567 111 OFFCURVE",
"521 111 CURVE SMOOTH",
"448 111 OFFCURVE",
"394 149 OFFCURVE",
"394 267 CURVE SMOOTH",
"394 1026 LINE",
"230 1026 LINE",
"230 262 LINE SMOOTH",
"230 66 OFFCURVE",
"345 -18 OFFCURVE",
"493 -18 CURVE SMOOTH"
);
},
{
closed = 1;
nodes = (
"597 1193 LINE",
"597 1327 LINE",
"25 1327 LINE",
"25 1193 LINE"
);
}
);
width = 814;
}
);
unicode = 012B;
userData = {
org.pippin.gimp.org.kernagic = {
lstem = 0;
rstem = 0;
};
};
},
{
glyphname = iogonek;
lastChange = "2018-07-25 18:37:52 +0000";
layers = (
{
layerId = "2E262F32-97C5-4CC7-8265-2EAE7B11245A";
paths = (
{
closed = 1;
nodes = (
"397 -407 OFFCURVE",
"464 -397 OFFCURVE",
"510 -378 CURVE",
"510 -267 LINE",
"464 -285 OFFCURVE",
"420 -298 OFFCURVE",
"356 -298 CURVE SMOOTH",
"305 -298 OFFCURVE",
"256 -267 OFFCURVE",
"256 -216 CURVE SMOOTH",
"256 -134 OFFCURVE",
"373 -69 OFFCURVE",
"459 -17 CURVE",
"458 -16.925 LINE",
"504 -9.504 OFFCURVE",
"554 6.397 OFFCURVE",
"595 33 CURVE",
"575 148 LINE",
"545 131 OFFCURVE",
"497 110 OFFCURVE",
"454 110 CURVE SMOOTH",
"403 110 OFFCURVE",
"359 139 OFFCURVE",
"359 235 CURVE SMOOTH",
"359 1026 LINE",
"189 1026 LINE",
"189 216 LINE SMOOTH",
"189 89.863 OFFCURVE",
"233 15.286 OFFCURVE",
"317 -11.097 CURVE",
"221 -57.407 OFFCURVE",
"115 -119.457 OFFCURVE",
"115 -242 CURVE SMOOTH",
"115 -352 OFFCURVE",
"208 -407 OFFCURVE",
"333 -407 CURVE SMOOTH"
);
},
{
closed = 1;
nodes = (
"283 1236 LINE SMOOTH",
"342 1236 OFFCURVE",
"400 1273 OFFCURVE",
"400 1346 CURVE SMOOTH",
"400 1420 OFFCURVE",
"341 1458 OFFCURVE",
"283 1458 CURVE SMOOTH",
"282 1458 LINE SMOOTH",
"222 1458 OFFCURVE",
"162 1421 OFFCURVE",
"162 1347 CURVE SMOOTH",
"162 1274 OFFCURVE",
"222 1236 OFFCURVE",
"282 1236 CURVE SMOOTH"
);
}
);
width = 754;
}
);
unicode = 012F;
userData = {
org.pippin.gimp.org.kernagic = {
lstem = 0;
rstem = 0;
};
};
},
{
glyphname = itilde;
lastChange = "2018-07-25 18:37:52 +0000";
layers = (
{
layerId = "2E262F32-97C5-4CC7-8265-2EAE7B11245A";
paths = (
{
closed = 1;
nodes = (
"763 -18 OFFCURVE",
"832 -3 OFFCURVE",
"902 26 CURVE",
"879 145 LINE",
"826 126 OFFCURVE",
"773 111 OFFCURVE",
"727 111 CURVE SMOOTH",
"654 111 OFFCURVE",
"600 149 OFFCURVE",
"600 267 CURVE SMOOTH",
"600 1026 LINE",
"436 1026 LINE",
"436 262 LINE SMOOTH",
"436 66 OFFCURVE",
"551 -18 OFFCURVE",
"699 -18 CURVE SMOOTH"
);
},
{
closed = 1;
nodes = (
"335 1134 LINE",
"342 1187 OFFCURVE",
"351 1226 OFFCURVE",
"396 1226 CURVE SMOOTH",
"472 1226 OFFCURVE",
"518 1135 OFFCURVE",
"619 1135 CURVE SMOOTH",
"743 1135 OFFCURVE",
"801 1243 OFFCURVE",
"814 1356 CURVE",
"706 1356 LINE",
"699 1307 OFFCURVE",
"692 1260 OFFCURVE",
"646 1260 CURVE SMOOTH",
"594 1260 OFFCURVE",
"536 1350 OFFCURVE",
"429 1350 CURVE SMOOTH",
"305 1350 OFFCURVE",
"240 1250 OFFCURVE",
"230 1134 CURVE"
);
}
);
width = 1026;
}
);
unicode = 0129;
userData = {
org.pippin.gimp.org.kernagic = {
lstem = 0;
rstem = 0;
};
};
},
{
glyphname = j;
lastChange = "2018-07-25 18:37:52 +0000";
layers = (
{
layerId = "2E262F32-97C5-4CC7-8265-2EAE7B11245A";
paths = (
{
closed = 1;
nodes = (
"282 -464 OFFCURVE",
"359 -390 OFFCURVE",
"359 -226 CURVE SMOOTH",
"359 1026 LINE",
"189 1026 LINE",
"189 -207 LINE SMOOTH",
"189 -288 OFFCURVE",
"157 -322 OFFCURVE",
"82 -322 CURVE SMOOTH",
"56 -322 OFFCURVE",
"25 -318 OFFCURVE",
"-7 -310 CURVE",
"-26 -436 LINE",
"35 -455 OFFCURVE",
"93 -464 OFFCURVE",
"143 -464 CURVE SMOOTH"
);
},
{
closed = 1;
nodes = (
"279 1236 LINE SMOOTH",
"338 1236 OFFCURVE",
"396 1273 OFFCURVE",
"396 1346 CURVE SMOOTH",
"396 1420 OFFCURVE",
"337 1458 OFFCURVE",
"279 1458 CURVE SMOOTH",
"278 1458 LINE SMOOTH",
"218 1458 OFFCURVE",
"158 1421 OFFCURVE",
"158 1347 CURVE SMOOTH",
"158 1274 OFFCURVE",
"218 1236 OFFCURVE",
"278 1236 CURVE SMOOTH"
);
}
);
width = 543;
}
);
unicode = 006A;
userData = {
org.pippin.gimp.org.kernagic = {
lstem = 257;
rstem = 0;
};
};
},
{
glyphname = dotlessj;
lastChange = "2018-07-25 18:37:52 +0000";
layers = (
{
layerId = "2E262F32-97C5-4CC7-8265-2EAE7B11245A";
paths = (
{
closed = 1;
nodes = (
"627 -464 OFFCURVE",
"706 -360 OFFCURVE",
"706 -84 CURVE SMOOTH",
"706 1026 LINE",
"541 1026 LINE",
"541 -76 LINE SMOOTH",
"541 -269 OFFCURVE",
"514 -329 OFFCURVE",
"403 -329 CURVE SMOOTH",
"345 -329 OFFCURVE",
"290 -311 OFFCURVE",
"290 -311 CURVE",
"275 -443 LINE",
"308 -452 OFFCURVE",
"369 -464 OFFCURVE",
"426 -464 CURVE SMOOTH"
);
}
);
width = 905;
}
);
unicode = 0237;
userData = {
org.pippin.gimp.org.kernagic = {
lstem = 0;
rstem = 0;
};
};
},
{
glyphname = jcircumflex;
lastChange = "2018-07-25 18:37:52 +0000";
layers = (
{
layerId = "2E262F32-97C5-4CC7-8265-2EAE7B11245A";
paths = (
{
closed = 1;
nodes = (
"583 -464 OFFCURVE",
"662 -360 OFFCURVE",
"662 -84 CURVE SMOOTH",
"662 1026 LINE",
"497 1026 LINE",
"497 -76 LINE SMOOTH",
"497 -269 OFFCURVE",
"470 -329 OFFCURVE",
"359 -329 CURVE SMOOTH",
"301 -329 OFFCURVE",
"246 -311 OFFCURVE",
"246 -311 CURVE",
"231 -443 LINE",
"264 -452 OFFCURVE",
"325 -464 OFFCURVE",
"382 -464 CURVE SMOOTH"
);
},
{
closed = 1;
nodes = (
"356 1259 LINE",
"534 1475 LINE",
"712 1259 LINE",
"844 1259 LINE",
"615 1583 LINE",
"458 1583 LINE",
"230 1259 LINE"
);
}
);
width = 905;
}
);
unicode = 0135;
userData = {
org.pippin.gimp.org.kernagic = {
lstem = 0;
rstem = 0;
};
};
},
{
glyphname = k;
lastChange = "2018-07-25 18:37:52 +0000";
layers = (
{
layerId = "2E262F32-97C5-4CC7-8265-2EAE7B11245A";
paths = (
{
closed = 1;
nodes = (
"303 0 LINE",
"303 460 LINE",
"796 0 LINE",
"1013 0 LINE",
"459 513 LINE",
"951 1026 LINE",
"744 1026 LINE",
"303 556 LINE",
"303 1560 LINE",
"133 1560 LINE",
"133 0 LINE"
);
}
);
width = 995;
}
);
unicode = 006B;
userData = {
org.pippin.gimp.org.kernagic = {
lstem = 0;
rstem = 617;
};
};
},
{
glyphname = kcommaaccent;
lastChange = "2018-07-25 18:37:52 +0000";
layers = (
{
layerId = "2E262F32-97C5-4CC7-8265-2EAE7B11245A";
paths = (
{
closed = 1;
nodes = (
"303 0 LINE",
"303 460 LINE",
"796 0 LINE",
"1013 0 LINE",
"459 513 LINE",
"951 1026 LINE",
"744 1026 LINE",
"303 556 LINE",
"303 1560 LINE",
"133 1560 LINE",
"133 0 LINE"
);
},
{
closed = 1;
nodes = (
"549 -585 LINE",
"712 -122 LINE",
"525 -122 LINE",
"418 -585 LINE"
);
}
);
width = 1056;
}
);
unicode = 0137;
userData = {
org.pippin.gimp.org.kernagic = {
lstem = 0;
rstem = 0;
};
};
},
{
glyphname = kgreenlandic;
lastChange = "2018-07-25 18:37:52 +0000";
layers = (
{
layerId = "2E262F32-97C5-4CC7-8265-2EAE7B11245A";
paths = (
{
closed = 1;
nodes = (
"298 0 LINE",
"298 471 LINE",
"788 0 LINE",
"1007 0 LINE",
"816 174 OFFCURVE",
"636 338 OFFCURVE",
"453 512 CURVE",
"969 1026 LINE",
"745 1026 LINE",
"298 557 LINE",
"298 1026 LINE",
"133 1026 LINE",
"133 0 LINE"
);
}
);
width = 1056;
}
);
unicode = 0138;
userData = {
org.pippin.gimp.org.kernagic = {
lstem = 0;
rstem = 0;
};
};
},
{
glyphname = l;
lastChange = "2018-07-25 18:37:52 +0000";
layers = (
{
layerId = "2E262F32-97C5-4CC7-8265-2EAE7B11245A";
paths = (
{
closed = 1;
nodes = (
"432 -22 OFFCURVE",
"500 -6 OFFCURVE",
"560 33 CURVE",
"537 148 LINE",
"507 131 OFFCURVE",
"463 110 OFFCURVE",
"420 110 CURVE SMOOTH",
"369 110 OFFCURVE",
"334 139 OFFCURVE",
"334 235 CURVE SMOOTH",
"334 1560 LINE",
"164 1560 LINE",
"164 216 LINE SMOOTH",
"164 55 OFFCURVE",
"236 -22 OFFCURVE",
"371 -22 CURVE SMOOTH"
);
}
);
width = 603;
}
);
unicode = 006C;
userData = {
com.typemytype.robofont.layerData = {
b = {
anchors = (
);
components = (
);
contours = (
{
points = (
{
segmentType = curve;
smooth = 1;
x = -112;
y = -22;
},
{
smooth = 0;
x = -401;
y = -22;
},
{
smooth = 0;
x = -543;
y = 208;
},
{
segmentType = curve;
smooth = 1;
x = -543;
y = 467;
},
{
smooth = 0;
x = -543;
y = 744;
},
{
smooth = 0;
x = -378;
y = 1052;
},
{
segmentType = curve;
smooth = 1;
x = 18;
y = 1052;
},
{
smooth = 0;
x = 145;
y = 1052;
},
{
smooth = 0;
x = 259;
y = 1017;
},
{
segmentType = curve;
smooth = 0;
x = 337;
y = 976;
},
{
segmentType = line;
smooth = 1;
x = 337;
y = 241;
},
{
smooth = 0;
x = 337;
y = 38;
},
{
smooth = 0;
x = 503;
y = 126;
},
{
segmentType = curve;
smooth = 0;
x = 551;
y = 148;
},
{
segmentType = line;
smooth = 0;
x = 573;
y = 33;
},
{
smooth = 0;
x = 505;
y = -17;
},
{
smooth = 0;
x = 212;
y = -100;
},
{
segmentType = curve;
smooth = 0;
x = 172;
y = 144;
},
{
smooth = 0;
x = 116;
y = 45;
},
{
smooth = 0;
x = 36;
y = -22;
}
);
},
{
points = (
{
segmentType = curve;
smooth = 1;
x = -103;
y = 110;
},
{
smooth = 0;
x = 89;
y = 110;
},
{
smooth = 0;
x = 167;
y = 258;
},
{
segmentType = curve;
smooth = 1;
x = 167;
y = 453;
},
{
segmentType = line;
smooth = 0;
x = 167;
y = 894;
},
{
smooth = 0;
x = 125;
y = 907;
},
{
smooth = 0;
x = 62;
y = 920;
},
{
segmentType = curve;
smooth = 1;
x = -12;
y = 920;
},
{
smooth = 0;
x = -260;
y = 920;
},
{
smooth = 0;
x = -369;
y = 674;
},
{
segmentType = curve;
smooth = 1;
x = -369;
y = 457;
},
{
smooth = 0;
x = -369;
y = 271;
},
{
smooth = 0;
x = -293;
y = 110;
}
);
}
);
lib = {
};
name = l;
unicodes = (
);
width = 651;
};
};
org.pippin.gimp.org.kernagic = {
lstem = 0;
rstem = 222;
};
};
},
{
glyphname = lacute;
lastChange = "2018-07-25 18:37:52 +0000";
layers = (
{
layerId = "2E262F32-97C5-4CC7-8265-2EAE7B11245A";
paths = (
{
closed = 1;
nodes = (
"439 -22 OFFCURVE",
"504 -6 OFFCURVE",
"564 33 CURVE",
"544 148 LINE",
"514 131 OFFCURVE",
"466 110 OFFCURVE",
"423 110 CURVE SMOOTH",
"372 110 OFFCURVE",
"341 139 OFFCURVE",
"341 235 CURVE SMOOTH",
"341 1560 LINE",
"171 1560 LINE",
"171 216 LINE SMOOTH",
"171 55 OFFCURVE",
"243 -22 OFFCURVE",
"378 -22 CURVE SMOOTH"
);
},
{
closed = 1;
nodes = (
"282 1562 LINE",
"590 1882 LINE",
"378 1882 LINE",
"152 1562 LINE"
);
}
);
width = 724;
}
);
unicode = 013A;
userData = {
org.pippin.gimp.org.kernagic = {
lstem = 0;
rstem = 0;
};
};
},
{
glyphname = lcaron;
lastChange = "2018-07-25 18:37:52 +0000";
layers = (
{
layerId = "2E262F32-97C5-4CC7-8265-2EAE7B11245A";
paths = (
{
closed = 1;
nodes = (
"477 -22 OFFCURVE",
"542 -6 OFFCURVE",
"602 33 CURVE",
"582 148 LINE",
"552 131 OFFCURVE",
"504 110 OFFCURVE",
"461 110 CURVE SMOOTH",
"410 110 OFFCURVE",
"379 139 OFFCURVE",
"379 235 CURVE SMOOTH",
"379 1560 LINE",
"209 1560 LINE",
"209 216 LINE SMOOTH",
"209 55 OFFCURVE",
"281 -22 OFFCURVE",
"416 -22 CURVE SMOOTH"
);
},
{
closed = 1;
nodes = (
"222 -656 LINE",
"385 -139 LINE",
"198 -139 LINE",
"91 -656 LINE"
);
}
);
width = 754;
}
);
unicode = 013E;
userData = {
org.pippin.gimp.org.kernagic = {
lstem = 0;
rstem = 0;
};
};
},
{
glyphname = lcommaaccent;
lastChange = "2018-07-25 18:37:52 +0000";
layers = (
{
layerId = "2E262F32-97C5-4CC7-8265-2EAE7B11245A";
paths = (
{
closed = 1;
nodes = (
"432 -22 OFFCURVE",
"497 -6 OFFCURVE",
"557 33 CURVE",
"537 148 LINE",
"507 131 OFFCURVE",
"459 110 OFFCURVE",
"416 110 CURVE SMOOTH",
"365 110 OFFCURVE",
"334 139 OFFCURVE",
"334 235 CURVE SMOOTH",
"334 1560 LINE",
"164 1560 LINE",
"164 216 LINE SMOOTH",
"164 55 OFFCURVE",
"236 -22 OFFCURVE",
"371 -22 CURVE SMOOTH"
);
},
{
closed = 1;
nodes = (
"352 -600 LINE",
"515 -137 LINE",
"328 -137 LINE",
"221 -600 LINE"
);
}
);
width = 724;
}
);
unicode = 013C;
userData = {
org.pippin.gimp.org.kernagic = {
lstem = 0;
rstem = 0;
};
};
},
{
glyphname = ldot;
lastChange = "2018-07-25 18:37:52 +0000";
layers = (
{
layerId = "2E262F32-97C5-4CC7-8265-2EAE7B11245A";
paths = (
{
closed = 1;
nodes = (
"401 -22 OFFCURVE",
"466 -6 OFFCURVE",
"526 33 CURVE",
"506 148 LINE",
"476 131 OFFCURVE",
"428 110 OFFCURVE",
"385 110 CURVE SMOOTH",
"334 110 OFFCURVE",
"303 139 OFFCURVE",
"303 235 CURVE SMOOTH",
"303 1560 LINE",
"133 1560 LINE",
"133 216 LINE SMOOTH",
"133 55 OFFCURVE",
"205 -22 OFFCURVE",
"340 -22 CURVE SMOOTH"
);
},
{
closed = 1;
nodes = (
"992 842 OFFCURVE",
"1040 915 OFFCURVE",
"1040 988 CURVE SMOOTH",
"1040 1061 OFFCURVE",
"992 1134 OFFCURVE",
"898 1134 CURVE SMOOTH",
"804 1134 OFFCURVE",
"757 1062 OFFCURVE",
"757 989 CURVE SMOOTH",
"757 916 OFFCURVE",
"804 842 OFFCURVE",
"898 842 CURVE SMOOTH"
);
}
);
width = 1146;
}
);
unicode = 0140;
userData = {
org.pippin.gimp.org.kernagic = {
lstem = 0;
rstem = 0;
};
};
},
{
glyphname = lslash;
lastChange = "2018-07-25 18:37:52 +0000";
layers = (
{
layerId = "2E262F32-97C5-4CC7-8265-2EAE7B11245A";
paths = (
{
closed = 1;
nodes = (
"485 0 LINE",
"485 788 LINE",
"656 890 LINE",
"656 1027 LINE",
"485 925 LINE",
"485 1492 LINE",
"320 1492 LINE",
"320 826 LINE",
"152 726 LINE",
"152 589 LINE",
"320 689 LINE",
"320 0 LINE"
);
}
);
width = 814;
}
);
unicode = 0142;
userData = {
org.pippin.gimp.org.kernagic = {
lstem = 0;
rstem = 0;
};
};
},
{
glyphname = m;
lastChange = "2018-07-25 18:37:52 +0000";
layers = (
{
layerId = "2E262F32-97C5-4CC7-8265-2EAE7B11245A";
paths = (
{
closed = 1;
nodes = (
"1704 -22 OFFCURVE",
"1782 -6 OFFCURVE",
"1842 33 CURVE",
"1820 148 LINE",
"1791 133 OFFCURVE",
"1735 110 OFFCURVE",
"1692 110 CURVE SMOOTH",
"1655 110 OFFCURVE",
"1606 128 OFFCURVE",
"1606 224 CURVE SMOOTH",
"1606 625 LINE SMOOTH",
"1606 946 OFFCURVE",
"1454 1052 OFFCURVE",
"1273 1052 CURVE SMOOTH",
"1108 1052 OFFCURVE",
"998 988 OFFCURVE",
"921 870 CURVE",
"866 1003 OFFCURVE",
"759 1052 OFFCURVE",
"637 1052 CURVE SMOOTH",
"481 1052 OFFCURVE",
"366 984 OFFCURVE",
"292 878 CURVE",
"280 976 OFFCURVE",
"262 1026 OFFCURVE",
"262 1026 CURVE",
"91 1026 LINE",
"91 1026 OFFCURVE",
"134 833 OFFCURVE",
"134 634 CURVE SMOOTH",
"134 0 LINE",
"304 0 LINE",
"304 515 LINE SMOOTH",
"304 796 OFFCURVE",
"481 920 OFFCURVE",
"610 920 CURVE SMOOTH",
"735 920 OFFCURVE",
"793 840 OFFCURVE",
"793 607 CURVE SMOOTH",
"793 2 LINE",
"964 0 LINE",
"964 542 LINE SMOOTH",
"964 792 OFFCURVE",
"1101 920 OFFCURVE",
"1244 920 CURVE SMOOTH",
"1383 920 OFFCURVE",
"1436 853 OFFCURVE",
"1436 607 CURVE SMOOTH",
"1436 216 LINE SMOOTH",
"1436 55 OFFCURVE",
"1508 -22 OFFCURVE",
"1643 -22 CURVE SMOOTH"
);
}
);
width = 1789;
}
);
unicode = 006D;
userData = {
com.typemytype.robofont.layerData = {
b = {
anchors = (
);
components = (
);
contours = (
{
points = (
{
segmentType = curve;
smooth = 1;
x = 1193;
y = 110;
},
{
smooth = 0;
x = 1385;
y = 110;
},
{
smooth = 0;
x = 1463;
y = 258;
},
{
segmentType = curve;
smooth = 1;
x = 1463;
y = 453;
},
{
segmentType = line;
smooth = 0;
x = 1463;
y = 894;
},
{
smooth = 0;
x = 1421;
y = 907;
},
{
smooth = 0;
x = 1358;
y = 920;
},
{
segmentType = curve;
smooth = 1;
x = 1284;
y = 920;
},
{
smooth = 0;
x = 1036;
y = 920;
},
{
smooth = 0;
x = 927;
y = 674;
},
{
segmentType = curve;
smooth = 1;
x = 927;
y = 457;
},
{
smooth = 0;
x = 927;
y = 271;
},
{
smooth = 0;
x = 1003;
y = 110;
}
);
},
{
points = (
{
segmentType = curve;
smooth = 1;
x = 1184;
y = -22;
},
{
smooth = 0;
x = 895;
y = -22;
},
{
smooth = 0;
x = 753;
y = 208;
},
{
segmentType = curve;
smooth = 1;
x = 753;
y = 467;
},
{
smooth = 0;
x = 753;
y = 744;
},
{
smooth = 0;
x = 918;
y = 1052;
},
{
segmentType = curve;
smooth = 1;
x = 1314;
y = 1052;
},
{
smooth = 0;
x = 1441;
y = 1052;
},
{
smooth = 0;
x = 1555;
y = 1017;
},
{
segmentType = curve;
smooth = 0;
x = 1633;
y = 976;
},
{
segmentType = line;
smooth = 1;
x = 1633;
y = 241;
},
{
smooth = 0;
x = 1633;
y = 38;
},
{
smooth = 0;
x = 1799;
y = 126;
},
{
segmentType = curve;
smooth = 0;
x = 1847;
y = 148;
},
{
segmentType = line;
smooth = 0;
x = 1869;
y = 33;
},
{
smooth = 0;
x = 1801;
y = -17;
},
{
smooth = 0;
x = 1508;
y = -100;
},
{
segmentType = curve;
smooth = 0;
x = 1468;
y = 144;
},
{
smooth = 0;
x = 1412;
y = 45;
},
{
smooth = 0;
x = 1332;
y = -22;
}
);
}
);
lib = {
};
name = m;
unicodes = (
);
width = 1789;
};
};
org.pippin.gimp.org.kernagic = {
lstem = 0;
rstem = 0;
};
};
},
{
glyphname = n;
lastChange = "2018-07-25 18:37:52 +0000";
layers = (
{
layerId = "2E262F32-97C5-4CC7-8265-2EAE7B11245A";
paths = (
{
closed = 1;
nodes = (
"1091 -22 OFFCURVE",
"1169 -6 OFFCURVE",
"1229 33 CURVE",
"1207 148 LINE",
"1177 131 OFFCURVE",
"1122 110 OFFCURVE",
"1079 110 CURVE SMOOTH",
"1028 110 OFFCURVE",
"993 139 OFFCURVE",
"993 235 CURVE SMOOTH",
"993 625 LINE SMOOTH",
"993 946 OFFCURVE",
"833 1052 OFFCURVE",
"639 1052 CURVE SMOOTH",
"481 1052 OFFCURVE",
"374 993 OFFCURVE",
"292 878 CURVE",
"280 977 OFFCURVE",
"262 1026 OFFCURVE",
"262 1026 CURVE",
"91 1026 LINE",
"91 1026 OFFCURVE",
"134 833 OFFCURVE",
"134 634 CURVE SMOOTH",
"134 0 LINE",
"304 0 LINE",
"304 552 LINE SMOOTH",
"304 815 OFFCURVE",
"453 920 OFFCURVE",
"614 920 CURVE SMOOTH",
"746 920 OFFCURVE",
"823 859 OFFCURVE",
"823 621 CURVE SMOOTH",
"823 216 LINE SMOOTH",
"823 55 OFFCURVE",
"895 -22 OFFCURVE",
"1030 -22 CURVE SMOOTH"
);
}
);
width = 1176;
}
);
unicode = 006E;
userData = {
com.typemytype.robofont.layerData = {
b = {
anchors = (
);
components = (
);
contours = (
{
points = (
{
segmentType = curve;
smooth = 1;
x = 826;
y = 216;
},
{
segmentType = line;
smooth = 1;
x = 826;
y = 607;
},
{
smooth = 0;
x = 826;
y = 853;
},
{
smooth = 0;
x = 773;
y = 920;
},
{
segmentType = curve;
smooth = 1;
x = 634;
y = 920;
},
{
smooth = 0;
x = 491;
y = 920;
},
{
smooth = 0;
x = 354;
y = 792;
},
{
segmentType = curve;
smooth = 1;
x = 354;
y = 542;
},
{
segmentType = line;
smooth = 0;
x = 354;
y = 0;
},
{
segmentType = line;
smooth = 0;
x = 183;
y = 2;
},
{
segmentType = line;
smooth = 1;
x = 183;
y = 607;
},
{
smooth = 0;
x = 183;
y = 840;
},
{
smooth = 0;
x = 125;
y = 920;
},
{
segmentType = curve;
smooth = 1;
x = 0;
y = 920;
},
{
smooth = 0;
x = -129;
y = 920;
},
{
smooth = 0;
x = -306;
y = 796;
},
{
segmentType = curve;
smooth = 1;
x = -306;
y = 515;
},
{
segmentType = line;
smooth = 0;
x = -306;
y = 0;
},
{
segmentType = line;
smooth = 0;
x = -476;
y = 0;
},
{
segmentType = line;
smooth = 1;
x = -476;
y = 634;
},
{
smooth = 0;
x = -476;
y = 833;
},
{
smooth = 0;
x = -519;
y = 1026;
},
{
segmentType = curve;
smooth = 0;
x = -519;
y = 1026;
},
{
segmentType = line;
smooth = 0;
x = -348;
y = 1026;
},
{
smooth = 0;
x = -348;
y = 1026;
},
{
smooth = 0;
x = -330;
y = 976;
},
{
segmentType = curve;
smooth = 0;
x = -318;
y = 878;
},
{
smooth = 0;
x = -244;
y = 984;
},
{
smooth = 0;
x = -129;
y = 1052;
},
{
segmentType = curve;
smooth = 1;
x = 27;
y = 1052;
},
{
smooth = 0;
x = 149;
y = 1052;
},
{
smooth = 0;
x = 256;
y = 1003;
},
{
segmentType = curve;
smooth = 0;
x = 311;
y = 870;
},
{
smooth = 0;
x = 388;
y = 988;
},
{
smooth = 0;
x = 498;
y = 1052;
},
{
segmentType = curve;
smooth = 1;
x = 663;
y = 1052;
},
{
smooth = 0;
x = 844;
y = 1052;
},
{
smooth = 0;
x = 996;
y = 946;
},
{
segmentType = curve;
smooth = 1;
x = 996;
y = 625;
},
{
segmentType = line;
smooth = 1;
x = 996;
y = 224;
},
{
smooth = 0;
x = 996;
y = 128;
},
{
smooth = 0;
x = 1045;
y = 110;
},
{
segmentType = curve;
smooth = 1;
x = 1082;
y = 110;
},
{
smooth = 0;
x = 1125;
y = 110;
},
{
smooth = 0;
x = 1181;
y = 133;
},
{
segmentType = curve;
smooth = 0;
x = 1210;
y = 148;
},
{
segmentType = line;
smooth = 0;
x = 1232;
y = 33;
},
{
smooth = 0;
x = 1172;
y = -6;
},
{
smooth = 0;
x = 1094;
y = -22;
},
{
segmentType = curve;
smooth = 1;
x = 1033;
y = -22;
},
{
smooth = 0;
x = 898;
y = -22;
},
{
smooth = 0;
x = 826;
y = 55;
}
);
}
);
lib = {
};
name = n;
unicodes = (
);
width = 1194;
};
};
org.pippin.gimp.org.kernagic = {
lstem = 0;
rstem = 0;
};
};
},
{
glyphname = nacute;
lastChange = "2018-07-25 18:37:52 +0000";
layers = (
{
layerId = "2E262F32-97C5-4CC7-8265-2EAE7B11245A";
paths = (
{
closed = 1;
nodes = (
"1091 -22 OFFCURVE",
"1169 -6 OFFCURVE",
"1229 33 CURVE",
"1209 148 LINE",
"1179 131 OFFCURVE",
"1131 110 OFFCURVE",
"1088 110 CURVE SMOOTH",
"1037 110 OFFCURVE",
"993 139 OFFCURVE",
"993 235 CURVE SMOOTH",
"993 625 LINE SMOOTH",
"993 946 OFFCURVE",
"833 1052 OFFCURVE",
"639 1052 CURVE SMOOTH",
"481 1052 OFFCURVE",
"374 993 OFFCURVE",
"292 878 CURVE",
"280 977 OFFCURVE",
"262 1026 OFFCURVE",
"262 1026 CURVE",
"91 1026 LINE",
"91 1026 OFFCURVE",
"134 833 OFFCURVE",
"134 634 CURVE SMOOTH",
"134 0 LINE",
"304 0 LINE",
"304 552 LINE SMOOTH",
"304 815 OFFCURVE",
"453 920 OFFCURVE",
"614 920 CURVE SMOOTH",
"746 920 OFFCURVE",
"823 859 OFFCURVE",
"823 621 CURVE SMOOTH",
"823 216 LINE SMOOTH",
"823 55 OFFCURVE",
"895 -22 OFFCURVE",
"1030 -22 CURVE SMOOTH"
);
},
{
closed = 1;
nodes = (
"712 1624 LINE",
"1020 1944 LINE",
"808 1944 LINE",
"582 1624 LINE"
);
}
);
width = 1176;
}
);
unicode = 0144;
userData = {
org.pippin.gimp.org.kernagic = {
lstem = 0;
rstem = 0;
};
};
},
{
glyphname = ncaron;
lastChange = "2018-07-25 18:37:52 +0000";
layers = (
{
layerId = "2E262F32-97C5-4CC7-8265-2EAE7B11245A";
paths = (
{
closed = 1;
nodes = (
"1091 -22 OFFCURVE",
"1169 -6 OFFCURVE",
"1229 33 CURVE",
"1209 148 LINE",
"1179 131 OFFCURVE",
"1131 110 OFFCURVE",
"1088 110 CURVE SMOOTH",
"1037 110 OFFCURVE",
"993 139 OFFCURVE",
"993 235 CURVE SMOOTH",
"993 625 LINE SMOOTH",
"993 946 OFFCURVE",
"833 1052 OFFCURVE",
"639 1052 CURVE SMOOTH",
"481 1052 OFFCURVE",
"374 993 OFFCURVE",
"292 878 CURVE",
"280 977 OFFCURVE",
"262 1026 OFFCURVE",
"262 1026 CURVE",
"91 1026 LINE",
"91 1026 OFFCURVE",
"134 833 OFFCURVE",
"134 634 CURVE SMOOTH",
"134 0 LINE",
"304 0 LINE",
"304 552 LINE SMOOTH",
"304 815 OFFCURVE",
"453 920 OFFCURVE",
"614 920 CURVE SMOOTH",
"746 920 OFFCURVE",
"823 859 OFFCURVE",
"823 621 CURVE SMOOTH",
"823 216 LINE SMOOTH",
"823 55 OFFCURVE",
"895 -22 OFFCURVE",
"1030 -22 CURVE SMOOTH"
);
},
{
closed = 1;
nodes = (
"735 1644 LINE",
"973 1967 LINE",
"819 1967 LINE",
"651 1752 LINE",
"487 1967 LINE",
"340 1967 LINE",
"579 1644 LINE"
);
}
);
width = 1176;
}
);
unicode = 0148;
userData = {
org.pippin.gimp.org.kernagic = {
lstem = 0;
rstem = 0;
};
};
},
{
glyphname = ncommaaccent;
lastChange = "2018-07-25 18:37:52 +0000";
layers = (
{
layerId = "2E262F32-97C5-4CC7-8265-2EAE7B11245A";
paths = (
{
closed = 1;
nodes = (
"1091 -22 OFFCURVE",
"1169 -6 OFFCURVE",
"1229 33 CURVE",
"1209 148 LINE",
"1179 131 OFFCURVE",
"1131 110 OFFCURVE",
"1088 110 CURVE SMOOTH",
"1037 110 OFFCURVE",
"993 139 OFFCURVE",
"993 235 CURVE SMOOTH",
"993 625 LINE SMOOTH",
"993 946 OFFCURVE",
"833 1052 OFFCURVE",
"639 1052 CURVE SMOOTH",
"481 1052 OFFCURVE",
"374 993 OFFCURVE",
"292 878 CURVE",
"280 977 OFFCURVE",
"262 1026 OFFCURVE",
"262 1026 CURVE",
"91 1026 LINE",
"91 1026 OFFCURVE",
"134 833 OFFCURVE",
"134 634 CURVE SMOOTH",
"134 0 LINE",
"304 0 LINE",
"304 552 LINE SMOOTH",
"304 815 OFFCURVE",
"453 920 OFFCURVE",
"614 920 CURVE SMOOTH",
"746 920 OFFCURVE",
"823 859 OFFCURVE",
"823 621 CURVE SMOOTH",
"823 216 LINE SMOOTH",
"823 55 OFFCURVE",
"895 -22 OFFCURVE",
"1030 -22 CURVE SMOOTH"
);
},
{
closed = 1;
nodes = (
"585 -599 LINE",
"748 -136 LINE",
"561 -136 LINE",
"454 -599 LINE"
);
}
);
width = 1176;
}
);
unicode = 0146;
userData = {
org.pippin.gimp.org.kernagic = {
lstem = 0;
rstem = 0;
};
};
},
